<svg width="46" height="80" viewBox="0 0 46 80" fill="none" xmlns="http://www.w3.org/2000/svg" xmlns:xlink="http://www.w3.org/1999/xlink">
<path d="M42.714,10C40.907,10 39.429,11.5 39.429,13.333L39.429,56.667C39.429,65.867 32.069,73.333 23,73.333C13.931,73.333 6.571,65.867 6.571,56.667L6.571,16.667C6.571,11.167 11.007,6.667 16.429,6.667C21.85,6.667 26.286,11.167 26.286,16.667L26.286,56.667C26.286,58.5 24.807,60 23,60C21.193,60 19.714,58.5 19.714,56.667L19.714,20C19.714,18.167 18.236,16.667 16.429,16.667C14.621,16.667 13.143,18.167 13.143,20L13.143,56.667C13.143,62.167 17.579,66.667 23,66.667C28.421,66.667 32.857,62.167 32.857,56.667L32.857,16.667C32.857,7.467 25.497,0 16.429,0C7.36,0 0,7.467 0,16.667L0,56.667C0,69.533 10.317,80 23,80C35.683,80 46,69.533 46,56.667L46,13.333C46,11.5 44.521,10 42.714,10Z" fill="#157145"/>
</svg>
