<svg width="24" height="24" viewBox="0 0 24 24" fill="none" xmlns="http://www.w3.org/2000/svg">
<g clip-path="url(#clip0_32_37)">
<path d="M12 24C14.3734 24 16.6935 23.2962 18.6668 21.9776C20.6402 20.6591 22.1783 18.7849 23.0866 16.5922C23.9948 14.3995 24.2324 11.9867 23.7694 9.65891C23.3064 7.33114 22.1635 5.19295 20.4853 3.51472C18.8071 1.83649 16.6689 0.693598 14.3411 0.230576C12.0133 -0.232449 9.60051 0.0051918 7.4078 0.913445C5.21509 1.8217 3.34094 3.35976 2.02236 5.33315C0.703788 7.30655 0 9.62662 0 12C0.00344108 15.1815 1.26883 18.2318 3.51852 20.4815C5.76821 22.7312 8.81846 23.9966 12 24ZM10.586 6.586C10.9611 6.21106 11.4697 6.00043 12 6.00043C12.5303 6.00043 13.0389 6.21106 13.414 6.586L17.657 10.829L16.243 12.243L13 9L13 18H11L11 9L7.757 12.243L6.343 10.829L10.586 6.586Z" fill="#157145"/>
</g>
<defs>
<clipPath id="clip0_32_37">
<rect width="24" height="24" fill="white" transform="matrix(0 -1 1 0 0 24)"/>
</clipPath>
</defs>
</svg>
