<svg width="24" height="24" viewBox="0 0 24 24" fill="none" xmlns="http://www.w3.org/2000/svg">
<g clip-path="url(#clip0_170_2)">
<path d="M12 0C5.383 0 0 5.383 0 12C0 18.617 5.383 24 12 24C18.617 24 24 18.617 24 12C24 5.383 18.617 0 12 0ZM16.765 16.105C17.121 16.528 17.067 17.159 16.645 17.514C16.457 17.672 16.228 17.749 16.001 17.749C15.716 17.749 15.433 17.628 15.235 17.394L12 13.552L8.765 17.394C8.568 17.628 8.285 17.749 7.999 17.749C7.772 17.749 7.543 17.672 7.355 17.514C6.933 17.159 6.878 16.528 7.235 16.105L10.692 12L7.235 7.895C6.879 7.472 6.933 6.841 7.355 6.486C7.778 6.129 8.41 6.185 8.764 6.606L11.999 10.448L15.234 6.606C15.588 6.186 16.22 6.129 16.643 6.486C17.065 6.841 17.12 7.472 16.763 7.895L13.306 12L16.763 16.105H16.765Z" fill="#FF3B30"/>
</g>
<defs>
<clipPath id="clip0_170_2">
<rect width="24" height="24" fill="white"/>
</clipPath>
</defs>
</svg>
