<svg width="24" height="24" viewBox="0 0 24 24" fill="none" xmlns="http://www.w3.org/2000/svg">
<g clip-path="url(#clip0_28_5805)">
<path d="M19 2H5C2.24 2 0 4.24 0 7V17C0 19.76 2.24 22 5 22H19C21.76 22 24 19.76 24 17V7C24 4.24 21.76 2 19 2ZM22 17C22 18.65 20.65 20 19 20H17.65C16.83 17.67 14.61 16 12 16C9.39 16 7.17 17.67 6.35 20H5C3.35 20 2 18.65 2 17V7C2 5.35 3.35 4 5 4H19C20.65 4 22 5.35 22 7V17ZM16 10C16 12.21 14.21 14 12 14C9.79 14 8 12.21 8 10C8 7.79 9.79 6 12 6C14.21 6 16 7.79 16 10Z" fill="black"/>
</g>
<defs>
<clipPath id="clip0_28_5805">
<rect width="24" height="24" fill="white"/>
</clipPath>
</defs>
</svg>
