<svg width="50" height="40" viewBox="0 0 50 40" fill="none" xmlns="http://www.w3.org/2000/svg" xmlns:xlink="http://www.w3.org/1999/xlink">
<path d="M39,0L11,0C5.48,0 1,4.48 1,10L1,30C1,35.52 5.48,40 11,40L39,40C44.52,40 49,35.52 49,30L49,10C49,4.48 44.52,0 39,0ZM45,30C45,33.3 42.3,36 39,36L36.3,36C34.66,31.34 30.22,28 25,28C19.78,28 15.34,31.34 13.7,36L11,36C7.7,36 5,33.3 5,30L5,10C5,6.7 7.7,4 11,4L39,4C42.3,4 45,6.7 45,10L45,30ZM33,16C33,20.42 29.42,24 25,24C20.58,24 17,20.42 17,16C17,11.58 20.58,8 25,8C29.42,8 33,11.58 33,16Z" fill="#FAFAFA"/>
</svg>
