<svg width="50" height="48" viewBox="0 0 50 48" fill="none" xmlns="http://www.w3.org/2000/svg" xmlns:xlink="http://www.w3.org/1999/xlink">
<path d="M36.692,28.434L27.906,24.65C26.032,23.844 23.882,23.844 22.01,24.654L13.28,28.434C11.834,29.06 10.936,30.428 10.934,32.002C10.932,33.576 11.828,34.946 13.27,35.576L17,37.204L17,42.388C17,44.336 18.14,46.12 19.908,46.934C21.446,47.642 23.158,48 25,48C26.842,48 28.554,47.64 30.096,46.934C31.86,46.12 33,44.334 33,42.388L33,37.188L35,36.32L35,42.002C35,43.108 35.894,44.002 37,44.002C38.106,44.002 39,43.108 39,42.002C39,42.002 39,32.108 39,32.002C39,30.448 38.118,29.046 36.692,28.436L36.692,28.434ZM23.6,28.326C24.464,27.95 25.46,27.95 26.324,28.322L35.024,31.876C35.024,31.904 35.01,31.926 35.008,31.954L26.338,35.72C25.466,36.098 24.466,36.098 23.594,35.716L14.868,32.106L23.598,28.326L23.6,28.326ZM29,42.386C29,42.784 28.778,43.136 28.422,43.3C26.402,44.226 23.596,44.226 21.58,43.3C21.222,43.136 21,42.784 21,42.386L21,38.948L21.996,39.382C22.942,39.794 23.956,40 24.972,40C25.982,40 26.992,39.796 27.934,39.386L29,38.922L29,42.386ZM15,9C15,10.656 13.656,12 12,12C10.344,12 9,10.656 9,9C9,7.344 10.344,6 12,6C13.656,6 15,7.344 15,9ZM23,9C23,10.656 21.656,12 20,12C18.344,12 17,10.656 17,9C17,7.344 18.344,6 20,6C21.656,6 23,7.344 23,9ZM39,0L11,0C5.486,0 1,4.486 1,10L1,34C1,39.514 5.486,44 11,44C12.104,44 13,43.106 13,42C13,40.894 12.104,40 11,40C7.692,40 5,37.308 5,34L5,18L45,18L45,34C45,35.462 44.468,36.872 43.502,37.966C42.772,38.794 42.85,40.058 43.68,40.788C44.504,41.518 45.77,41.442 46.502,40.61C48.114,38.786 49,36.436 49,33.998L49,10C49,4.486 44.514,0 39,0ZM5,14L5,10C5,6.692 7.692,4 11,4L39,4C42.308,4 45,6.692 45,10L45,14L5,14Z" fill="#FAFAFA"/>
</svg>
