<svg width="24" height="24" viewBox="0 0 24 24" fill="none" xmlns="http://www.w3.org/2000/svg">
<g clip-path="url(#clip0_28_3014)">
<path d="M17.846 14.217L13.453 12.325C12.516 11.922 11.441 11.922 10.505 12.327L6.14 14.217C5.417 14.53 4.968 15.214 4.967 16.001C4.966 16.788 5.414 17.473 6.135 17.788L8 18.602V21.194C8 22.168 8.57 23.06 9.454 23.467C10.223 23.821 11.079 24 12 24C12.921 24 13.777 23.82 14.548 23.467C15.43 23.06 16 22.167 16 21.194V18.594L17 18.16V21.001C17 21.554 17.447 22.001 18 22.001C18.553 22.001 19 21.554 19 21.001C19 21.001 19 16.054 19 16.001C19 15.224 18.559 14.523 17.846 14.218V14.217ZM11.3 14.163C11.732 13.975 12.23 13.975 12.662 14.161L17.012 15.938C17.012 15.952 17.005 15.963 17.004 15.977L12.669 17.86C12.233 18.049 11.733 18.049 11.297 17.858L6.934 16.053L11.299 14.163H11.3ZM14 21.193C14 21.392 13.889 21.568 13.711 21.65C12.701 22.113 11.298 22.113 10.29 21.65C10.111 21.568 10 21.392 10 21.193V19.474L10.498 19.691C10.971 19.897 11.478 20 11.986 20C12.491 20 12.996 19.898 13.467 19.693L14 19.461V21.193ZM7 4.5C7 5.328 6.328 6 5.5 6C4.672 6 4 5.328 4 4.5C4 3.672 4.672 3 5.5 3C6.328 3 7 3.672 7 4.5ZM11 4.5C11 5.328 10.328 6 9.5 6C8.672 6 8 5.328 8 4.5C8 3.672 8.672 3 9.5 3C10.328 3 11 3.672 11 4.5ZM19 0H5C2.243 0 0 2.243 0 5V17C0 19.757 2.243 22 5 22C5.552 22 6 21.553 6 21C6 20.447 5.552 20 5 20C3.346 20 2 18.654 2 17V9H22V17C22 17.731 21.734 18.436 21.251 18.983C20.886 19.397 20.925 20.029 21.34 20.394C21.752 20.759 22.385 20.721 22.751 20.305C23.557 19.393 24 18.218 24 16.999V5C24 2.243 21.757 0 19 0ZM2 7V5C2 3.346 3.346 2 5 2H19C20.654 2 22 3.346 22 5V7H2Z" fill="black"/>
</g>
<defs>
<clipPath id="clip0_28_3014">
<rect width="24" height="24" fill="white"/>
</clipPath>
</defs>
</svg>
