<svg width="24" height="25" viewBox="0 0 24 25" fill="none" xmlns="http://www.w3.org/2000/svg">
<path d="M19 4.49933H17.899C17.434 2.22071 15.414 0.5 13 0.5H5C2.243 0.5 0 2.74263 0 5.49917V18.351C0 19.1449 0.435 19.8708 1.134 20.2447C1.452 20.4157 1.801 20.4997 2.149 20.4997C2.565 20.4997 2.98 20.3787 3.339 20.1397L6.289 18.1731C6.98 20.1077 8.83 21.4965 11 21.4965H16.697L20.661 24.1391C21.021 24.379 21.435 24.5 21.851 24.5C22.199 24.5 22.547 24.415 22.866 24.244C23.566 23.8701 24 23.1442 24 22.3504V9.4985C24 6.74196 21.757 4.49933 19 4.49933ZM2.23 18.476C2.211 18.488 2.155 18.524 2.078 18.483C1.999 18.441 1.999 18.374 1.999 18.352V5.49917C1.999 3.84544 3.345 2.49967 4.999 2.49967H12.999C14.653 2.49967 15.999 3.84544 15.999 5.49917V12.498C15.999 14.1517 14.653 15.4975 12.999 15.4975H6.999C6.672 15.4975 6.458 15.6565 6.434 15.6725L2.23 18.476ZM22 22.3514C22 22.3724 22 22.4403 21.921 22.4823C21.842 22.5233 21.788 22.4873 21.77 22.4753L17.555 19.6648C17.391 19.5558 17.198 19.4968 17 19.4968H11C9.696 19.4968 8.585 18.661 8.172 17.4972H13C15.757 17.4972 18 15.2545 18 12.498V6.499H19C20.654 6.499 22 7.84478 22 9.4985V22.3514Z" fill="#FAFAFA"/>
</svg>
