<svg width="242" height="241" viewBox="0 0 242 241" fill="none" xmlns="http://www.w3.org/2000/svg">
<path d="M242 184.052H0V184.171H242V184.052Z" fill="#EBEBEB"/>
<path d="M217.752 191.775H191.02V191.895H217.752V191.775Z" fill="#EBEBEB"/>
<path d="M159.962 189.26H155.756V189.379H159.962V189.26Z" fill="#EBEBEB"/>
<path d="M189.563 187.321H180.275V187.44H189.563V187.321Z" fill="#EBEBEB"/>
<path d="M46.2946 188.127H25.3906V188.247H46.2946V188.127Z" fill="#EBEBEB"/>
<path d="M126.348 191.228H104.22V191.348H126.348V191.228Z" fill="#EBEBEB"/>
<path d="M113.324 189.198H67.9827V189.317H113.324V189.198Z" fill="#EBEBEB"/>
<path d="M117.477 159.903C117.477 160.264 117.405 160.62 117.266 160.953C117.126 161.286 116.922 161.588 116.665 161.843C116.408 162.098 116.103 162.299 115.767 162.437C115.431 162.574 115.071 162.645 114.708 162.644H21.2525C20.5203 162.643 19.8186 162.353 19.3014 161.84C18.7842 161.326 18.4937 160.629 18.4937 159.903V29.6168C18.5 28.8949 18.7933 28.2046 19.3099 27.6959C19.8264 27.1873 20.5245 26.9012 21.2525 26.9H114.708C115.441 26.9 116.144 27.1888 116.662 27.7028C117.18 28.2168 117.472 28.9139 117.472 29.6408M117.351 29.6408C117.353 29.2948 117.287 28.9517 117.155 28.6312C117.024 28.3108 116.829 28.0193 116.584 27.7735C116.338 27.5277 116.046 27.3325 115.724 27.1991C115.402 27.0656 115.057 26.9966 114.708 26.996H21.2525C20.5524 26.9973 19.8815 27.274 19.387 27.7653C18.8924 28.2567 18.6147 28.9226 18.6147 29.6168V159.903C18.6147 160.597 18.8924 161.263 19.387 161.755C19.8815 162.246 20.5524 162.523 21.2525 162.524H114.708C115.409 162.523 116.08 162.246 116.575 161.755C117.071 161.264 117.349 160.598 117.351 159.903" fill="#EBEBEB"/>
<path d="M219.402 162.644H125.942C125.209 162.643 124.507 162.354 123.989 161.84C123.471 161.326 123.179 160.63 123.178 159.903V29.6168C123.186 28.8945 123.48 28.2042 123.997 27.6956C124.515 27.1871 125.213 26.9012 125.942 26.9H219.402C220.129 26.9025 220.826 27.1891 221.341 27.6976C221.857 28.2062 222.15 28.8957 222.156 29.6168V159.903C222.156 160.628 221.866 161.324 221.35 161.838C220.834 162.352 220.133 162.641 219.402 162.644ZM125.942 26.996C125.241 26.9973 124.57 27.2738 124.074 27.765C123.579 28.2562 123.3 28.9221 123.299 29.6168V159.903C123.3 160.598 123.579 161.264 124.074 161.755C124.57 162.246 125.241 162.523 125.942 162.524H219.402C220.102 162.523 220.774 162.246 221.269 161.755C221.765 161.264 222.043 160.598 222.045 159.903V29.6168C222.043 28.9221 221.765 28.2562 221.269 27.765C220.774 27.2738 220.102 26.9973 219.402 26.996H125.942Z" fill="#EBEBEB"/>
<path d="M164.323 60.404H132.209V97.3304H164.323V60.404Z" fill="#E6E6E6"/>
<path d="M166.564 60.404H132.693V97.3304H166.564V60.404Z" fill="#F0F0F0"/>
<path d="M163.728 94.5224V63.2216H135.535V94.5224H163.728Z" fill="white"/>
<path d="M156.487 85.94H149.169C147.399 85.9375 145.702 85.2386 144.45 83.9968C143.199 82.755 142.496 81.0716 142.494 79.316V72.0632C142.494 71.9919 142.523 71.9235 142.574 71.8731C142.625 71.8227 142.694 71.7944 142.765 71.7944H150.084C151.855 71.7957 153.553 72.494 154.805 73.7359C156.057 74.9779 156.761 76.662 156.763 78.4184V85.676C156.762 85.7113 156.754 85.7461 156.74 85.7785C156.726 85.8109 156.706 85.8402 156.68 85.8647C156.654 85.8892 156.624 85.9085 156.591 85.9214C156.558 85.9343 156.522 85.9406 156.487 85.94ZM143.036 72.332V79.316C143.039 80.9282 143.686 82.4736 144.835 83.6135C145.985 84.7535 147.543 85.3951 149.169 85.3976H156.216V78.4184C156.215 76.8059 155.568 75.2597 154.418 74.1195C153.269 72.9792 151.709 72.3381 150.084 72.3368L143.036 72.332Z" fill="#F0F0F0"/>
<path d="M210.724 74.2856H173.954L177.212 47.5304H207.466L210.724 74.2856Z" fill="#EBEBEB"/>
<path d="M180.043 74.2808H179.453V84.5288H180.043V74.2808Z" fill="#E0E0E0"/>
<path d="M179.748 85.2296C180.138 85.2296 180.455 84.9158 180.455 84.5288C180.455 84.1418 180.138 83.828 179.748 83.828C179.358 83.828 179.041 84.1418 179.041 84.5288C179.041 84.9158 179.358 85.2296 179.748 85.2296Z" fill="#E0E0E0"/>
<path d="M202.656 74.2856H196.335L194.994 47.5304H200.826L202.656 74.2856Z" fill="#F5F5F5"/>
<path d="M194.181 74.2808H190.502V184.047H194.181V74.2808Z" fill="#F0F0F0"/>
<path d="M198.159 184.052H186.519C186.519 183.4 186.78 182.774 187.245 182.313C187.709 181.851 188.339 181.591 188.997 181.59H195.681C196.339 181.591 196.969 181.851 197.434 182.313C197.898 182.774 198.159 183.4 198.159 184.052Z" fill="#F0F0F0"/>
<path d="M194.181 74.2808H190.502V76.508H194.181V74.2808Z" fill="#E0E0E0"/>
<path d="M188.073 132.178C187.777 132.178 187.482 132.178 187.182 132.207C185.318 132.336 183.505 132.872 181.875 133.779C180.244 134.685 178.837 135.938 177.753 137.448C176.669 138.958 175.936 140.687 175.606 142.511C175.277 144.336 175.359 146.21 175.847 147.999C177.227 153.341 177.895 158.839 177.831 164.353V180.414C177.831 180.691 177.885 180.965 177.992 181.221C178.098 181.477 178.255 181.709 178.452 181.905C178.65 182.101 178.884 182.256 179.142 182.362C179.4 182.467 179.677 182.521 179.956 182.521H214.804V132.178H188.073Z" fill="#F0F0F0"/>
<path d="M227.48 144.73C227.48 142.942 227.094 141.175 226.349 139.547C225.605 137.919 224.518 136.467 223.162 135.289C221.806 134.111 220.212 133.233 218.486 132.715C216.761 132.197 214.944 132.051 213.156 132.286C211.369 132.52 209.653 133.131 208.123 134.077C206.593 135.022 205.284 136.281 204.284 137.768C203.284 139.256 202.616 140.938 202.324 142.703C202.032 144.467 202.124 146.273 202.593 147.999C203.973 153.341 204.641 158.839 204.577 164.353V180.414C204.577 180.691 204.631 180.965 204.738 181.221C204.844 181.477 205.001 181.709 205.198 181.905C205.396 182.101 205.63 182.256 205.888 182.362C206.146 182.467 206.423 182.521 206.702 182.521H222.935C223.499 182.521 224.039 182.299 224.438 181.904C224.836 181.508 225.06 180.972 225.06 180.414V163.412C225.005 158.24 225.656 153.084 226.996 148.086C227.311 146.994 227.473 145.865 227.48 144.73Z" fill="#F5F5F5"/>
<path d="M208.391 151.954H150.669V182.521H208.391V151.954Z" fill="#F0F0F0"/>
<path d="M172.227 111.908H129.635C128.407 111.886 127.189 112.123 126.061 112.604C124.933 113.085 123.921 113.798 123.093 114.697C122.264 115.595 121.638 116.658 121.255 117.815C120.873 118.972 120.743 120.197 120.874 121.407L124.117 158.847H185.856L182.613 121.407C182.352 118.838 181.151 116.453 179.237 114.703C177.324 112.953 174.829 111.958 172.227 111.908Z" fill="#E0E0E0"/>
<path d="M184.752 111.908H141.241C140.072 111.885 138.911 112.11 137.837 112.568C136.762 113.025 135.798 113.704 135.009 114.56C134.22 115.415 133.624 116.428 133.261 117.53C132.897 118.632 132.775 119.798 132.902 120.951L136.188 158.871H197.956L194.67 120.951C194.423 118.5 193.276 116.224 191.448 114.557C189.619 112.889 187.236 111.946 184.752 111.908Z" fill="#F5F5F5"/>
<path d="M151.618 149.166H207.413C208.254 149.166 209.061 149.497 209.655 150.086C210.25 150.676 210.584 151.476 210.584 152.31V158.468C210.584 159.302 210.25 160.102 209.655 160.691C209.061 161.281 208.254 161.612 207.413 161.612H151.618C151.361 161.612 151.115 161.511 150.933 161.331C150.752 161.151 150.65 160.907 150.65 160.652V150.092C150.659 149.843 150.765 149.608 150.945 149.435C151.126 149.262 151.367 149.165 151.618 149.166Z" fill="#E0E0E0"/>
<path d="M119.572 132.178C119.275 132.178 118.98 132.188 118.686 132.207C116.823 132.338 115.011 132.875 113.381 133.782C111.752 134.689 110.345 135.941 109.261 137.451C108.177 138.96 107.443 140.689 107.112 142.512C106.781 144.336 106.861 146.21 107.346 147.999C108.729 153.34 109.397 158.839 109.331 164.353V180.414C109.331 180.972 109.555 181.508 109.953 181.904C110.351 182.299 110.892 182.521 111.455 182.521H146.303V132.178H119.572Z" fill="#F0F0F0"/>
<path d="M158.965 144.73C158.959 142.946 158.57 141.182 157.823 139.559C157.076 137.935 155.989 136.487 154.633 135.313C153.278 134.139 151.686 133.265 149.963 132.749C148.24 132.233 146.426 132.088 144.642 132.322C142.858 132.556 141.144 133.165 139.616 134.107C138.088 135.05 136.78 136.305 135.779 137.789C134.779 139.272 134.109 140.95 133.813 142.711C133.518 144.472 133.605 146.274 134.068 147.999C135.451 153.34 136.118 158.839 136.052 164.353V180.414C136.052 180.691 136.107 180.965 136.215 181.221C136.322 181.477 136.479 181.71 136.676 181.905C136.874 182.101 137.109 182.256 137.367 182.362C137.626 182.467 137.903 182.521 138.182 182.521H154.41C154.69 182.521 154.966 182.467 155.224 182.362C155.482 182.256 155.717 182.101 155.914 181.905C156.112 181.709 156.268 181.477 156.375 181.221C156.481 180.965 156.536 180.69 156.535 180.414V163.412C156.49 158.239 157.151 153.083 158.5 148.086C158.806 146.993 158.962 145.864 158.965 144.73Z" fill="#F5F5F5"/>
<path d="M208.381 184.052H120.477C120.068 184.052 119.675 183.891 119.386 183.604C119.096 183.316 118.933 182.927 118.933 182.521H209.925C209.925 182.927 209.763 183.316 209.473 183.604C209.184 183.891 208.791 184.052 208.381 184.052Z" fill="#E0E0E0"/>
<path d="M32.9264 43.6184H22.3171V184.052H32.9264V43.6184Z" fill="#E6E6E6"/>
<path d="M32.9217 184.052H126.029L126.029 43.6184H32.9217L32.9217 184.052Z" fill="#F5F5F5"/>
<path d="M124.291 184.052L124.291 45.6872L34.6641 45.6872L34.6641 184.052H124.291Z" fill="#E6E6E6"/>
<path d="M42.166 184.052L42.166 45.6872H34.664L34.664 184.052H42.166Z" fill="#E0E0E0"/>
<path d="M125.235 159.385V157.321H34.6642V159.385H125.235Z" fill="#F5F5F5"/>
<path d="M125.235 130.393V128.329H34.6642V130.393H125.235Z" fill="#F5F5F5"/>
<path d="M125.235 101.406V99.3368H34.6642V101.406H125.235Z" fill="#F5F5F5"/>
<path d="M125.235 72.4088V70.3448H34.6642V72.4088H125.235Z" fill="#F5F5F5"/>
<path d="M42.6502 70.3496H56.1199V50.6552H42.6502V70.3496Z" fill="#FAFAFA"/>
<path d="M57.5524 50.6504H54.9679C54.5616 50.6504 54.2322 50.9771 54.2322 51.38V69.6152C54.2322 70.0182 54.5616 70.3448 54.9679 70.3448H57.5524C57.9587 70.3448 58.2881 70.0182 58.2881 69.6152V51.38C58.2881 50.9771 57.9587 50.6504 57.5524 50.6504Z" fill="#F0F0F0"/>
<path d="M38.1101 70.3496H51.5798V50.6552H38.1101V70.3496Z" fill="#FAFAFA"/>
<path d="M53.0221 50.6504H50.4376C50.0313 50.6504 49.7019 50.9771 49.7019 51.38V69.6152C49.7019 70.0182 50.0313 70.3448 50.4376 70.3448H53.0221C53.4284 70.3448 53.7578 70.0182 53.7578 69.6152V51.38C53.7578 50.9771 53.4284 50.6504 53.0221 50.6504Z" fill="#E6E6E6"/>
<path d="M34.6641 50.6504H46.2897L45.3653 70.3496H34.6641V50.6504Z" fill="#FAFAFA"/>
<path d="M47.7902 50.6504H45.0749C44.8773 50.6698 44.6944 50.7628 44.5633 50.9107C44.4321 51.0586 44.3624 51.2503 44.3683 51.4472L43.5164 69.5528C43.5036 69.6467 43.51 69.7421 43.5352 69.8335C43.5603 69.9249 43.6038 70.0103 43.663 70.0846C43.7221 70.159 43.7958 70.2208 43.8796 70.2663C43.9633 70.3118 44.0555 70.3402 44.1505 70.3496H46.8657C47.0625 70.3281 47.244 70.2344 47.3748 70.087C47.5055 69.9396 47.576 69.7491 47.5724 69.5528L48.4242 51.4472C48.4377 51.3532 48.4319 51.2575 48.407 51.1659C48.3821 51.0742 48.3387 50.9886 48.2794 50.914C48.2201 50.8395 48.1461 50.7777 48.0621 50.7324C47.978 50.6871 47.8855 50.6592 47.7902 50.6504Z" fill="#F0F0F0"/>
<path d="M104.941 70.3448H115.153V53.7176H104.941V70.3448Z" fill="#FAFAFA"/>
<path d="M116.213 53.7224H114.311C113.988 53.7224 113.726 53.9824 113.726 54.3032V69.7688C113.726 70.0896 113.988 70.3496 114.311 70.3496H116.213C116.537 70.3496 116.799 70.0896 116.799 69.7688V54.3032C116.799 53.9824 116.537 53.7224 116.213 53.7224Z" fill="#F0F0F0"/>
<path d="M101.5 70.3448H111.712V53.7176H101.5V70.3448Z" fill="#FAFAFA"/>
<path d="M112.777 53.7224H110.875C110.551 53.7224 110.289 53.9824 110.289 54.3032V69.7688C110.289 70.0896 110.551 70.3496 110.875 70.3496H112.777C113.1 70.3496 113.362 70.0896 113.362 69.7688V54.3032C113.362 53.9824 113.1 53.7224 112.777 53.7224Z" fill="#E6E6E6"/>
<path d="M98.886 53.7224H107.7L106.998 70.3496H98.886V53.7224Z" fill="#FAFAFA"/>
<path d="M108.837 53.7224H106.78C106.499 53.7224 106.262 54.0248 106.243 54.3944L105.599 69.6776C105.599 70.0472 105.798 70.3496 106.083 70.3496H108.145C108.426 70.3496 108.663 70.0472 108.677 69.6776L109.326 54.3944C109.336 54.0248 109.118 53.7224 108.837 53.7224Z" fill="#F0F0F0"/>
<path d="M91.7712 70.3448H101.984V53.7176H91.7712V70.3448Z" fill="#FAFAFA"/>
<path d="M103.044 53.7224H101.142C100.818 53.7224 100.556 53.9824 100.556 54.3032V69.7688C100.556 70.0896 100.818 70.3496 101.142 70.3496H103.044C103.367 70.3496 103.629 70.0896 103.629 69.7688V54.3032C103.629 53.9824 103.367 53.7224 103.044 53.7224Z" fill="#F0F0F0"/>
<path d="M88.335 70.3448H98.5474V53.7176H88.335V70.3448Z" fill="#FAFAFA"/>
<path d="M99.6071 53.7224H97.705C97.3816 53.7224 97.1194 53.9824 97.1194 54.3032V69.7688C97.1194 70.0896 97.3816 70.3496 97.705 70.3496H99.6071C99.9306 70.3496 100.193 70.0896 100.193 69.7688V54.3032C100.193 53.9824 99.9306 53.7224 99.6071 53.7224Z" fill="#E6E6E6"/>
<path d="M85.7212 53.7224H94.53L93.833 70.3496H85.7212V53.7224Z" fill="#FAFAFA"/>
<path d="M95.6724 53.7224H93.6105C93.3298 53.7224 93.0927 54.0248 93.0781 54.3944L92.4441 69.6776C92.4441 70.0472 92.6474 70.3496 92.9281 70.3496H94.9851C95.2658 70.3496 95.503 70.0472 95.5223 69.6776L96.1661 54.3944C96.1661 54.0248 95.9531 53.7224 95.6724 53.7224Z" fill="#F0F0F0"/>
<path d="M72.5322 70.3496H79.6519V52.4792H72.5322V70.3496Z" fill="#FAFAFA"/>
<path d="M80.2956 52.4744H79.1679C78.8872 52.4744 78.6597 52.7001 78.6597 52.9784V69.8408C78.6597 70.1192 78.8872 70.3448 79.1679 70.3448H80.2956C80.5763 70.3448 80.8038 70.1192 80.8038 69.8408V52.9784C80.8038 52.7001 80.5763 52.4744 80.2956 52.4744Z" fill="#F0F0F0"/>
<path d="M66.6033 70.3496H74.449V50.6552H66.6033V70.3496Z" fill="#FAFAFA"/>
<path d="M75.1555 50.6504H73.9164C73.6063 50.6504 73.355 50.8997 73.355 51.2072V69.788C73.355 70.0955 73.6063 70.3448 73.9164 70.3448H75.1555C75.4655 70.3448 75.7169 70.0955 75.7169 69.788V51.2072C75.7169 50.8997 75.4655 50.6504 75.1555 50.6504Z" fill="#F5F5F5"/>
<path d="M64.5947 50.6504H71.3659L70.8286 70.3496H64.5947V50.6504Z" fill="#FAFAFA"/>
<path d="M72.2418 50.6504H70.664C70.451 50.6504 70.2622 51.0056 70.2526 51.4472L69.7686 69.5528C69.7686 69.9896 69.9186 70.3496 70.1364 70.3496H71.7191C71.932 70.3496 72.116 69.9896 72.1305 69.5528L72.6145 51.4472C72.6 51.0056 72.4548 50.6504 72.2418 50.6504Z" fill="#F0F0F0"/>
<path d="M78.5095 99.3416H91.9792V79.6472H78.5095V99.3416Z" fill="#FAFAFA"/>
<path d="M93.4169 79.6424H90.8324C90.4261 79.6424 90.0967 79.9691 90.0967 80.372V98.6072C90.0967 99.0101 90.4261 99.3368 90.8324 99.3368H93.4169C93.8232 99.3368 94.1526 99.0101 94.1526 98.6072V80.372C94.1526 79.9691 93.8232 79.6424 93.4169 79.6424Z" fill="#F0F0F0"/>
<path d="M73.9795 99.3416H87.4492V79.6472H73.9795V99.3416Z" fill="#FAFAFA"/>
<path d="M88.8818 79.6424H86.2972C85.8909 79.6424 85.5615 79.9691 85.5615 80.372V98.6072C85.5615 99.0101 85.8909 99.3368 86.2972 99.3368H88.8818C89.2881 99.3368 89.6174 99.0101 89.6174 98.6072V80.372C89.6174 79.9691 89.2881 79.6424 88.8818 79.6424Z" fill="#E6E6E6"/>
<path d="M70.5286 79.6424H82.1494L81.225 99.3416H70.5286V79.6424Z" fill="#FAFAFA"/>
<path d="M83.6545 79.6424H80.9393C80.7417 79.6618 80.5588 79.7548 80.4276 79.9027C80.2965 80.0506 80.2268 80.2423 80.2327 80.4392L79.376 98.5448C79.3625 98.6388 79.3683 98.7345 79.3932 98.8261C79.4181 98.9178 79.4615 99.0034 79.5208 99.078C79.5801 99.1525 79.654 99.2143 79.7381 99.2596C79.8222 99.3049 79.9147 99.3328 80.01 99.3416H82.7253C82.922 99.3201 83.1036 99.2264 83.2343 99.079C83.365 98.9316 83.4355 98.7411 83.4319 98.5448L84.2789 80.4392C84.2932 80.3459 84.2881 80.2506 84.2641 80.1593C84.2401 80.068 84.1976 79.9824 84.1392 79.9079C84.0808 79.8334 84.0077 79.7714 83.9244 79.7258C83.8411 79.6801 83.7493 79.6518 83.6545 79.6424Z" fill="#F0F0F0"/>
<path d="M99.157 99.3368H107.409V82.7096H99.157V99.3368Z" fill="#FAFAFA"/>
<path d="M108.213 82.7144H106.785C106.494 82.7144 106.257 82.9486 106.257 83.2376V98.8184C106.257 99.1074 106.494 99.3416 106.785 99.3416H108.213C108.504 99.3416 108.74 99.1074 108.74 98.8184V83.2376C108.74 82.9486 108.504 82.7144 108.213 82.7144Z" fill="#F0F0F0"/>
<path d="M96.3789 99.3368H104.631V82.7096H96.3789V99.3368Z" fill="#FAFAFA"/>
<path d="M105.435 82.7144H104.007C103.715 82.7144 103.479 82.9486 103.479 83.2376V98.8184C103.479 99.1074 103.715 99.3416 104.007 99.3416H105.435C105.726 99.3416 105.962 99.1074 105.962 98.8184V83.2376C105.962 82.9486 105.726 82.7144 105.435 82.7144Z" fill="#E6E6E6"/>
<path d="M94.2639 82.7144H101.388L100.822 99.3416H94.2639V82.7144Z" fill="#FAFAFA"/>
<path d="M102.308 82.7144H100.643C100.416 82.7144 100.222 83.0168 100.212 83.3864L99.7041 98.6696C99.7041 99.0392 99.8638 99.3416 100.091 99.3416H101.756C101.984 99.3416 102.177 99.0392 102.187 98.6696L102.71 83.3864C102.71 83.0168 102.536 82.7144 102.308 82.7144Z" fill="#F0F0F0"/>
<path d="M112.927 99.3416H119.761V85.5704H112.927V99.3416Z" fill="#FAFAFA"/>
<path d="M120.424 85.5656H119.238C118.998 85.5656 118.803 85.759 118.803 85.9976V98.9048C118.803 99.1434 118.998 99.3368 119.238 99.3368H120.424C120.665 99.3368 120.86 99.1434 120.86 98.9048V85.9976C120.86 85.759 120.665 85.5656 120.424 85.5656Z" fill="#F0F0F0"/>
<path d="M110.623 99.3416H117.457V85.5704H110.623V99.3416Z" fill="#FAFAFA"/>
<path d="M118.125 85.5656H116.939C116.699 85.5656 116.504 85.759 116.504 85.9976V98.9048C116.504 99.1434 116.699 99.3368 116.939 99.3368H118.125C118.366 99.3368 118.561 99.1434 118.561 98.9048V85.9976C118.561 85.759 118.366 85.5656 118.125 85.5656Z" fill="#E6E6E6"/>
<path d="M108.871 85.5656H114.771L114.301 99.3416H108.871V85.5656Z" fill="#FAFAFA"/>
<path d="M115.536 85.5656H114.156C113.968 85.5656 113.808 85.8152 113.798 86.1224L113.367 98.7848C113.367 99.092 113.498 99.3416 113.687 99.3416H115.066C115.25 99.3416 115.415 99.092 115.424 98.7848L115.855 86.1224C115.865 85.8152 115.72 85.5656 115.536 85.5656Z" fill="#F0F0F0"/>
<path d="M56.9185 99.3368H67.1309V82.7096H56.9185V99.3368Z" fill="#FAFAFA"/>
<path d="M68.1955 82.7144H66.2934C65.97 82.7144 65.7078 82.9744 65.7078 83.2952V98.7608C65.7078 99.0816 65.97 99.3416 66.2934 99.3416H68.1955C68.519 99.3416 68.7812 99.0816 68.7812 98.7608V83.2952C68.7812 82.9744 68.519 82.7144 68.1955 82.7144Z" fill="#F0F0F0"/>
<path d="M53.4868 99.3368H63.6992V82.7096H53.4868V99.3368Z" fill="#FAFAFA"/>
<path d="M64.7544 82.7144H62.8522C62.5288 82.7144 62.2666 82.9744 62.2666 83.2952V98.7608C62.2666 99.0816 62.5288 99.3416 62.8522 99.3416H64.7544C65.0778 99.3416 65.34 99.0816 65.34 98.7608V83.2952C65.34 82.9744 65.0778 82.7144 64.7544 82.7144Z" fill="#E6E6E6"/>
<path d="M50.8684 82.7144H59.682L58.9802 99.3416H50.8684V82.7144Z" fill="#FAFAFA"/>
<path d="M60.8194 82.7144H58.7624C58.6047 82.7403 58.4624 82.8234 58.363 82.9476C58.2637 83.0718 58.2146 83.2282 58.2251 83.3864L57.5959 98.6696C57.5959 99.0392 57.7944 99.3416 58.0799 99.3416H60.1369C60.2946 99.3157 60.437 99.2326 60.5363 99.1084C60.6356 98.9842 60.6847 98.8278 60.6742 98.6696L61.3179 83.3864C61.3179 83.0168 61.1001 82.7144 60.8194 82.7144Z" fill="#F0F0F0"/>
<path d="M42.6018 99.3416H49.7214V81.4712H42.6018V99.3416Z" fill="#FAFAFA"/>
<path d="M50.3603 81.4664H49.2326C48.9519 81.4664 48.7244 81.6921 48.7244 81.9704V98.8328C48.7244 99.1112 48.9519 99.3368 49.2326 99.3368H50.3603C50.641 99.3368 50.8685 99.1112 50.8685 98.8328V81.9704C50.8685 81.6921 50.641 81.4664 50.3603 81.4664Z" fill="#F0F0F0"/>
<path d="M36.6727 99.3416H44.5183V79.6472H36.6727V99.3416Z" fill="#FAFAFA"/>
<path d="M45.2202 79.6424H43.9811C43.671 79.6424 43.4197 79.8917 43.4197 80.1992V98.78C43.4197 99.0875 43.671 99.3368 43.9811 99.3368H45.2202C45.5302 99.3368 45.7816 99.0875 45.7816 98.78V80.1992C45.7816 79.8917 45.5302 79.6424 45.2202 79.6424Z" fill="#F5F5F5"/>
<path d="M34.6641 79.6424H41.4352L40.898 99.3416H34.6641V79.6424Z" fill="#FAFAFA"/>
<path d="M42.3113 79.6424H40.7287C40.5109 79.6424 40.3269 79.9976 40.3173 80.4392L39.8333 98.5448C39.8333 98.9816 39.9881 99.3416 40.2059 99.3416H41.7693C41.9871 99.3416 42.171 98.9816 42.1807 98.5448L42.6647 80.4392C42.6889 79.9976 42.5243 79.6424 42.3113 79.6424Z" fill="#F0F0F0"/>
<path d="M42.6502 128.334H56.1199V108.639H42.6502V128.334Z" fill="#FAFAFA"/>
<path d="M57.5524 108.634H54.9679C54.5616 108.634 54.2322 108.961 54.2322 109.364V127.599C54.2322 128.002 54.5616 128.329 54.9679 128.329H57.5524C57.9587 128.329 58.2881 128.002 58.2881 127.599V109.364C58.2881 108.961 57.9587 108.634 57.5524 108.634Z" fill="#F0F0F0"/>
<path d="M38.1101 128.334H51.5798V108.639H38.1101V128.334Z" fill="#FAFAFA"/>
<path d="M53.0221 108.634H50.4376C50.0313 108.634 49.7019 108.961 49.7019 109.364V127.599C49.7019 128.002 50.0313 128.329 50.4376 128.329H53.0221C53.4284 128.329 53.7578 128.002 53.7578 127.599V109.364C53.7578 108.961 53.4284 108.634 53.0221 108.634Z" fill="#E6E6E6"/>
<path d="M34.6641 108.634H46.2897L45.3653 128.334H34.6641V108.634Z" fill="#FAFAFA"/>
<path d="M47.7902 108.634H45.0749C44.8773 108.654 44.6944 108.747 44.5633 108.895C44.4321 109.043 44.3624 109.234 44.3683 109.431L43.5164 127.537C43.5036 127.631 43.51 127.726 43.5352 127.817C43.5603 127.909 43.6038 127.994 43.663 128.069C43.7221 128.143 43.7958 128.205 43.8796 128.25C43.9633 128.296 44.0555 128.324 44.1505 128.334H46.8657C47.0625 128.312 47.244 128.218 47.3748 128.071C47.5055 127.924 47.576 127.733 47.5724 127.537L48.4242 109.431C48.4377 109.337 48.4319 109.242 48.407 109.15C48.3821 109.058 48.3387 108.973 48.2794 108.898C48.2201 108.824 48.1461 108.762 48.0621 108.716C47.978 108.671 47.8855 108.643 47.7902 108.634Z" fill="#F0F0F0"/>
<path d="M104.941 128.329H115.153V111.702H104.941V128.329Z" fill="#FAFAFA"/>
<path d="M116.213 111.706H114.311C113.988 111.706 113.726 111.966 113.726 112.287V127.753C113.726 128.074 113.988 128.334 114.311 128.334H116.213C116.537 128.334 116.799 128.074 116.799 127.753V112.287C116.799 111.966 116.537 111.706 116.213 111.706Z" fill="#F0F0F0"/>
<path d="M101.5 128.329H111.712V111.702H101.5V128.329Z" fill="#FAFAFA"/>
<path d="M112.777 111.706H110.875C110.551 111.706 110.289 111.966 110.289 112.287V127.753C110.289 128.074 110.551 128.334 110.875 128.334H112.777C113.1 128.334 113.362 128.074 113.362 127.753V112.287C113.362 111.966 113.1 111.706 112.777 111.706Z" fill="#E6E6E6"/>
<path d="M98.886 111.706H107.7L106.998 128.334H98.886V111.706Z" fill="#FAFAFA"/>
<path d="M108.837 111.706H106.78C106.499 111.706 106.262 112.009 106.243 112.378L105.599 127.662C105.599 128.031 105.798 128.334 106.083 128.334H108.145C108.426 128.334 108.663 128.031 108.677 127.662L109.326 112.378C109.336 112.009 109.118 111.706 108.837 111.706Z" fill="#F0F0F0"/>
<path d="M91.7712 128.329H101.984V111.702H91.7712V128.329Z" fill="#FAFAFA"/>
<path d="M103.044 111.706H101.142C100.818 111.706 100.556 111.966 100.556 112.287V127.753C100.556 128.074 100.818 128.334 101.142 128.334H103.044C103.367 128.334 103.629 128.074 103.629 127.753V112.287C103.629 111.966 103.367 111.706 103.044 111.706Z" fill="#F0F0F0"/>
<path d="M88.335 128.329H98.5474V111.702H88.335V128.329Z" fill="#FAFAFA"/>
<path d="M99.6071 111.706H97.705C97.3816 111.706 97.1194 111.966 97.1194 112.287V127.753C97.1194 128.074 97.3816 128.334 97.705 128.334H99.6071C99.9306 128.334 100.193 128.074 100.193 127.753V112.287C100.193 111.966 99.9306 111.706 99.6071 111.706Z" fill="#E6E6E6"/>
<path d="M85.7212 111.706H94.53L93.833 128.334H85.7212V111.706Z" fill="#FAFAFA"/>
<path d="M95.6724 111.706H93.6105C93.3298 111.706 93.0927 112.009 93.0781 112.378L92.4441 127.662C92.4441 128.031 92.6474 128.334 92.9281 128.334H94.9851C95.2658 128.334 95.503 128.031 95.5223 127.662L96.1661 112.378C96.1661 112.009 95.9531 111.706 95.6724 111.706Z" fill="#F0F0F0"/>
<path d="M72.5322 128.334H79.6519V110.463H72.5322V128.334Z" fill="#FAFAFA"/>
<path d="M80.2956 110.458H79.1679C78.8872 110.458 78.6597 110.684 78.6597 110.962V127.825C78.6597 128.103 78.8872 128.329 79.1679 128.329H80.2956C80.5763 128.329 80.8038 128.103 80.8038 127.825V110.962C80.8038 110.684 80.5763 110.458 80.2956 110.458Z" fill="#F0F0F0"/>
<path d="M66.6033 128.334H74.449V108.639H66.6033V128.334Z" fill="#FAFAFA"/>
<path d="M75.1555 108.634H73.9164C73.6063 108.634 73.355 108.884 73.355 109.191V127.772C73.355 128.08 73.6063 128.329 73.9164 128.329H75.1555C75.4655 128.329 75.7169 128.08 75.7169 127.772V109.191C75.7169 108.884 75.4655 108.634 75.1555 108.634Z" fill="#F5F5F5"/>
<path d="M64.5947 108.634H71.3659L70.8286 128.334H64.5947V108.634Z" fill="#FAFAFA"/>
<path d="M72.2418 108.634H70.664C70.451 108.634 70.2622 108.99 70.2526 109.431L69.7686 127.537C69.7686 127.974 69.9186 128.334 70.1364 128.334H71.7191C71.932 128.334 72.116 127.974 72.1305 127.537L72.6145 109.431C72.6 108.98 72.4548 108.634 72.2418 108.634Z" fill="#F0F0F0"/>
<path d="M39.7751 184.052H48.4048V164.358H39.7751V184.052Z" fill="#FAFAFA"/>
<path d="M49.2131 164.353H47.7854C47.4619 164.353 47.1997 164.613 47.1997 164.934V183.466C47.1997 183.787 47.4619 184.047 47.7854 184.047H49.2131C49.5366 184.047 49.7988 183.787 49.7988 183.466V164.934C49.7988 164.613 49.5366 164.353 49.2131 164.353Z" fill="#F0F0F0"/>
<path d="M36.8759 184.052H45.5056V164.358H36.8759V184.052Z" fill="#FAFAFA"/>
<path d="M46.3091 164.353H44.8813C44.5579 164.353 44.2957 164.613 44.2957 164.934V183.466C44.2957 183.787 44.5579 184.047 44.8813 184.047H46.3091C46.6325 184.047 46.8947 183.787 46.8947 183.466V164.934C46.8947 164.613 46.6325 164.353 46.3091 164.353Z" fill="#E6E6E6"/>
<path d="M34.6641 164.358H42.108L41.5175 184.052H34.6641V164.358Z" fill="#FAFAFA"/>
<path d="M43.0761 164.353H41.3337C41.0966 164.353 40.8933 164.713 40.8788 165.15L40.3367 183.255C40.3367 183.697 40.5061 184.052 40.7432 184.052H42.4808C42.718 184.052 42.9212 183.697 42.9358 183.255L43.4778 165.14C43.4924 164.713 43.3084 164.353 43.0761 164.353Z" fill="#F0F0F0"/>
<path d="M111.978 184.052H120.976V167.425H111.978V184.052Z" fill="#FAFAFA"/>
<path d="M121.876 167.425H120.269C119.964 167.425 119.717 167.67 119.717 167.972V183.505C119.717 183.807 119.964 184.052 120.269 184.052H121.876C122.181 184.052 122.428 183.807 122.428 183.505V167.972C122.428 167.67 122.181 167.425 121.876 167.425Z" fill="#F0F0F0"/>
<path d="M108.948 184.052H117.946V167.425H108.948V184.052Z" fill="#FAFAFA"/>
<path d="M118.846 167.425H117.239C116.935 167.425 116.688 167.67 116.688 167.972V183.505C116.688 183.807 116.935 184.052 117.239 184.052H118.846C119.151 184.052 119.398 183.807 119.398 183.505V167.972C119.398 167.67 119.151 167.425 118.846 167.425Z" fill="#E6E6E6"/>
<path d="M106.645 167.425H114.408L113.788 184.052H106.645V167.425Z" fill="#FAFAFA"/>
<path d="M115.415 167.425H113.6C113.353 167.425 113.116 167.727 113.116 168.097L112.559 183.38C112.559 183.75 112.733 184.052 112.98 184.052H114.795C115.042 184.052 115.255 183.75 115.279 183.38L115.845 168.097C115.85 167.727 115.676 167.425 115.415 167.425Z" fill="#F0F0F0"/>
<path d="M100.372 184.052H109.369V167.425H100.372V184.052Z" fill="#FAFAFA"/>
<path d="M110.27 167.425H108.663C108.358 167.425 108.111 167.67 108.111 167.972V183.505C108.111 183.807 108.358 184.052 108.663 184.052H110.27C110.574 184.052 110.821 183.807 110.821 183.505V167.972C110.821 167.67 110.574 167.425 110.27 167.425Z" fill="#F0F0F0"/>
<path d="M97.342 184.052H106.34V167.425H97.342V184.052Z" fill="#FAFAFA"/>
<path d="M107.24 167.425H105.633C105.328 167.425 105.081 167.67 105.081 167.972V183.505C105.081 183.807 105.328 184.052 105.633 184.052H107.24C107.545 184.052 107.792 183.807 107.792 183.505V167.972C107.792 167.67 107.545 167.425 107.24 167.425Z" fill="#E6E6E6"/>
<path d="M95.0383 167.425H102.802L102.187 184.052H95.0383V167.425Z" fill="#FAFAFA"/>
<path d="M103.808 167.425H101.993C101.746 167.425 101.533 167.727 101.509 168.097L100.953 183.38C100.953 183.75 101.127 184.052 101.374 184.052H103.189C103.436 184.052 103.673 183.75 103.673 183.38L104.239 168.097C104.244 167.727 104.06 167.425 103.808 167.425Z" fill="#F0F0F0"/>
<path d="M91.1324 184.052H97.405V166.182H91.1324V184.052Z" fill="#FAFAFA"/>
<path d="M97.0082 166.182H97.9423C98.0707 166.182 98.1938 166.232 98.2845 166.322C98.3753 166.412 98.4263 166.534 98.4263 166.662V183.586C98.4263 183.714 98.3753 183.836 98.2845 183.926C98.1938 184.016 98.0707 184.066 97.9423 184.066H97.0082C96.8798 184.066 96.7567 184.016 96.6659 183.926C96.5752 183.836 96.5242 183.714 96.5242 183.586V166.652C96.5267 166.526 96.5788 166.407 96.6693 166.319C96.7598 166.231 96.8815 166.182 97.0082 166.182Z" fill="#F0F0F0"/>
<path d="M85.91 184.052H92.8215V164.358H85.91V184.052Z" fill="#FAFAFA"/>
<path d="M93.4072 164.353H92.3811C92.0897 164.353 91.8535 164.587 91.8535 164.876V183.524C91.8535 183.813 92.0897 184.047 92.3811 184.047H93.4072C93.6985 184.047 93.9347 183.813 93.9347 183.524V164.876C93.9347 164.587 93.6985 164.353 93.4072 164.353Z" fill="#F5F5F5"/>
<path d="M84.1387 164.358H90.1064L89.6321 184.052H84.1387V164.358Z" fill="#FAFAFA"/>
<path d="M90.8759 164.353H89.482C89.2932 164.353 89.1286 164.713 89.119 165.15L88.6833 183.255C88.6833 183.697 88.8189 184.052 89.0076 184.052H90.4016C90.5903 184.052 90.7549 183.697 90.7646 183.255L91.2001 165.15C91.2098 164.713 91.0646 164.353 90.8759 164.353Z" fill="#F0F0F0"/>
<path d="M78.5095 157.326H91.9792V137.631H78.5095V157.326Z" fill="#FAFAFA"/>
<path d="M93.4169 137.626H90.8324C90.4261 137.626 90.0967 137.953 90.0967 138.356V156.591C90.0967 156.994 90.4261 157.321 90.8324 157.321H93.4169C93.8232 157.321 94.1526 156.994 94.1526 156.591V138.356C94.1526 137.953 93.8232 137.626 93.4169 137.626Z" fill="#F0F0F0"/>
<path d="M73.9795 157.326H87.4492V137.631H73.9795V157.326Z" fill="#FAFAFA"/>
<path d="M88.8818 137.626H86.2972C85.8909 137.626 85.5615 137.953 85.5615 138.356V156.591C85.5615 156.994 85.8909 157.321 86.2972 157.321H88.8818C89.2881 157.321 89.6174 156.994 89.6174 156.591V138.356C89.6174 137.953 89.2881 137.626 88.8818 137.626Z" fill="#E6E6E6"/>
<path d="M70.5286 137.626H82.1494L81.225 157.326H70.5286V137.626Z" fill="#FAFAFA"/>
<path d="M83.6545 137.626H80.9393C80.7421 137.647 80.5599 137.74 80.429 137.888C80.298 138.035 80.2279 138.227 80.2327 138.423L79.376 156.529C79.3625 156.623 79.3683 156.718 79.3932 156.81C79.4181 156.902 79.4615 156.987 79.5208 157.062C79.5801 157.136 79.654 157.198 79.7381 157.244C79.8222 157.289 79.9147 157.317 80.01 157.326H82.7253C82.922 157.304 83.1036 157.21 83.2343 157.063C83.365 156.916 83.4355 156.725 83.4319 156.529L84.2789 138.423C84.2925 138.33 84.2869 138.235 84.2626 138.144C84.2383 138.053 84.1957 137.968 84.1375 137.893C84.0792 137.819 84.0064 137.757 83.9234 137.711C83.8404 137.665 83.749 137.636 83.6545 137.626Z" fill="#F0F0F0"/>
<path d="M99.157 157.321H107.409V140.694H99.157V157.321Z" fill="#FAFAFA"/>
<path d="M108.213 140.698H106.785C106.494 140.698 106.257 140.933 106.257 141.222V156.802C106.257 157.091 106.494 157.326 106.785 157.326H108.213C108.504 157.326 108.74 157.091 108.74 156.802V141.222C108.74 140.933 108.504 140.698 108.213 140.698Z" fill="#F0F0F0"/>
<path d="M96.3789 157.321H104.631V140.694H96.3789V157.321Z" fill="#FAFAFA"/>
<path d="M105.435 140.698H104.007C103.715 140.698 103.479 140.933 103.479 141.222V156.802C103.479 157.091 103.715 157.326 104.007 157.326H105.435C105.726 157.326 105.962 157.091 105.962 156.802V141.222C105.962 140.933 105.726 140.698 105.435 140.698Z" fill="#E6E6E6"/>
<path d="M94.2639 140.698H101.388L100.822 157.326H94.2639V140.698Z" fill="#FAFAFA"/>
<path d="M102.308 140.698H100.643C100.416 140.698 100.222 141.001 100.212 141.37L99.7041 156.654C99.7041 157.023 99.8638 157.326 100.091 157.326H101.756C101.984 157.326 102.177 157.023 102.187 156.654L102.71 141.37C102.71 141.001 102.536 140.698 102.308 140.698Z" fill="#F0F0F0"/>
<path d="M112.927 157.326H119.761V143.554H112.927V157.326Z" fill="#FAFAFA"/>
<path d="M120.424 143.55H119.238C118.998 143.55 118.803 143.743 118.803 143.982V156.889C118.803 157.127 118.998 157.321 119.238 157.321H120.424C120.665 157.321 120.86 157.127 120.86 156.889V143.982C120.86 143.743 120.665 143.55 120.424 143.55Z" fill="#F0F0F0"/>
<path d="M110.623 157.326H117.457V143.554H110.623V157.326Z" fill="#FAFAFA"/>
<path d="M118.125 143.55H116.939C116.699 143.55 116.504 143.743 116.504 143.982V156.889C116.504 157.127 116.699 157.321 116.939 157.321H118.125C118.366 157.321 118.561 157.127 118.561 156.889V143.982C118.561 143.743 118.366 143.55 118.125 143.55Z" fill="#E6E6E6"/>
<path d="M108.871 143.55H114.771L114.301 157.326H108.871V143.55Z" fill="#FAFAFA"/>
<path d="M115.536 143.54H114.156C113.968 143.54 113.808 143.79 113.798 144.097L113.367 156.759C113.367 157.066 113.498 157.316 113.687 157.316H115.066C115.25 157.316 115.415 157.066 115.424 156.759L115.855 144.097C115.865 143.799 115.72 143.54 115.536 143.54Z" fill="#F0F0F0"/>
<path d="M56.9185 157.321H67.1309V140.694H56.9185V157.321Z" fill="#FAFAFA"/>
<path d="M68.1955 140.698H66.2934C65.97 140.698 65.7078 140.958 65.7078 141.279V156.745C65.7078 157.066 65.97 157.326 66.2934 157.326H68.1955C68.519 157.326 68.7812 157.066 68.7812 156.745V141.279C68.7812 140.958 68.519 140.698 68.1955 140.698Z" fill="#F0F0F0"/>
<path d="M53.4868 157.321H63.6992V140.694H53.4868V157.321Z" fill="#FAFAFA"/>
<path d="M64.7544 140.698H62.8522C62.5288 140.698 62.2666 140.958 62.2666 141.279V156.745C62.2666 157.066 62.5288 157.326 62.8522 157.326H64.7544C65.0778 157.326 65.34 157.066 65.34 156.745V141.279C65.34 140.958 65.0778 140.698 64.7544 140.698Z" fill="#E6E6E6"/>
<path d="M50.8684 140.698H59.682L58.9802 157.326H50.8684V140.698Z" fill="#FAFAFA"/>
<path d="M60.8194 140.698H58.7624C58.6047 140.724 58.4624 140.807 58.363 140.932C58.2637 141.056 58.2146 141.212 58.2251 141.37L57.5959 156.654C57.5959 157.023 57.7944 157.326 58.0799 157.326H60.1369C60.2946 157.3 60.437 157.217 60.5363 157.092C60.6356 156.968 60.6847 156.812 60.6742 156.654L61.3179 141.37C61.3179 141.001 61.1001 140.698 60.8194 140.698Z" fill="#F0F0F0"/>
<path d="M42.6018 157.326H49.7214V139.455H42.6018V157.326Z" fill="#FAFAFA"/>
<path d="M50.3603 139.45H49.2326C48.9519 139.45 48.7244 139.676 48.7244 139.954V156.817C48.7244 157.095 48.9519 157.321 49.2326 157.321H50.3603C50.641 157.321 50.8685 157.095 50.8685 156.817V139.954C50.8685 139.676 50.641 139.45 50.3603 139.45Z" fill="#F0F0F0"/>
<path d="M36.6727 157.326H44.5183V137.631H36.6727V157.326Z" fill="#FAFAFA"/>
<path d="M45.2202 137.626H43.9811C43.671 137.626 43.4197 137.876 43.4197 138.183V156.764C43.4197 157.072 43.671 157.321 43.9811 157.321H45.2202C45.5302 157.321 45.7816 157.072 45.7816 156.764V138.183C45.7816 137.876 45.5302 137.626 45.2202 137.626Z" fill="#F5F5F5"/>
<path d="M34.6641 137.626H41.4352L40.898 157.326H34.6641V137.626Z" fill="#FAFAFA"/>
<path d="M42.3113 137.626H40.7287C40.5109 137.626 40.3269 137.986 40.3173 138.423L39.8333 156.529C39.8333 156.966 39.9881 157.326 40.2059 157.326H41.7693C41.9871 157.326 42.171 156.966 42.1807 156.529L42.6647 138.423C42.6889 137.986 42.5243 137.626 42.3113 137.626Z" fill="#F0F0F0"/>
<path d="M74.7006 184.052H84.6855V162.778H74.7006V184.052Z" fill="#FAFAFA"/>
<path d="M85.6389 162.778H83.9497C83.5862 162.778 83.2915 163.071 83.2915 163.431V183.399C83.2915 183.76 83.5862 184.052 83.9497 184.052H85.6389C86.0024 184.052 86.2971 183.76 86.2971 183.399V163.431C86.2971 163.071 86.0024 162.778 85.6389 162.778Z" fill="#F0F0F0"/>
<path d="M71.3415 184.052H81.3264V162.778H71.3415V184.052Z" fill="#FAFAFA"/>
<path d="M82.2751 162.778H80.586C80.2224 162.778 79.9277 163.071 79.9277 163.431V183.399C79.9277 183.76 80.2224 184.052 80.586 184.052H82.2751C82.6387 184.052 82.9334 183.76 82.9334 183.399V163.431C82.9334 163.071 82.6387 162.778 82.2751 162.778Z" fill="#E6E6E6"/>
<path d="M68.7812 162.778H77.3965L76.714 184.052H68.7812V162.778Z" fill="#FAFAFA"/>
<path d="M78.5144 162.778H76.501C76.2251 162.778 75.988 163.162 75.9734 163.638L75.3442 183.193C75.3442 183.673 75.5378 184.052 75.8282 184.052H77.8417C78.1176 184.052 78.3257 183.668 78.3644 183.193L78.9936 163.638C78.9984 163.162 78.7855 162.778 78.5144 162.778Z" fill="#F0F0F0"/>
<path d="M59.8127 184.052H68.4424V165.534H59.8127V184.052Z" fill="#FAFAFA"/>
<path d="M69.2653 165.534H67.8084C67.493 165.534 67.2373 165.787 67.2373 166.1V183.486C67.2373 183.798 67.493 184.052 67.8084 184.052H69.2653C69.5807 184.052 69.8364 183.798 69.8364 183.486V166.1C69.8364 165.787 69.5807 165.534 69.2653 165.534Z" fill="#F0F0F0"/>
<path d="M56.9086 184.052H65.5383V165.534H56.9086V184.052Z" fill="#FAFAFA"/>
<path d="M66.3612 165.534H64.9044C64.589 165.534 64.3333 165.787 64.3333 166.1V183.486C64.3333 183.798 64.589 184.052 64.9044 184.052H66.3612C66.6766 184.052 66.9323 183.798 66.9323 183.486V166.1C66.9323 165.787 66.6766 165.534 66.3612 165.534Z" fill="#E6E6E6"/>
<path d="M54.7017 165.534H62.1456L61.5551 184.052H54.7017V165.534Z" fill="#FAFAFA"/>
<path d="M63.1089 165.534H61.3713C61.1342 165.534 60.9309 165.87 60.9163 166.282L60.3743 183.303C60.3743 183.716 60.5388 184.052 60.776 184.052H62.5184C62.7555 184.052 62.9588 183.716 62.9685 183.303L63.5154 166.282C63.5299 165.87 63.346 165.534 63.1089 165.534Z" fill="#F0F0F0"/>
<path d="M121 205.729C172.828 205.729 214.843 203.296 214.843 200.295C214.843 197.294 172.828 194.862 121 194.862C69.1721 194.862 27.1572 197.294 27.1572 200.295C27.1572 203.296 69.1721 205.729 121 205.729Z" fill="#F5F5F5"/>
<path d="M111.383 199.038C111.432 199.186 111.444 199.343 111.417 199.497C111.391 199.65 111.328 199.795 111.232 199.919C111.137 200.043 111.013 200.142 110.87 200.207C110.728 200.273 110.572 200.303 110.415 200.295H42.9936C40.8882 200.295 40.8882 186.697 42.9936 186.697H110.434C110.59 186.689 110.746 186.72 110.888 186.785C111.03 186.85 111.154 186.949 111.249 187.072C111.344 187.195 111.408 187.339 111.434 187.492C111.461 187.645 111.45 187.802 111.402 187.95C110.56 190.542 110.56 196.45 111.383 199.038Z" fill="#157145"/>
<path opacity="0.8" d="M111.286 188.286H70.3736C68.7619 188.286 68.7619 198.706 70.3736 198.706H111.286C110.594 196.09 110.594 190.897 111.286 188.286Z" fill="white"/>
<path opacity="0.2" d="M68.3358 199.038C68.3847 199.186 68.3965 199.343 68.3703 199.497C68.3441 199.65 68.2806 199.795 68.1854 199.919C68.0901 200.043 67.9659 200.142 67.8235 200.207C67.681 200.273 67.5247 200.303 67.3678 200.295H42.9936C40.8882 200.295 40.8882 186.697 42.9936 186.697H67.3872C67.5435 186.689 67.6992 186.72 67.8411 186.785C67.983 186.85 68.1069 186.949 68.202 187.072C68.2972 187.195 68.3608 187.339 68.3875 187.492C68.4142 187.645 68.4031 187.802 68.3552 187.95C67.513 190.542 67.513 196.45 68.3358 199.038Z" fill="black"/>
<path d="M53.3899 186.697H47.819C45.7136 186.697 45.7136 200.295 47.819 200.295H53.3899C51.3038 200.295 51.3038 186.697 53.3899 186.697Z" fill="#157145"/>
<path d="M57.7799 186.697H55.5922C53.4868 186.697 53.4868 200.295 55.5922 200.295H57.7799C55.66 200.295 55.66 186.697 57.7799 186.697Z" fill="#157145"/>
<path d="M39.0636 185.569C38.8312 186.126 39.4024 186.697 40.1768 186.697H100.812C103.286 186.697 103.286 174.471 100.812 174.471H40.1719C39.3975 174.471 38.8264 175.038 39.0587 175.599C40.0267 177.927 40.0267 183.241 39.0636 185.569Z" fill="#263238"/>
<path opacity="0.2" d="M39.0636 185.569C38.8312 186.126 39.4024 186.697 40.1768 186.697H69.9089C72.3821 186.697 72.3821 174.471 69.9089 174.471H40.1719C39.3975 174.471 38.8264 175.038 39.0587 175.599C40.0267 177.927 40.0267 183.241 39.0636 185.569Z" fill="black"/>
<path opacity="0.8" d="M39.1699 175.897H68.6939C70.5864 175.897 70.5864 185.266 68.6939 185.266H39.1699C39.983 182.9 39.983 178.249 39.1699 175.897Z" fill="white"/>
<path opacity="0.2" d="M78.5 177.198C78.316 176.655 78.8484 176.127 79.5841 176.127H96.558C98.3585 176.127 98.3585 185.036 96.558 185.036H79.5841C78.8484 185.036 78.316 184.513 78.5 183.97C79.0808 181.75 79.0808 179.418 78.5 177.198Z" fill="white"/>
<path d="M201.213 180.111C201.267 180.274 201.282 180.446 201.258 180.615C201.234 180.784 201.171 180.946 201.074 181.087C200.978 181.228 200.85 181.346 200.7 181.43C200.55 181.515 200.383 181.565 200.211 181.575H128.966C126.74 181.575 126.74 165.735 128.966 165.735H200.211C200.38 165.747 200.545 165.796 200.692 165.879C200.839 165.962 200.966 166.077 201.062 166.216C201.158 166.354 201.222 166.512 201.248 166.678C201.274 166.844 201.262 167.014 201.213 167.175C200.347 170.223 200.347 177.102 201.213 180.111Z" fill="#157145"/>
<path opacity="0.5" d="M201.213 180.111C201.267 180.274 201.282 180.446 201.258 180.615C201.234 180.784 201.171 180.946 201.074 181.087C200.978 181.228 200.85 181.346 200.7 181.43C200.55 181.515 200.383 181.565 200.211 181.575H128.966C126.74 181.575 126.74 165.735 128.966 165.735H200.211C200.38 165.747 200.545 165.796 200.692 165.879C200.839 165.962 200.966 166.077 201.062 166.216C201.158 166.354 201.222 166.512 201.248 166.678C201.274 166.844 201.262 167.014 201.213 167.175C200.347 170.223 200.347 177.102 201.213 180.111Z" fill="white"/>
<path opacity="0.8" d="M201.116 167.598H157.89C156.187 167.598 156.187 179.722 157.89 179.722H201.116C200.376 176.684 200.376 170.641 201.116 167.598Z" fill="white"/>
<path opacity="0.6" d="M155.736 180.111C155.79 180.274 155.805 180.446 155.781 180.615C155.757 180.784 155.694 180.946 155.598 181.087C155.501 181.228 155.373 181.346 155.223 181.43C155.074 181.515 154.907 181.565 154.735 181.575H128.966C126.74 181.575 126.74 165.735 128.966 165.735H154.735C154.904 165.747 155.068 165.796 155.215 165.879C155.363 165.962 155.489 166.077 155.585 166.216C155.682 166.354 155.745 166.512 155.771 166.678C155.798 166.844 155.786 167.014 155.736 167.175C154.88 170.223 154.88 177.102 155.736 180.111Z" fill="#157145"/>
<path opacity="0.5" d="M145.282 166.921C145.333 166.797 145.353 166.663 145.342 166.529C145.331 166.396 145.288 166.267 145.217 166.153C145.147 166.04 145.05 165.944 144.935 165.874C144.82 165.803 144.691 165.761 144.556 165.75H134.731C132.505 165.75 132.505 181.59 134.731 181.59H144.556C144.691 181.578 144.821 181.534 144.935 181.464C145.05 181.393 145.147 181.297 145.217 181.183C145.288 181.068 145.33 180.939 145.342 180.806C145.353 180.672 145.333 180.538 145.282 180.414C144.29 177.471 144.29 169.854 145.282 166.921Z" fill="white"/>
<path d="M196.102 198.553C196.16 198.763 196.166 198.984 196.12 199.198C196.074 199.411 195.977 199.61 195.838 199.779C195.699 199.948 195.521 200.082 195.32 200.169C195.118 200.256 194.899 200.294 194.679 200.281H120.656C117.496 200.281 117.491 181.561 120.656 181.561H194.708C194.928 181.547 195.147 181.586 195.349 181.673C195.55 181.76 195.728 181.894 195.867 182.063C196.006 182.231 196.103 182.431 196.149 182.644C196.195 182.857 196.189 183.078 196.131 183.289C194.868 186.855 194.873 194.991 196.102 198.553Z" fill="#157145"/>
<path opacity="0.2" d="M196.102 198.553C196.16 198.763 196.166 198.984 196.12 199.198C196.074 199.411 195.977 199.61 195.838 199.779C195.699 199.948 195.521 200.082 195.32 200.169C195.118 200.256 194.899 200.294 194.679 200.281H120.656C117.496 200.281 117.491 181.561 120.656 181.561H194.708C194.928 181.547 195.147 181.586 195.349 181.673C195.55 181.76 195.728 181.894 195.867 182.063C196.006 182.231 196.103 182.431 196.149 182.644C196.195 182.857 196.189 183.078 196.131 183.289C194.868 186.855 194.873 194.991 196.102 198.553Z" fill="white"/>
<path opacity="0.8" d="M195.957 183.75H151.201C148.781 183.75 148.781 198.092 151.201 198.092H195.962C194.926 194.497 194.926 187.35 195.957 183.75Z" fill="white"/>
<path opacity="0.6" d="M148.143 198.562C148.201 198.773 148.208 198.994 148.163 199.207C148.117 199.42 148.021 199.62 147.883 199.789C147.744 199.958 147.566 200.092 147.365 200.179C147.164 200.266 146.944 200.304 146.725 200.29H120.656C117.496 200.29 117.491 181.57 120.656 181.57H146.725C146.944 181.557 147.164 181.595 147.365 181.682C147.567 181.77 147.744 181.903 147.883 182.072C148.022 182.241 148.119 182.44 148.165 182.654C148.211 182.867 148.205 183.088 148.148 183.298C146.913 186.865 146.913 194.996 148.143 198.562Z" fill="#157145"/>
<path opacity="0.5" d="M132.529 182.223C132.569 182.155 132.59 182.076 132.588 181.997C132.587 181.918 132.563 181.84 132.52 181.773C132.477 181.706 132.416 181.652 132.344 181.617C132.272 181.583 132.192 181.568 132.112 181.575H127.684C124.528 181.575 124.528 200.295 127.684 200.295H132.132C132.212 200.302 132.292 200.288 132.364 200.253C132.436 200.218 132.496 200.164 132.539 200.097C132.582 200.03 132.606 199.953 132.607 199.873C132.609 199.794 132.588 199.716 132.548 199.647C130.627 196.753 130.627 185.113 132.529 182.223Z" fill="white"/>
<path opacity="0.5" d="M139.44 182.223C139.48 182.154 139.5 182.076 139.499 181.996C139.497 181.917 139.473 181.84 139.431 181.772C139.388 181.705 139.327 181.651 139.256 181.615C139.184 181.58 139.104 181.564 139.024 181.57H134.596C131.44 181.57 131.44 200.29 134.596 200.29H139.024C139.103 200.297 139.183 200.281 139.254 200.246C139.325 200.211 139.385 200.157 139.428 200.09C139.47 200.023 139.493 199.946 139.495 199.867C139.496 199.788 139.476 199.711 139.436 199.642C137.538 196.753 137.538 185.108 139.44 182.223Z" fill="white"/>
<path d="M195.376 155.79C195.29 154.456 194.975 153.148 194.442 151.921L194.878 151.71C195.431 152.989 195.758 154.353 195.846 155.742L195.376 155.79Z" fill="#157145"/>
<path d="M192.341 149.842H180.319V150.322H192.341V149.842Z" fill="#157145"/>
<path d="M113.987 164.439C113.74 165.092 114.345 165.75 115.163 165.75H192.341C194.95 165.75 194.95 151.522 192.341 151.522H115.163C114.345 151.522 113.74 152.185 113.987 152.838C115.003 155.54 115.003 161.727 113.987 164.439Z" fill="#157145"/>
<path opacity="0.2" d="M113.987 164.439C113.74 165.092 114.345 165.75 115.163 165.75H159.691C162.304 165.75 162.304 151.522 159.691 151.522H115.163C114.345 151.522 113.74 152.185 113.987 152.838C115.003 155.54 115.003 161.727 113.987 164.439Z" fill="black"/>
<path opacity="0.8" d="M114.103 153.188H158.399C160.402 153.188 160.402 164.089 158.399 164.089H114.103C114.96 161.353 114.96 155.924 114.103 153.188Z" fill="white"/>
<path opacity="0.2" d="M168.766 154.695C168.572 154.066 169.134 153.457 169.908 153.457H187.845C189.747 153.457 189.747 163.82 187.845 163.82H169.908C169.134 163.82 168.572 163.21 168.766 162.577C169.4 160.585 169.4 156.692 168.766 154.695Z" fill="white"/>
<path d="M106.77 47.54C104.588 49.8584 99.2587 47.54 98.4456 53.924C97.5647 60.8072 100.904 64.1144 96.5919 65.924C89.8159 68.732 84.9759 79.9544 94.3848 84.164C103.794 88.3736 123.831 83.9624 121.576 75.3848C119.321 66.8072 119.766 62.204 122.428 58.1624C125.937 52.82 125.187 45.956 122.326 43.4696C117.873 39.5816 111.722 42.26 106.77 47.54Z" fill="#263238"/>
<path d="M118.415 75.1544C118.378 75.1558 118.342 75.1432 118.315 75.1191C118.287 75.095 118.269 75.0613 118.265 75.0248C118.262 75.0055 118.263 74.9857 118.267 74.9667C118.272 74.9476 118.28 74.9297 118.292 74.9139C118.304 74.8982 118.318 74.885 118.336 74.8752C118.353 74.8654 118.372 74.8591 118.391 74.8568C120.259 74.6024 121.373 74.1464 121.895 73.4168C122.544 72.5096 122.263 71.1608 121.895 69.452C121.324 66.6728 120.535 62.8664 123.052 58.0568C126.106 52.2248 124.988 45.8312 122.128 43.7384C122.096 43.7153 122.074 43.6807 122.068 43.6421C122.062 43.6035 122.071 43.5639 122.094 43.532C122.118 43.5001 122.154 43.4787 122.193 43.4724C122.233 43.4661 122.274 43.4755 122.307 43.4984C125.288 45.6632 126.44 52.2296 123.318 58.196C120.855 62.9096 121.629 66.6584 122.191 69.3944C122.558 71.1704 122.849 72.5768 122.123 73.5896C121.552 74.3912 120.376 74.8856 118.42 75.1544H118.415Z" fill="#263238"/>
<path d="M94.0122 66.8408C93.7064 66.8395 93.4009 66.8203 93.0974 66.7832C93.0776 66.7808 93.0585 66.7746 93.0412 66.7648C93.0239 66.7551 93.0087 66.742 92.9966 66.7264C92.9844 66.7107 92.9755 66.6928 92.9704 66.6738C92.9653 66.6547 92.964 66.6348 92.9667 66.6152C92.9691 66.5956 92.9754 66.5767 92.9853 66.5595C92.9951 66.5423 93.0083 66.5273 93.024 66.5152C93.0398 66.5031 93.0578 66.4943 93.0771 66.4892C93.0963 66.4841 93.1164 66.4829 93.1361 66.4856C94.5107 66.6536 95.5077 66.452 96.1805 65.8664C97.4389 64.7672 97.4583 62.468 97.4728 59.804C97.4728 56.7896 97.5163 53.3768 99.4862 51.0488C99.4989 51.0337 99.5145 51.0212 99.5321 51.012C99.5497 51.0029 99.5689 50.9972 99.5887 50.9955C99.6085 50.9937 99.6284 50.9958 99.6474 51.0016C99.6663 51.0075 99.6839 51.017 99.6992 51.0296C99.7144 51.0422 99.727 51.0577 99.7363 51.0751C99.7455 51.0926 99.7512 51.1116 99.753 51.1312C99.7548 51.1508 99.7526 51.1706 99.7467 51.1894C99.7408 51.2082 99.7312 51.2257 99.7185 51.2408C97.8164 53.4872 97.7825 56.8424 97.7825 59.8088C97.7825 62.54 97.7486 64.9016 96.3886 66.092C95.718 66.6262 94.8707 66.8932 94.0122 66.8408Z" fill="#263238"/>
<path d="M141.517 151.513C138.289 151.474 137.02 151.273 135.535 151.297C134.049 151.321 133.695 151.58 132.147 151.513C131.101 151.47 131.096 150.236 131.498 149.391C131.813 148.729 132.2 148.062 132.558 147.236L136.653 147.534C137.204 149.079 139.944 149.742 142.344 150.289C143.298 150.514 142.809 151.527 141.517 151.513Z" fill="#157145"/>
<path d="M120.168 92.5448C120.168 92.5448 130.999 101.785 141.948 111.586C146.575 115.738 136.87 147.394 136.87 147.394C136.667 148.071 133.056 147.106 132.514 146.574C132.514 146.574 131.963 122.002 134.31 117.054C110.033 110.967 106.238 99.1448 106.238 99.1448L107.98 91.8104L120.168 92.5448Z" fill="#263238"/>
<path opacity="0.2" d="M107.84 102.058C109.199 103.942 110.809 105.634 112.627 107.089C115.047 104.281 114.369 99.7448 114.369 99.7448L107.84 102.058Z" fill="black"/>
<path d="M137.713 146.026C137.645 146.506 137.529 147.356 137.466 147.985C137.456 148.087 137.407 148.181 137.33 148.249C137.253 148.316 137.153 148.352 137.049 148.35C135.43 148.224 133.825 147.947 132.258 147.524C132.182 147.503 132.116 147.459 132.068 147.397C132.02 147.336 131.993 147.261 131.992 147.183L131.958 145.431C131.958 145.374 131.969 145.318 131.992 145.266C132.015 145.213 132.049 145.167 132.092 145.128C132.134 145.09 132.184 145.061 132.239 145.043C132.293 145.024 132.351 145.018 132.408 145.023L137.403 145.623C137.45 145.628 137.496 145.643 137.538 145.667C137.579 145.69 137.616 145.721 137.645 145.759C137.674 145.797 137.695 145.84 137.706 145.886C137.718 145.932 137.72 145.98 137.713 146.026Z" fill="#263238"/>
<path opacity="0.3" d="M137.713 146.026C137.645 146.506 137.529 147.356 137.466 147.985C137.456 148.087 137.407 148.181 137.33 148.249C137.253 148.316 137.153 148.352 137.049 148.35C135.43 148.224 133.825 147.947 132.258 147.524C132.182 147.503 132.116 147.459 132.068 147.397C132.02 147.336 131.993 147.261 131.992 147.183L131.958 145.431C131.958 145.374 131.969 145.318 131.992 145.266C132.015 145.213 132.049 145.167 132.092 145.128C132.134 145.09 132.184 145.061 132.239 145.043C132.293 145.024 132.351 145.018 132.408 145.023L137.403 145.623C137.45 145.628 137.496 145.643 137.538 145.667C137.579 145.69 137.616 145.721 137.645 145.759C137.674 145.797 137.695 145.84 137.706 145.886C137.718 145.932 137.72 145.98 137.713 146.026Z" fill="white"/>
<path d="M94.1235 174.471C90.8419 174.471 89.7675 173.247 87.9331 172.911C86.3843 172.623 85.9729 172.758 84.7242 172.542C83.6787 172.359 83.5965 171.649 84.2402 170.598C84.6601 169.871 85.0164 169.11 85.305 168.322L90.2805 168.649C90.7984 169.969 91.9939 172.652 93.8185 172.969C95.5367 173.3 95.4303 174.471 94.1235 174.471Z" fill="#157145"/>
<path d="M119.417 92.516C119.417 92.516 107.971 112.7 103.363 125.185C98.523 138.298 90.8177 159.745 90.2611 168.649C89.4383 169.038 86.7376 168.889 85.2856 168.322C85.2856 168.322 83.9401 137.602 93.2571 125.295C95.4786 98.9384 99.1667 94.724 103.087 91.5128L119.417 92.516Z" fill="#263238"/>
<path d="M90.8614 166.83C90.802 167.437 90.7858 168.048 90.813 168.658C90.8196 168.765 90.7837 168.869 90.713 168.949C90.6422 169.029 90.5425 169.078 90.4355 169.086C88.5817 169.254 85.9972 168.663 85.1792 168.462C85.1032 168.443 85.0355 168.4 84.9866 168.339C84.9376 168.278 84.9101 168.203 84.9082 168.126L84.8453 166.407C84.8444 166.351 84.8555 166.295 84.8776 166.243C84.8998 166.191 84.9326 166.144 84.974 166.105C85.0154 166.066 85.0645 166.036 85.1182 166.017C85.1718 165.998 85.2289 165.99 85.2857 165.994L90.5323 166.441C90.5798 166.444 90.6261 166.457 90.6685 166.479C90.7109 166.501 90.7486 166.53 90.7792 166.567C90.8099 166.603 90.8329 166.645 90.847 166.69C90.8612 166.735 90.866 166.783 90.8614 166.83Z" fill="#263238"/>
<path opacity="0.3" d="M90.8614 166.83C90.802 167.437 90.7858 168.048 90.813 168.658C90.8196 168.765 90.7837 168.869 90.713 168.949C90.6422 169.029 90.5425 169.078 90.4355 169.086C88.5817 169.254 85.9972 168.663 85.1792 168.462C85.1032 168.443 85.0355 168.4 84.9866 168.339C84.9376 168.278 84.9101 168.203 84.9082 168.126L84.8453 166.407C84.8444 166.351 84.8555 166.295 84.8776 166.243C84.8998 166.191 84.9326 166.144 84.974 166.105C85.0154 166.066 85.0645 166.036 85.1182 166.017C85.1718 165.998 85.2289 165.99 85.2857 165.994L90.5323 166.441C90.5798 166.444 90.6261 166.457 90.6685 166.479C90.7109 166.501 90.7486 166.53 90.7792 166.567C90.8099 166.603 90.8329 166.645 90.847 166.69C90.8612 166.735 90.866 166.783 90.8614 166.83Z" fill="white"/>
<path d="M122.452 72.716C122.936 73.6232 123.459 74.636 123.991 75.596C124.524 76.556 125.061 77.516 125.603 78.452C126.697 80.3384 127.839 82.1864 129.063 83.9288L128.405 83.348C128.891 83.6866 129.426 83.9489 129.993 84.1256C130.678 84.3535 131.38 84.5268 132.093 84.644C132.839 84.7784 133.613 84.8696 134.402 84.9416C135.191 85.0136 136.019 85.0568 136.774 85.1048H136.875C137.19 85.1227 137.488 85.2486 137.719 85.4609C137.95 85.6732 138.099 85.9586 138.141 86.2682C138.183 86.5777 138.114 86.892 137.948 87.1571C137.781 87.4222 137.527 87.6215 137.229 87.7208C136.364 88.0062 135.479 88.2276 134.581 88.3832C133.679 88.5423 132.767 88.6401 131.851 88.676C130.88 88.713 129.907 88.6551 128.947 88.5032C127.864 88.3413 126.816 87.9971 125.85 87.4856C125.649 87.3767 125.47 87.2319 125.322 87.0584L125.191 86.9048C124.422 85.9928 123.672 85.0616 122.984 84.1064C122.297 83.1512 121.624 82.1864 121 81.2264C120.376 80.2664 119.771 79.244 119.2 78.2312C118.628 77.2184 118.086 76.2152 117.568 75.1064C117.297 74.4763 117.278 73.7671 117.515 73.1236C117.753 72.4801 118.23 71.9511 118.848 71.6446C119.466 71.3381 120.179 71.2773 120.841 71.4747C121.503 71.672 122.063 72.1126 122.408 72.7064L122.452 72.716Z" fill="#FFB573"/>
<path d="M119.78 68.8424C122.941 69.8744 123.454 71.2808 125.187 76.4744C124.035 79.5896 119.379 81.1688 119.379 81.1688C119.379 81.1688 113.88 72.2888 119.78 68.8424Z" fill="#157145"/>
<path d="M124.107 75.6008C123.928 77.3192 123.483 79.3688 122.549 83.396C121.823 86.8136 121.813 93.476 120.651 93.8264C118.42 94.9208 112.835 94.4984 103.087 91.5128C103.397 86.5208 103.982 83.132 102.308 71.6792C102.202 71.0788 102.233 70.4626 102.398 69.8756C102.563 69.2885 102.858 68.7453 103.262 68.2855C103.665 67.8257 104.167 67.4609 104.73 67.2177C105.293 66.9744 105.904 66.8588 106.519 66.8792C107.225 66.8792 107.971 66.9368 108.731 67.004C111.411 67.1639 114.077 67.5152 116.707 68.0552C117.564 68.2472 118.449 68.4728 119.291 68.7032C120.775 69.1233 122.065 70.0403 122.943 71.2979C123.821 72.5556 124.233 74.0762 124.107 75.6008Z" fill="#157145"/>
<path d="M89.9853 95.4536L90.9533 94.5752C91.1335 94.4119 91.2715 94.2081 91.3557 93.9809C91.4399 93.7537 91.4679 93.5098 91.4373 93.2696L91.1711 90.98C91.1202 90.53 90.962 90.0985 90.7095 89.7212C90.457 89.3439 90.1175 89.0317 89.7191 88.8104L89.2351 88.5368C87.5072 89.8856 86.6409 92.6024 86.6409 92.6024L86.3069 93.3512C86.2335 93.5026 86.1912 93.6669 86.1824 93.8347C86.1736 94.0024 86.1985 94.1703 86.2557 94.3284C86.3129 94.4865 86.4012 94.6317 86.5156 94.7557C86.6299 94.8797 86.7679 94.9798 86.9216 95.0504L88.4075 95.7224C88.6687 95.8328 88.9565 95.8662 89.2363 95.8186C89.5162 95.7709 89.7763 95.6442 89.9853 95.4536Z" fill="#FFB573"/>
<path d="M140.791 83.924L139.552 83.444C139.322 83.3581 139.076 83.328 138.832 83.3564C138.589 83.3848 138.356 83.4708 138.153 83.6072L136.217 84.8936C135.837 85.1471 135.524 85.4873 135.304 85.8858C135.084 86.2842 134.964 86.7291 134.954 87.1832V87.7544C136.953 88.6568 139.794 88.1672 139.794 88.1672L140.616 88.1192C140.786 88.1136 140.952 88.0749 141.106 88.0051C141.26 87.9354 141.399 87.8361 141.514 87.7129C141.63 87.5897 141.719 87.4451 141.778 87.2875C141.836 87.1298 141.863 86.9623 141.855 86.7944L141.778 85.1768C141.756 84.8949 141.65 84.6258 141.475 84.403C141.299 84.1802 141.061 84.0136 140.791 83.924Z" fill="#FFB573"/>
<path d="M105.193 73.2248L104.573 73.508L103.895 73.8152C103.445 74.0312 103 74.2568 102.555 74.4872C101.659 74.9672 100.788 75.4472 99.9315 75.9512C99.0748 76.4552 98.2472 77.0168 97.4437 77.588C96.6403 78.1592 95.8949 78.7832 95.1689 79.4216L95.4884 79.0184C95.2524 79.3627 95.0452 79.7255 94.8688 80.1032C94.6559 80.54 94.4574 81.0152 94.2638 81.5C93.8766 82.46 93.4991 83.4872 93.1507 84.5192C92.8022 85.5512 92.4488 86.5976 92.1052 87.644L91.0598 90.7976C90.9584 91.1074 90.7471 91.3701 90.4651 91.537C90.1831 91.7038 89.8496 91.7635 89.5266 91.7048C89.2036 91.6461 88.913 91.4731 88.709 91.218C88.5049 90.9628 88.4012 90.6429 88.4171 90.3176C88.4704 89.1608 88.5768 88.0376 88.7075 86.9048C88.8382 85.772 89.0028 84.644 89.1915 83.5112C89.3803 82.3784 89.6271 81.2408 89.9417 80.0888C90.0966 79.5128 90.266 78.9368 90.479 78.332C90.7039 77.6663 90.9924 77.0234 91.3405 76.412C91.4015 76.3118 91.4712 76.2171 91.5486 76.1288L91.6648 76.0088C92.462 75.1371 93.3157 74.3177 94.2203 73.556C95.1118 72.8046 96.0458 72.1042 97.0178 71.4584C97.977 70.8136 98.9706 70.2207 99.9944 69.6824C100.507 69.4136 101.025 69.1592 101.553 68.9096C101.819 68.7896 102.08 68.6648 102.356 68.5496C102.632 68.4344 102.884 68.3336 103.228 68.204C103.887 67.9427 104.623 67.9487 105.278 68.2208C105.932 68.4929 106.453 69.0093 106.727 69.6585C107.002 70.3078 107.008 71.038 106.744 71.6917C106.481 72.3453 105.968 72.8701 105.318 73.1528L105.193 73.2248Z" fill="#FFB573"/>
<path d="M109.868 68.1272C107.496 66.4424 106.054 66.26 100.314 68.732C99.6314 72.3128 101.868 77.5688 101.868 77.5688C101.868 77.5688 109.505 73.6232 109.868 68.1272Z" fill="#157145"/>
<path d="M110.487 58.1528C110.841 60.788 111.068 65.564 109.171 67.0424C109.171 67.0424 111.649 66.9992 116.387 70.844C118.164 68.924 117.147 68.0936 117.147 68.0936C114.325 67.0328 114.524 64.916 115.139 62.9816L110.487 58.1528Z" fill="#FFB573"/>
<path d="M115.386 70.0664C113.658 70.0664 112.782 72.5576 112.782 72.5576C112.782 72.5576 108.629 69.2744 108.063 66.9656C108.614 66.7451 109.154 66.4968 109.679 66.2216C109.679 66.2216 114.524 68.9624 115.386 70.0664Z" fill="white"/>
<path d="M117.041 70.004C117.041 70.004 118.348 70.484 118.779 72.404C119.664 68.7464 117.936 68.1704 117.936 68.1704C117.503 67.8484 116.965 67.6979 116.426 67.748C116.78 67.9926 117.035 68.3527 117.147 68.7652C117.26 69.1777 117.222 69.6162 117.041 70.004Z" fill="white"/>
<path opacity="0.2" d="M112.385 60.1208L115.134 63.0008C114.984 63.451 114.876 63.9137 114.81 64.3832C113.725 64.0808 112.293 62.684 112.244 61.5032C112.205 61.0378 112.253 60.5691 112.385 60.1208Z" fill="black"/>
<path d="M107.506 54.3176C108.474 58.4168 108.827 60.1688 111.31 62.0408C115.042 64.8536 119.887 63.0296 120.148 58.7864C120.38 54.9464 118.725 48.8984 114.34 47.7464C113.411 47.4694 112.424 47.4434 111.481 47.6712C110.538 47.8989 109.674 48.3722 108.978 49.042C108.281 49.7118 107.777 50.5539 107.519 51.4814C107.26 52.4088 107.256 53.3879 107.506 54.3176Z" fill="#FFB573"/>
<path d="M108.314 57.2648C109.834 56.5256 111.446 52.892 109.282 51.1736C111.068 51.5048 113.116 51.0296 115.008 49.58C117.476 47.66 121.111 52.4264 119.916 49.628C118.193 45.596 112.999 44.588 108.3 47.9384C103.6 51.2888 103.934 55.364 108.314 57.2648Z" fill="#263238"/>
<path d="M107.027 56.444C107.01 56.4424 106.995 56.4355 106.983 56.4245C106.97 56.4134 106.962 56.3988 106.959 56.3827C106.956 56.3665 106.958 56.3498 106.965 56.3349C106.972 56.3201 106.983 56.3078 106.998 56.3C108.208 55.7816 113.343 54.6968 113.561 54.6536C113.571 54.6508 113.581 54.65 113.591 54.6514C113.602 54.6529 113.611 54.6564 113.62 54.6619C113.629 54.6673 113.636 54.6745 113.642 54.683C113.648 54.6915 113.651 54.7011 113.653 54.7112C113.656 54.7302 113.652 54.7496 113.641 54.7656C113.63 54.7816 113.614 54.793 113.595 54.7976C113.542 54.7976 108.271 55.9256 107.056 56.4392L107.027 56.444Z" fill="white"/>
<path opacity="0.2" d="M113.256 54.74C112.737 54.5137 112.149 54.4999 111.62 54.7016C112.158 54.8196 112.713 54.8327 113.256 54.74Z" fill="black"/>
<path opacity="0.2" d="M113.212 55.1048C112.961 55.0521 112.7 55.0545 112.45 55.1116C112.199 55.1688 111.964 55.2795 111.76 55.436C112.263 55.428 112.757 55.3152 113.212 55.1048Z" fill="black"/>
<path d="M114.156 54.6824C114.224 55.0328 114.461 55.292 114.689 55.2632C114.916 55.2344 115.042 54.932 114.974 54.5816C114.906 54.2312 114.664 53.9768 114.442 54.0008C114.219 54.0248 114.088 54.3368 114.156 54.6824Z" fill="#263238"/>
<path d="M118.406 54.2264C118.474 54.572 118.716 54.8312 118.938 54.8072C119.161 54.7832 119.291 54.4712 119.224 54.1256C119.156 53.78 118.919 53.516 118.691 53.5448C118.464 53.5736 118.338 53.876 118.406 54.2264Z" fill="#263238"/>
<path d="M118.58 53.5784L119.364 53.2328C119.364 53.2328 119.064 53.9384 118.58 53.5784Z" fill="#263238"/>
<path d="M117.612 54.8936C118.031 55.6767 118.548 56.404 119.151 57.0584C118.986 57.1958 118.792 57.2951 118.584 57.3491C118.376 57.403 118.158 57.4103 117.946 57.3704L117.612 54.8936Z" fill="#ED893E"/>
<path d="M116.087 58.9208C116.282 58.9373 116.478 58.9373 116.673 58.9208C116.686 58.9191 116.699 58.9147 116.711 58.9079C116.722 58.901 116.732 58.8919 116.74 58.8811C116.747 58.8703 116.753 58.858 116.755 58.845C116.758 58.832 116.758 58.8186 116.755 58.8056C116.751 58.778 116.735 58.7533 116.713 58.7363C116.69 58.7194 116.662 58.7116 116.634 58.7144C116.196 58.767 115.752 58.7224 115.333 58.5838C114.915 58.4451 114.533 58.216 114.214 57.9128C114.205 57.9032 114.194 57.8956 114.181 57.8904C114.169 57.8852 114.155 57.8825 114.142 57.8825C114.128 57.8825 114.115 57.8852 114.102 57.8904C114.09 57.8956 114.079 57.9032 114.069 57.9128C114.051 57.9324 114.041 57.9581 114.041 57.9848C114.041 58.0115 114.051 58.0373 114.069 58.0568C114.613 58.5787 115.331 58.8859 116.087 58.9208Z" fill="#263238"/>
<path d="M106.524 57.9896C106.757 58.3196 107.057 58.598 107.404 58.8071C107.752 59.0161 108.139 59.1513 108.542 59.204C109.549 59.2856 109.766 58.124 109.253 57.092C108.794 56.1656 107.714 54.9992 106.833 55.4024C105.953 55.8056 105.87 57.14 106.524 57.9896Z" fill="#FFB573"/>
<path d="M112.796 52.0376C112.823 52.0376 112.85 52.0316 112.874 52.0199C112.899 52.0083 112.92 51.9914 112.937 51.9704C113.092 51.7727 113.295 51.6162 113.526 51.5149C113.758 51.4135 114.011 51.3705 114.263 51.3896C114.289 51.3937 114.316 51.3923 114.341 51.3857C114.367 51.3791 114.391 51.3673 114.412 51.3511C114.433 51.3349 114.45 51.3146 114.463 51.2915C114.475 51.2684 114.483 51.243 114.485 51.2168C114.488 51.1617 114.47 51.1076 114.435 51.0645C114.4 51.0213 114.351 50.9919 114.297 50.9816C113.978 50.9536 113.658 51.0043 113.364 51.1291C113.07 51.2539 112.812 51.4489 112.612 51.6968C112.589 51.7296 112.575 51.7681 112.573 51.8082C112.57 51.8483 112.579 51.8882 112.598 51.9236C112.617 51.959 112.646 51.9884 112.681 52.0086C112.716 52.0287 112.756 52.0388 112.796 52.0376Z" fill="#263238"/>
<path d="M119.19 51.86C119.216 51.8629 119.242 51.8605 119.267 51.8531C119.292 51.8457 119.315 51.8333 119.335 51.8168C119.354 51.798 119.37 51.7756 119.38 51.7509C119.391 51.7262 119.396 51.6996 119.396 51.6728C119.396 51.646 119.391 51.6194 119.38 51.5947C119.37 51.57 119.354 51.5476 119.335 51.5288C119.126 51.2683 118.859 51.0592 118.555 50.9177C118.251 50.7761 117.919 50.706 117.583 50.7128C117.556 50.7149 117.53 50.7227 117.507 50.7356C117.483 50.7485 117.463 50.7662 117.447 50.7876C117.431 50.8089 117.42 50.8334 117.414 50.8594C117.408 50.8854 117.408 50.9124 117.414 50.9384C117.422 50.9927 117.45 51.0419 117.493 51.0765C117.536 51.1111 117.591 51.1286 117.646 51.1256C117.912 51.1228 118.175 51.1806 118.415 51.2946C118.655 51.4086 118.866 51.5758 119.03 51.7832C119.049 51.8069 119.074 51.8261 119.101 51.8393C119.129 51.8526 119.159 51.8597 119.19 51.86Z" fill="#263238"/>
<path d="M115.468 56.8568C114.447 56.8568 113.561 55.7816 113.464 54.404C113.405 53.7552 113.556 53.1046 113.895 52.5464C114.028 52.3098 114.217 52.1083 114.445 51.9588C114.674 51.8093 114.935 51.7162 115.206 51.6872C116.276 51.6152 117.215 52.7144 117.317 54.14C117.418 55.5656 116.629 56.78 115.569 56.852L115.468 56.8568ZM115.308 51.86H115.221C114.972 51.8883 114.733 51.9749 114.525 52.1126C114.316 52.2503 114.143 52.4352 114.021 52.652C113.699 53.183 113.557 53.8017 113.614 54.4184C113.706 55.7576 114.582 56.7896 115.55 56.7272C116.518 56.6648 117.249 55.5128 117.157 54.1736C117.065 52.8344 116.252 51.86 115.308 51.86Z" fill="white"/>
<path d="M119.993 56.5976C118.972 56.5976 118.081 55.5272 117.985 54.1496C117.928 53.5009 118.079 52.8511 118.415 52.292C118.55 52.0553 118.74 51.8538 118.969 51.7044C119.198 51.555 119.459 51.4618 119.732 51.4328C120.792 51.3608 121.741 52.46 121.837 53.8808C121.894 54.5295 121.743 55.1793 121.407 55.7384C121.272 55.9757 121.083 56.1775 120.854 56.327C120.625 56.4765 120.363 56.5693 120.09 56.5976H119.993ZM119.834 51.5816H119.742C119.493 51.6099 119.254 51.6965 119.045 51.8342C118.837 51.9719 118.664 52.1568 118.541 52.3736C118.224 52.9063 118.082 53.5236 118.135 54.14C118.227 55.436 119.049 56.4488 119.993 56.4488H120.08C120.33 56.4216 120.569 56.3355 120.778 56.1977C120.987 56.0599 121.159 55.8744 121.281 55.6568C121.6 55.1266 121.742 54.5102 121.687 53.8952C121.595 52.5944 120.773 51.5816 119.834 51.5816Z" fill="white"/>
<path d="M118.096 54.3464C118.083 54.3457 118.071 54.3418 118.06 54.3351C118.049 54.3284 118.04 54.3191 118.033 54.308C117.849 54.02 117.312 54.332 117.307 54.332C117.299 54.3372 117.29 54.3407 117.28 54.3424C117.271 54.344 117.261 54.3437 117.251 54.3414C117.242 54.3392 117.233 54.3351 117.225 54.3293C117.217 54.3236 117.21 54.3163 117.206 54.308C117.193 54.294 117.187 54.2761 117.187 54.2576C117.187 54.2391 117.193 54.2212 117.206 54.2072C117.235 54.2072 117.873 53.8136 118.135 54.2072C118.141 54.2151 118.145 54.2242 118.147 54.2339C118.149 54.2436 118.149 54.2536 118.147 54.2633C118.144 54.2729 118.14 54.2819 118.134 54.2896C118.127 54.2974 118.12 54.3036 118.111 54.308C118.111 54.315 118.11 54.3221 118.107 54.3287C118.105 54.3353 118.101 54.3413 118.096 54.3464Z" fill="white"/>
<path d="M114.345 54.0344L115.124 53.6936C115.124 53.6936 114.829 54.3992 114.345 54.0344Z" fill="#263238"/>
</svg>
