<svg width="24" height="24" viewBox="0 0 24 24" fill="none" xmlns="http://www.w3.org/2000/svg">
<g clip-path="url(#clip0_28_2980)">
<path d="M19 4H17.899C17.434 1.721 15.414 0 13 0H5C2.243 0 0 2.243 0 5V17.854C0 18.648 0.435 19.374 1.134 19.748C1.452 19.919 1.801 20.003 2.149 20.003C2.565 20.003 2.98 19.882 3.339 19.643L6.289 17.676C6.98 19.611 8.83 21 11 21H16.697L20.661 23.644C21.02 23.883 21.435 24.004 21.851 24.004C22.199 24.004 22.547 23.919 22.866 23.748C23.565 23.373 24 22.647 24 21.854V9C24 6.243 21.757 4 19 4ZM2.23 17.979C2.211 17.991 2.156 18.027 2.078 17.986C1.999 17.944 1.999 17.877 1.999 17.855V5C1.999 3.346 3.345 2 4.999 2H12.999C14.653 2 15.999 3.346 15.999 5V12C15.999 13.654 14.653 15 12.999 15H6.999C6.693 15 6.458 15.159 6.434 15.175L2.23 17.979ZM22 21.855C22 21.876 22 21.944 21.922 21.986C21.842 22.029 21.788 21.992 21.77 21.979L17.555 19.168C17.391 19.059 17.198 19 17 19H11C9.696 19 8.585 18.164 8.172 17H13C15.757 17 18 14.757 18 12V6H19C20.654 6 22 7.346 22 9V21.855ZM6 7C6 6.111 6.391 5.273 7.072 4.701C7.753 4.129 8.649 3.887 9.535 4.048C10.744 4.259 11.739 5.253 11.952 6.465C12.175 7.737 11.57 9.008 10.446 9.629C9.999 9.875 9.999 9.947 9.999 10C9.999 10.553 9.551 11 8.999 11C8.447 11 7.999 10.553 7.999 10C7.999 8.692 9.037 8.121 9.48 7.877C9.77 7.718 10.075 7.342 9.982 6.811C9.913 6.419 9.58 6.086 9.189 6.018C8.883 5.962 8.587 6.04 8.357 6.234C8.129 6.424 7.999 6.704 7.999 7.001C7.999 7.554 7.551 8.001 6.999 8.001C6.447 8.001 5.999 7.554 5.999 7.001L6 7ZM10 13C10 13.552 9.552 14 9 14C8.448 14 8 13.552 8 13C8 12.448 8.448 12 9 12C9.552 12 10 12.448 10 13Z" fill="#9BD1E5"/>
</g>
<defs>
<clipPath id="clip0_28_2980">
<rect width="24" height="24" fill="white"/>
</clipPath>
</defs>
</svg>
