<svg width="24" height="24" viewBox="0 0 24 24" fill="none" xmlns="http://www.w3.org/2000/svg">
<g clip-path="url(#clip0_28_2986)">
<path d="M18.589 0.000151099H5.411C3.98874 -0.0105102 2.62033 0.543393 1.60593 1.54035C0.591536 2.53731 0.013995 3.89592 0 5.31815L0 7.18215C0 7.57998 0.158035 7.96151 0.43934 8.24281C0.720644 8.52412 1.10218 8.68215 1.5 8.68215C1.89782 8.68215 2.27936 8.52412 2.56066 8.24281C2.84196 7.96151 3 7.57998 3 7.18215V5.31815C3.01339 4.6914 3.27467 4.0955 3.72658 3.66102C4.1785 3.22654 4.7842 2.98889 5.411 3.00015H18.589C19.2158 2.98889 19.8215 3.22654 20.2734 3.66102C20.7253 4.0955 20.9866 4.6914 21 5.31815V18.6822C20.9866 19.3089 20.7253 19.9048 20.2734 20.3393C19.8215 20.7738 19.2158 21.0114 18.589 21.0002H5.411C4.7842 21.0114 4.1785 20.7738 3.72658 20.3393C3.27467 19.9048 3.01339 19.3089 3 18.6822V16.8182C3 16.4203 2.84196 16.0388 2.56066 15.7575C2.27936 15.4762 1.89782 15.3182 1.5 15.3182C1.10218 15.3182 0.720644 15.4762 0.43934 15.7575C0.158035 16.0388 0 16.4203 0 16.8182L0 18.6822C0.013995 20.1044 0.591536 21.463 1.60593 22.4599C2.62033 23.4569 3.98874 24.0108 5.411 24.0002H18.589C20.0113 24.0108 21.3797 23.4569 22.3941 22.4599C23.4085 21.463 23.986 20.1044 24 18.6822V5.31815C23.986 3.89592 23.4085 2.53731 22.3941 1.54035C21.3797 0.543393 20.0113 -0.0105102 18.589 0.000151099Z" fill="#9BD1E5"/>
<path d="M3.5 11.9999C3.5 12.3977 3.65804 12.7792 3.93934 13.0605C4.22064 13.3418 4.60218 13.4999 5 13.4999L14.975 13.4729L11.509 16.9389C11.2276 17.2201 11.0695 17.6017 11.0694 17.9995C11.0693 18.3974 11.2272 18.779 11.5085 19.0604C11.7898 19.3418 12.1713 19.4999 12.5691 19.5C12.967 19.5001 13.3486 19.3421 13.63 19.0609L18.216 14.4749C18.541 14.1499 18.7989 13.764 18.9748 13.3394C19.1507 12.9147 19.2413 12.4595 19.2413 11.9999C19.2413 11.5402 19.1507 11.0851 18.9748 10.6604C18.7989 10.2357 18.541 9.84989 18.216 9.52488L13.634 4.93888C13.4947 4.79962 13.3293 4.68916 13.1472 4.61381C12.9652 4.53847 12.7701 4.49971 12.5731 4.49976C12.3761 4.4998 12.1811 4.53865 11.9991 4.61408C11.8171 4.68951 11.6518 4.80005 11.5125 4.93938C11.2312 5.22078 11.0733 5.60238 11.0734 6.00024C11.0734 6.19724 11.1123 6.3923 11.1877 6.57428C11.2631 6.75627 11.3737 6.92162 11.513 7.06088L14.926 10.4729L5 10.4999C4.60218 10.4999 4.22064 10.6579 3.93934 10.9392C3.65804 11.2205 3.5 11.6021 3.5 11.9999Z" fill="#9BD1E5"/>
</g>
<defs>
<clipPath id="clip0_28_2986">
<rect width="24" height="24" fill="white"/>
</clipPath>
</defs>
</svg>
