<svg width="48" height="48" viewBox="0 0 48 48" fill="none" xmlns="http://www.w3.org/2000/svg">
<rect width="48" height="48" rx="24" fill="#157145"/>
<path d="M24 9C15.7287 9 9 15.7287 9 24C9 32.2713 15.7287 39 24 39C32.2713 39 39 32.2713 39 24C39 15.7287 32.2713 9 24 9ZM24 36.5C17.1075 36.5 11.5 30.8925 11.5 24C11.5 17.1075 17.1075 11.5 24 11.5C30.8925 11.5 36.5 17.1075 36.5 24C36.5 30.8925 30.8925 36.5 24 36.5ZM31.5 24C31.5 27.71 28.7925 30.7988 25.25 31.395V32.75C25.25 33.44 24.6912 34 24 34C23.3088 34 22.75 33.44 22.75 32.75V31.395C19.2075 30.7988 16.5 27.71 16.5 24C16.5 23.31 17.0588 22.75 17.75 22.75C18.4412 22.75 19 23.31 19 24C19 26.7575 21.2425 29 24 29C26.7575 29 29 26.7575 29 24C29 23.31 29.5588 22.75 30.25 22.75C30.9412 22.75 31.5 23.31 31.5 24ZM21.5 24V17.75C21.5 16.3687 22.6187 15.25 24 15.25C25.3813 15.25 26.5 16.3687 26.5 17.75V24C26.5 25.3813 25.3813 26.5 24 26.5C22.6187 26.5 21.5 25.3813 21.5 24Z" fill="#FAFAFA"/>
</svg>
