<svg width="24" height="24" viewBox="0 0 24 24" fill="none" xmlns="http://www.w3.org/2000/svg">
<g clip-path="url(#clip0_28_2967)">
<path d="M12 13.5C12 14.238 11.595 14.876 11 15.223V17H9V15.223C8.405 14.877 8 14.239 8 13.5C8 12.395 8.895 11.5 10 11.5C11.105 11.5 12 12.395 12 13.5ZM11 10.163V7H9V10.163C9.319 10.067 9.65 10 10 10C10.35 10 10.681 10.067 11 10.163ZM13 13.838V17.001H15V13.838C14.681 13.934 14.35 14.001 14 14.001C13.65 14.001 13.319 13.934 13 13.838ZM15 8.778V7.001H13V8.778C12.405 9.124 12 9.762 12 10.501C12 11.606 12.895 12.501 14 12.501C15.105 12.501 16 11.606 16 10.501C16 9.763 15.595 9.125 15 8.778ZM23.932 8.62L20.88 10.376C20.982 10.92 21.033 11.464 21.033 12.001C21.033 12.538 20.982 13.082 20.88 13.626L23.932 15.382L20.941 20.583L17.891 18.829C17.05 19.55 16.081 20.108 15.034 20.478V24H9.034V20.478C7.987 20.108 7.018 19.549 6.177 18.829L3.126 20.583L0.135 15.381L3.187 13.626C3.085 13.082 3.034 12.538 3.034 12C3.034 11.462 3.085 10.918 3.187 10.374L0.135 8.619L3.125 3.418L6.176 5.172C7.017 4.451 7.986 3.893 9.033 3.523V0H15.033V3.522C16.08 3.892 17.049 4.451 17.89 5.171L20.94 3.417L23.931 8.618L23.932 8.62ZM21.202 7.884L20.205 6.15L17.576 7.662L17.034 7.108C16.146 6.2 15.022 5.551 13.784 5.231L13.034 5.038V2.002H11.034V5.038L10.284 5.231C9.047 5.551 7.923 6.2 7.033 7.108L6.491 7.662L3.863 6.15L2.866 7.884L5.498 9.398L5.292 10.144C5.121 10.765 5.034 11.39 5.034 12.001C5.034 12.612 5.121 13.237 5.292 13.858L5.498 14.604L2.866 16.118L3.863 17.852L6.491 16.34L7.033 16.894C7.923 17.802 9.047 18.451 10.284 18.771L11.034 18.964V22H13.034V18.964L13.784 18.771C15.022 18.451 16.146 17.802 17.034 16.894L17.576 16.34L20.205 17.852L21.202 16.118L18.571 14.605L18.776 13.859C18.947 13.235 19.034 12.61 19.034 12.001C19.034 11.392 18.947 10.767 18.776 10.143L18.571 9.397L21.202 7.884ZM24.001 -30.999V-10H16.001V-11C16.001 -14.419 18.397 -17.136 20.281 -18.746C17.677 -19.749 13.8 -22.025 11.994 -26.97C10.188 -22.033 6.322 -19.748 3.72 -18.746C5.604 -17.136 8 -14.42 8 -11V-10H0V-31C0 -32.654 1.346 -34 3 -34H21C22.654 -34 24 -32.654 24 -31L24.001 -30.999ZM2 -17.568V-12H5.905C5.448 -14.425 3.437 -16.419 2 -17.568ZM10.973 -32H9.041C8.739 -26.89 6.137 -24.357 4 -23.123V-25.5C5.407 -26.64 6.788 -28.624 7.023 -32H3C2.449 -32 2 -31.552 2 -31V-20.246C4.557 -20.967 10.534 -23.553 10.973 -32ZM22 -20.241V-31C22 -31.552 21.551 -32 21 -32H16.977C17.211 -28.624 18.593 -26.64 20 -25.5V-23.123C17.864 -24.357 15.262 -26.89 14.959 -32H13.026C13.464 -23.514 19.443 -20.951 22 -20.241ZM22 -17.569C20.563 -16.42 18.551 -14.425 18.095 -12.001H22V-17.569Z" fill="#FAFAFA"/>
</g>
<defs>
<clipPath id="clip0_28_2967">
<rect width="24" height="24" fill="white"/>
</clipPath>
</defs>
</svg>
