<svg width="266" height="342" viewBox="0 0 266 342" fill="none" xmlns="http://www.w3.org/2000/svg" xmlns:xlink="http://www.w3.org/1999/xlink">
<path d="M57.331,295.918L48.042,289.551C48.042,289.551 42.676,297.318 34.479,291.908C32.88,290.893 31.639,289.409 30.926,287.66C30.214,285.911 30.066,283.985 30.503,282.148C30.849,280.6 31.559,279.156 32.573,277.933C33.588,276.71 34.879,275.743 36.34,275.111C39.696,273.607 44.773,273.624 50.279,279.008L64.681,258.132L55.496,251.843L47.063,264.021C47.063,264.021 31.892,258.515 22.122,272.641C12.78,286.158 22.786,297.64 28.003,301.207C31.988,303.999 46.189,312.34 57.331,295.918Z" fill="#9BD1E5"/>
<path d="M71.61,241.098L60.318,241.098L60.318,251.63L71.61,251.63L71.61,241.098Z" transform="rotate(-291.189 65.964 246.364)" fill="#9BD1E5"/>
<path d="M96.884,321.482L101.812,320.186C101.666,319.628 101.633,319.047 101.714,318.476C101.796,317.904 101.991,317.355 102.287,316.86C102.584,316.364 102.977,315.933 103.443,315.59C103.909,315.247 104.439,315 105.002,314.863C105.823,314.614 106.702,314.627 107.515,314.9C108.328,315.173 109.035,315.692 109.538,316.385C109.969,316.959 110.258,317.626 110.381,318.332C110.504,319.038 110.458,319.763 110.245,320.447C109.774,322.039 108.27,323.77 104.792,324.057L107.72,335.13L112.596,333.851L110.848,327.362C112.692,326.25 114.118,324.566 114.907,322.568C115.697,320.571 115.806,318.372 115.218,316.307C113.313,309.131 106.4,309.157 103.639,309.887C101.568,310.444 94.498,312.845 96.884,321.482Z" fill="#9BD1E5"/>
<path d="M113.977,336.67L108.858,336.67L108.858,341.429L113.977,341.429L113.977,336.67Z" transform="rotate(-29.429 111.418 339.05)" fill="#9BD1E5"/>
<path d="M178.802,11.543C181.295,10.031 183.982,8.86 186.79,8.063L188.433,0.235L201.794,0L203.717,7.829C206.551,8.52 209.279,9.587 211.827,11.003L218.582,6.593L228.195,15.831L224.009,22.703C225.523,25.19 226.698,27.866 227.504,30.662L235.413,32.297L235.64,45.597L227.775,47.51C227.077,50.33 226.004,53.045 224.586,55.582L229.007,62.306L219.727,71.874L212.823,67.708C210.327,69.22 207.637,70.39 204.827,71.187L203.184,79.068L189.822,79.294L187.9,71.466C185.064,70.779 182.336,69.71 179.79,68.291L173.035,72.701L163.422,63.463L167.608,56.591C166.089,54.107 164.913,51.43 164.112,48.632L156.247,46.997L156.011,33.697L163.876,31.784C164.558,28.946 165.622,26.213 167.04,23.66L162.609,16.936L171.89,7.367L178.802,11.543ZM185.925,29.261C183.959,31.294 182.643,33.861 182.142,36.638C181.642,39.415 181.981,42.278 183.115,44.863C184.249,47.449 186.129,49.642 188.515,51.164C190.901,52.687 193.687,53.471 196.521,53.417C199.355,53.364 202.11,52.475 204.436,50.863C206.763,49.252 208.557,46.99 209.592,44.363C210.627,41.737 210.856,38.863 210.251,36.107C209.645,33.351 208.232,30.835 206.19,28.879C203.451,26.256 199.778,24.824 195.978,24.896C192.178,24.967 188.562,26.538 185.925,29.261Z" fill="#9BD1E5"/>
<path d="M89.753,79.938L86.519,69.891C91.118,62.463 92.759,53.591 91.12,45.02C89.481,36.448 84.68,28.797 77.66,23.57C70.641,18.343 61.911,15.919 53.187,16.774C44.463,17.628 36.376,21.7 30.515,28.189C24.654,34.677 21.444,43.113 21.515,51.839C21.586,60.564 24.933,68.947 30.899,75.34C36.864,81.733 45.017,85.674 53.753,86.388C62.49,87.102 71.179,84.538 78.113,79.199L89.753,79.938Z" fill="#9BD1E5"/>
<path d="M89.753,79.938L89.019,79.938L86.799,79.825L78.06,79.346C78.047,79.346 78.034,79.344 78.021,79.338C78.009,79.333 77.998,79.325 77.989,79.315C77.98,79.305 77.973,79.294 77.969,79.281C77.964,79.269 77.963,79.255 77.964,79.242C77.96,79.225 77.96,79.207 77.964,79.19L78.104,79.329C72.032,84.05 64.564,86.646 56.86,86.714C54.914,86.703 52.971,86.549 51.048,86.253C42.113,84.861 34.065,80.083 28.589,72.918C25.539,68.885 23.391,64.25 22.288,59.323C21.09,54.084 21.138,48.639 22.428,43.422C22.594,42.761 22.769,42.091 22.944,41.43C23.119,40.769 23.407,40.125 23.634,39.473C23.856,38.813 24.112,38.166 24.403,37.533C24.7,36.907 25.006,36.281 25.277,35.646C25.578,35.011 25.922,34.398 26.308,33.81L27.418,32.001L28.694,30.262L29.341,29.392C29.559,29.113 29.813,28.861 30.049,28.591C33.828,24.267 38.622,20.938 44.005,18.902C49.129,16.958 54.632,16.205 60.093,16.701C65.225,17.209 70.181,18.836 74.608,21.468C82.477,26.119 88.216,33.638 90.609,42.431C91.115,44.314 91.477,46.233 91.693,48.171C91.833,49.983 91.865,51.801 91.789,53.617C91.454,59.402 89.67,65.012 86.598,69.935L86.598,69.856C87.629,73.127 88.416,75.65 88.958,77.372C89.22,78.242 89.412,78.842 89.552,79.285L89.744,79.929C89.744,79.929 89.657,79.694 89.508,79.259L88.87,77.337C88.311,75.597 87.481,73.144 86.415,69.917C86.405,69.892 86.405,69.864 86.415,69.839C89.428,64.927 91.167,59.346 91.474,53.599C91.542,51.801 91.501,50 91.352,48.206C91.134,46.285 90.769,44.383 90.26,42.517C88.385,35.749 84.498,29.703 79.107,25.175C73.717,20.646 67.076,17.847 60.058,17.144C54.666,16.653 49.232,17.394 44.171,19.31C38.87,21.329 34.149,24.615 30.424,28.879C30.197,29.148 29.944,29.392 29.725,29.67L29.087,30.54L27.829,32.219L26.745,34.011C26.361,34.596 26.016,35.206 25.714,35.837C25.417,36.455 25.12,37.081 24.84,37.699C24.555,38.322 24.304,38.961 24.089,39.612C23.861,40.256 23.591,40.891 23.398,41.543C23.206,42.196 23.057,42.857 22.891,43.509C21.624,48.646 21.57,54.005 22.734,59.166C24.248,65.944 27.773,72.112 32.851,76.872C37.929,81.632 44.327,84.763 51.214,85.861C53.12,86.159 55.044,86.319 56.973,86.34C58.774,86.332 60.571,86.184 62.348,85.896C68.073,84.968 73.478,82.639 78.078,79.12C78.087,79.111 78.098,79.103 78.11,79.098C78.122,79.093 78.135,79.09 78.148,79.09C78.161,79.09 78.174,79.093 78.186,79.098C78.198,79.103 78.209,79.111 78.218,79.12C78.23,79.138 78.237,79.159 78.237,79.181C78.237,79.203 78.23,79.224 78.218,79.242L78.148,79.085L86.782,79.677L89.019,79.833L89.753,79.938Z" fill="#FAFAFA"/>
<path d="M46.792,51.616C46.792,52.316 46.584,53.001 46.193,53.583C45.802,54.165 45.246,54.619 44.597,54.887C43.947,55.155 43.232,55.225 42.542,55.088C41.852,54.952 41.218,54.614 40.72,54.119C40.223,53.624 39.884,52.993 39.747,52.307C39.61,51.62 39.68,50.908 39.949,50.261C40.219,49.614 40.675,49.061 41.259,48.672C41.844,48.283 42.532,48.076 43.235,48.076C44.178,48.078 45.081,48.452 45.748,49.115C46.414,49.779 46.79,50.678 46.792,51.616Z" fill="#FAFAFA"/>
<path d="M61.037,51.616C61.037,52.316 60.828,53.001 60.437,53.583C60.047,54.165 59.491,54.619 58.841,54.887C58.191,55.155 57.476,55.225 56.786,55.088C56.096,54.952 55.463,54.614 54.965,54.119C54.468,53.624 54.129,52.993 53.992,52.307C53.854,51.62 53.925,50.908 54.194,50.261C54.463,49.614 54.919,49.061 55.504,48.672C56.089,48.283 56.777,48.076 57.48,48.076C58.423,48.078 59.326,48.452 59.993,49.115C60.659,49.779 61.034,50.678 61.037,51.616Z" fill="#FAFAFA"/>
<path d="M75.246,49.85C75.597,50.457 75.759,51.153 75.713,51.851C75.666,52.549 75.413,53.218 74.984,53.773C74.556,54.328 73.973,54.744 73.307,54.969C72.641,55.194 71.924,55.217 71.245,55.036C70.565,54.856 69.955,54.478 69.492,53.953C69.028,53.427 68.731,52.777 68.638,52.083C68.545,51.389 68.661,50.684 68.971,50.056C69.281,49.428 69.771,48.905 70.379,48.554C70.784,48.32 71.231,48.168 71.695,48.107C72.159,48.046 72.631,48.076 73.083,48.196C73.535,48.317 73.959,48.525 74.33,48.809C74.701,49.092 75.013,49.446 75.246,49.85Z" fill="#FAFAFA"/>
<path d="M76.662,208.065L39.853,204.272L24.263,169.052L12.151,172.193C12.151,172.193 21.1,209.413 31.114,215.18C41.129,220.947 75.342,221.982 75.342,221.982L76.662,208.065Z" fill="#157145"/>
<path d="M84.028,231.475C93.02,231.475 100.31,224.181 100.31,215.184C100.31,206.187 93.02,198.893 84.028,198.893C75.036,198.893 67.746,206.187 67.746,215.184C67.746,224.181 75.036,231.475 84.028,231.475Z" transform="rotate(-96.475 84.028 215.184)" fill="#263238"/>
<path d="M84.029,231.446C80.246,231.446 76.58,230.14 73.656,227.751C70.732,225.363 68.73,222.039 67.992,218.346C67.254,214.653 67.826,210.82 69.609,207.499C71.392,204.179 74.277,201.576 77.772,200.135C81.267,198.694 85.155,198.504 88.775,199.597C92.395,200.69 95.522,202.999 97.624,206.129C99.725,209.26 100.671,213.019 100.301,216.766C99.93,220.513 98.265,224.017 95.59,226.679C94.075,228.195 92.274,229.397 90.289,230.215C88.305,231.033 86.177,231.451 84.029,231.446ZM84.029,198.949C80.256,198.945 76.599,200.243 73.68,202.622C70.761,205.001 68.762,208.314 68.022,211.997C67.282,215.679 67.848,219.502 69.622,222.816C71.397,226.129 74.272,228.728 77.755,230.169C81.239,231.609 85.117,231.803 88.729,230.717C92.34,229.631 95.461,227.332 97.561,224.212C99.66,221.092 100.608,217.344 100.242,213.607C99.876,209.869 98.22,206.374 95.555,203.715C94.046,202.202 92.25,201.001 90.272,200.183C88.293,199.365 86.171,198.945 84.029,198.949Z" fill="#263238"/>
<path d="M33.696,218.302C40.456,218.302 45.936,212.845 45.936,206.112C45.936,199.38 40.456,193.923 33.696,193.923C26.936,193.923 21.456,199.38 21.456,206.112C21.456,212.845 26.936,218.302 33.696,218.302Z" transform="rotate(-26.879 33.696 206.112)" fill="#263238"/>
<path d="M17.323,174.84C22.836,174.84 27.306,170.371 27.306,164.857C27.306,159.344 22.836,154.875 17.323,154.875C11.81,154.875 7.34,159.344 7.34,164.857C7.34,170.371 11.81,174.84 17.323,174.84Z" transform="rotate(-89.733 17.323 164.857)" fill="#263238"/>
<path d="M23.819,158.195L34.582,158.195L34.582,162.788L23.819,162.788C23.252,162.788 22.709,162.563 22.308,162.163C21.907,161.762 21.682,161.219 21.682,160.653L21.682,160.339C21.681,160.058 21.735,159.779 21.842,159.519C21.949,159.259 22.106,159.023 22.305,158.824C22.503,158.624 22.739,158.466 22.999,158.358C23.259,158.251 23.538,158.195 23.819,158.195Z" transform="rotate(279.903 28.132 160.492)" fill="#263238"/>
<path d="M15.85,148.792L26.288,148.792C26.369,148.792 26.446,148.824 26.503,148.882C26.56,148.939 26.593,149.017 26.593,149.098L26.593,153.083C26.593,153.164 26.56,153.242 26.503,153.299C26.446,153.356 26.369,153.389 26.288,153.389L15.85,153.389C15.285,153.389 14.743,153.163 14.343,152.762C13.944,152.36 13.719,151.815 13.719,151.248L13.719,150.933C13.719,150.365 13.944,149.821 14.343,149.419C14.743,149.018 15.285,148.792 15.85,148.792Z" transform="rotate(180 20.156 151.09)" fill="#263238"/>
<path d="M9.429,149.228L19.869,149.228C19.95,149.228 20.027,149.26 20.084,149.317C20.141,149.374 20.174,149.452 20.174,149.533L20.174,153.517C20.174,153.599 20.141,153.676 20.084,153.734C20.027,153.791 19.95,153.823 19.869,153.823L9.429,153.823C8.863,153.823 8.321,153.598 7.921,153.196C7.522,152.795 7.297,152.25 7.297,151.683L7.297,151.368C7.297,150.8 7.522,150.256 7.921,149.855C8.321,149.453 8.863,149.228 9.429,149.228Z" transform="rotate(154.666 13.735 151.525)" fill="#263238"/>
<path d="M2.913,151.954L13.363,151.954C13.444,151.954 13.522,151.986 13.579,152.043C13.636,152.101 13.668,152.178 13.668,152.259L13.668,156.24C13.668,156.321 13.636,156.398 13.579,156.456C13.522,156.513 13.444,156.545 13.363,156.545L2.913,156.545C2.347,156.545 1.805,156.32 1.405,155.919C1.004,155.518 0.78,154.974 0.78,154.407L0.78,154.092C0.78,153.525 1.004,152.981 1.405,152.58C1.805,152.179 2.347,151.954 2.913,151.954Z" transform="rotate(119.769 7.224 154.249)" fill="#263238"/>
<path d="M232.23,219.314L220.266,219.314L220.266,300.223L232.23,300.223L232.23,219.314Z" transform="rotate(314.112 226.248 259.769)" fill="#157145"/>
<path d="M204.985,233.136C213.977,233.136 221.266,225.841 221.266,216.843C221.266,207.845 213.977,200.55 204.985,200.55C195.994,200.55 188.705,207.845 188.705,216.843C188.705,225.841 195.994,233.136 204.985,233.136Z" transform="rotate(-99.197 204.985 216.843)" fill="#263238"/>
<path d="M205.019,233.151C202.458,233.152 199.933,232.555 197.646,231.407C195.359,230.259 193.375,228.593 191.853,226.543C190.331,224.492 189.314,222.115 188.884,219.602C188.454,217.089 188.623,214.511 189.377,212.074C190.27,209.201 191.947,206.63 194.22,204.648C196.494,202.667 199.275,201.351 202.254,200.848C205.234,200.345 208.295,200.674 211.098,201.799C213.901,202.924 216.336,204.8 218.131,207.22C219.927,209.639 221.014,212.507 221.27,215.504C221.527,218.501 220.943,221.511 219.584,224.198C218.226,226.884 216.145,229.144 213.574,230.724C211.003,232.305 208.041,233.145 205.019,233.151ZM205.019,200.636C202.002,200.639 199.045,201.475 196.477,203.051C193.909,204.628 191.831,206.882 190.473,209.564C189.116,212.246 188.532,215.25 188.788,218.242C189.043,221.234 190.128,224.097 191.92,226.512C193.713,228.928 196.144,230.801 198.942,231.923C201.741,233.045 204.797,233.372 207.771,232.868C210.746,232.365 213.521,231.049 215.789,229.069C218.057,227.089 219.729,224.521 220.618,221.651C221.888,217.539 221.466,213.094 219.446,209.291C217.426,205.488 213.972,202.638 209.843,201.367C208.264,200.88 206.62,200.634 204.967,200.636L205.019,200.636Z" fill="#263238"/>
<path d="M226.242,274.401C232.974,274.401 238.432,268.921 238.432,262.162C238.432,255.402 232.974,249.923 226.242,249.923C219.509,249.923 214.051,255.402 214.051,262.162C214.051,268.921 219.509,274.401 226.242,274.401Z" transform="rotate(-148.802 226.242 262.162)" fill="#263238"/>
<path d="M244.702,310.053C250.229,310.053 254.708,305.594 254.708,300.093C254.708,294.593 250.229,290.133 244.702,290.133C239.176,290.133 234.696,294.593 234.696,300.093C234.696,305.594 239.176,310.053 244.702,310.053Z" fill="#263238"/>
<path d="M231.528,305.351L242.258,305.351L242.258,309.95L231.528,309.95C230.962,309.95 230.419,309.725 230.019,309.324C229.619,308.923 229.394,308.379 229.394,307.812L229.394,307.498C229.393,307.216 229.447,306.937 229.554,306.677C229.661,306.416 229.818,306.179 230.016,305.98C230.214,305.78 230.45,305.622 230.709,305.514C230.969,305.406 231.247,305.351 231.528,305.351Z" transform="rotate(-117.043 235.826 307.65)" fill="#263238"/>
<path d="M242.051,311.733L252.494,311.733C252.575,311.733 252.652,311.765 252.71,311.822C252.767,311.88 252.799,311.957 252.799,312.038L252.799,316.021C252.799,316.103 252.767,316.18 252.71,316.238C252.652,316.295 252.575,316.327 252.494,316.327L242.051,316.327C241.771,316.324 241.495,316.265 241.237,316.154C240.98,316.044 240.747,315.883 240.551,315.682C240.356,315.481 240.201,315.243 240.097,314.982C239.994,314.721 239.942,314.442 239.945,314.161L239.945,313.847C239.952,313.288 240.176,312.754 240.57,312.359C240.963,311.964 241.495,311.739 242.051,311.733Z" transform="rotate(-217.08 246.372 314.03)" fill="#263238"/>
<path d="M248.024,309.314L258.475,309.314C258.515,309.314 258.555,309.322 258.592,309.337C258.629,309.352 258.662,309.375 258.691,309.403C258.719,309.432 258.742,309.465 258.757,309.502C258.772,309.539 258.78,309.579 258.78,309.619L258.78,313.599C258.78,313.639 258.772,313.679 258.757,313.716C258.742,313.753 258.719,313.787 258.691,313.815C258.662,313.844 258.629,313.866 258.592,313.882C258.555,313.897 258.515,313.905 258.475,313.905L248.024,313.905C247.458,313.905 246.916,313.679 246.515,313.278C246.115,312.877 245.891,312.334 245.891,311.766L245.891,311.452C245.891,310.885 246.115,310.341 246.515,309.94C246.916,309.539 247.458,309.314 248.024,309.314Z" transform="rotate(-242.376 252.335 311.609)" fill="#263238"/>
<path d="M253.321,304.696L263.787,304.696C263.868,304.696 263.945,304.728 264.003,304.785C264.06,304.843 264.092,304.92 264.092,305.001L264.092,308.967C264.092,309.048 264.06,309.126 264.003,309.183C263.945,309.24 263.868,309.272 263.787,309.272L253.321,309.272C252.755,309.272 252.211,309.047 251.811,308.647C251.41,308.246 251.185,307.703 251.185,307.137L251.185,306.823C251.187,306.258 251.413,305.717 251.814,305.318C252.214,304.92 252.756,304.696 253.321,304.696Z" transform="rotate(-277.185 257.638 306.984)" fill="#263238"/>
<path d="M79.179,198.27C79.179,198.27 80.358,312.34 144.668,314.567C208.978,316.794 211.678,199.088 211.678,198.27C211.678,198.27 204.084,181.265 145.429,181.926C86.773,182.587 79.179,198.27 79.179,198.27Z" fill="#157145"/>
<path d="M169.644,164.477L115.288,164.477C111.74,164.477 108.865,167.339 108.865,170.87L108.865,171.801C108.865,175.332 111.74,178.194 115.288,178.194L169.644,178.194C173.191,178.194 176.067,175.332 176.067,171.801L176.067,170.87C176.067,167.339 173.191,164.477 169.644,164.477Z" transform="rotate(360 142.466 171.336)" fill="#263238"/>
<rect  x="144.816" y="76.763" width="4.693" height="23.616" transform="rotate(360 144.816 76.763)" fill="#263238"/>
<path d="M211.036,147.444C218.65,147.444 224.823,141.298 224.823,133.715C224.823,126.132 218.65,119.986 211.036,119.986C203.422,119.986 197.25,126.132 197.25,133.715C197.25,141.298 203.422,147.444 211.036,147.444Z" transform="rotate(-26.62 211.036 133.715)" fill="#157145"/>
<path d="M71.834,146.521C79.449,146.521 85.621,140.374 85.621,132.792C85.621,125.209 79.449,119.063 71.834,119.063C64.22,119.063 58.047,125.209 58.047,132.792C58.047,140.374 64.22,146.521 71.834,146.521Z" transform="rotate(-25.445 71.834 132.792)" fill="#157145"/>
<path d="M139.739,71.64C139.739,71.64 83.671,70.97 74.809,119.341C65.948,167.713 113.348,168.583 126.989,169.496C133.168,169.914 146.399,169.957 158.074,169.748C183.923,169.305 202.188,164.329 208.401,140.461C209.141,137.662 209.606,134.799 209.791,131.91C211.425,105.711 193.659,70.352 139.739,71.64Z" fill="#157145"/>
<path d="M180.41,145.262L98.955,146.524C96.923,146.559 94.903,146.196 93.012,145.454C91.121,144.712 89.396,143.606 87.935,142.199C86.473,140.792 85.305,139.113 84.497,137.256C83.689,135.4 83.257,133.403 83.225,131.38C83.19,129.357 83.557,127.346 84.303,125.464C85.05,123.582 86.162,121.864 87.575,120.41C88.989,118.956 90.677,117.793 92.543,116.989C94.409,116.185 96.415,115.755 98.448,115.723L179.904,114.462C181.936,114.425 183.956,114.788 185.848,115.529C187.739,116.271 189.465,117.377 190.926,118.784C192.388,120.191 193.556,121.871 194.364,123.728C195.171,125.585 195.603,127.582 195.634,129.605C195.669,131.629 195.304,133.64 194.558,135.523C193.812,137.405 192.7,139.123 191.286,140.578C189.872,142.032 188.183,143.195 186.317,143.998C184.451,144.802 182.444,145.232 180.41,145.262Z" fill="#263238"/>
<path d="M115.882,129.701C115.693,130.66 115.222,131.541 114.529,132.233C113.837,132.926 112.953,133.398 111.991,133.591C111.029,133.784 110.031,133.688 109.123,133.317C108.215,132.945 107.438,132.313 106.891,131.502C106.344,130.691 106.05,129.737 106.048,128.76C106.045,127.783 106.334,126.827 106.877,126.013C107.421,125.199 108.194,124.564 109.1,124.188C110.006,123.812 111.004,123.711 111.967,123.899C112.607,124.024 113.216,124.273 113.759,124.633C114.302,124.992 114.769,125.454 115.132,125.993C115.496,126.532 115.749,127.136 115.878,127.773C116.006,128.409 116.008,129.064 115.882,129.701Z" fill="#FFFFFF"/>
<path d="M172.763,128.796C172.576,129.756 172.106,130.638 171.414,131.332C170.722,132.026 169.839,132.5 168.877,132.694C167.914,132.888 166.916,132.793 166.007,132.422C165.098,132.051 164.321,131.42 163.773,130.609C163.225,129.798 162.931,128.843 162.928,127.866C162.925,126.888 163.213,125.932 163.757,125.118C164.3,124.303 165.074,123.668 165.98,123.292C166.887,122.915 167.885,122.815 168.848,123.003C170.139,123.256 171.276,124.008 172.01,125.094C172.744,126.18 173.015,127.512 172.763,128.796Z" fill="#FFFFFF"/>
<path d="M164.575,243.571C164.256,247.924 162.647,252.085 159.953,255.528C157.258,258.971 153.598,261.541 149.435,262.913C145.273,264.285 140.795,264.398 136.568,263.238C132.341,262.077 128.555,259.695 125.688,256.393C122.821,253.091 121.003,249.016 120.462,244.685C119.922,240.354 120.683,235.96 122.651,232.06C124.619,228.16 127.705,224.928 131.518,222.774C135.331,220.619 139.701,219.638 144.074,219.955C149.938,220.383 155.392,223.11 159.236,227.539C163.081,231.967 165.001,237.734 164.575,243.571Z" fill="#263238"/>
<path d="M158.572,243.136C158.339,246.309 157.165,249.341 155.201,251.85C153.236,254.359 150.568,256.232 147.534,257.231C144.5,258.231 141.236,258.312 138.156,257.466C135.075,256.619 132.316,254.882 130.227,252.474C128.138,250.067 126.814,247.097 126.421,243.94C126.028,240.783 126.584,237.581 128.02,234.739C129.455,231.897 131.705,229.542 134.485,227.973C137.265,226.404 140.45,225.69 143.637,225.922C145.754,226.075 147.819,226.642 149.715,227.591C151.612,228.539 153.302,229.85 154.689,231.448C156.076,233.047 157.133,234.902 157.799,236.908C158.465,238.913 158.728,241.03 158.572,243.136Z" fill="#FFFFFF"/>
<path d="M150.785,246.059C150.662,245.18 150.612,244.293 150.637,243.406C150.593,241.745 150.558,239.37 150.558,236.447L150.733,236.769L142.422,231.942L142.885,231.942L134.496,236.63C134.269,237.013 134.802,236.117 134.75,236.212L134.75,237.448L134.75,238.691C134.75,239.509 134.75,240.327 134.706,241.127C134.706,242.727 134.645,244.276 134.618,245.772L134.391,245.372L142.606,250.365L142.239,250.365C144.799,248.99 146.914,247.894 148.356,247.146C149.132,246.707 149.941,246.328 150.777,246.015C150.125,246.544 149.422,247.007 148.679,247.398C147.264,248.268 145.184,249.495 142.562,251L142.379,251.104L142.195,251L133.876,246.172L133.648,246.042L133.648,245.763C133.648,244.267 133.666,242.719 133.701,241.118C133.701,240.318 133.701,239.509 133.701,238.683L133.701,237.448L133.701,236.247C133.648,236.343 134.182,235.456 133.954,235.83L142.37,231.185L142.615,231.054L142.842,231.193L151.048,236.186L151.231,236.299L151.231,236.508C151.135,239.518 151.039,241.936 150.951,243.58C150.974,244.41 150.918,245.24 150.785,246.059Z" fill="#157145"/>
<path d="M142.475,60.384C146.736,60.384 150.191,56.93 150.191,52.668C150.191,48.407 146.736,44.952 142.475,44.952C138.214,44.952 134.759,48.407 134.759,52.668C134.759,56.93 138.214,60.384 142.475,60.384Z" transform="rotate(-89.733 142.475 52.668)" fill="#157145"/>
<path d="M130.118,127.422C130.485,127.466 130.301,129.162 131.385,131.484C131.999,132.817 132.893,134.004 134.007,134.964C135.312,136.107 136.937,136.826 138.665,137.025C140.401,137.137 142.131,136.724 143.628,135.842C144.896,135.109 145.992,134.115 146.844,132.928C148.33,130.867 148.461,129.136 148.828,129.162C148.977,129.162 149.125,129.597 149.125,130.414C149.092,131.579 148.793,132.721 148.251,133.755C147.437,135.316 146.233,136.643 144.756,137.608C142.929,138.889 140.704,139.482 138.478,139.279C136.252,139.077 134.172,138.093 132.609,136.503C131.333,135.289 130.393,133.766 129.882,132.084C129.518,130.962 129.422,129.771 129.602,128.605C129.751,127.796 129.978,127.396 130.118,127.422Z" fill="#FFFFFF"/>
<path d="M204.774,149.96C204.687,149.96 205.692,148.394 206.662,145.654C207.868,142.065 208.631,138.344 208.934,134.572C209.284,130.813 209.372,127.035 209.196,123.264C209.135,121.812 209.065,120.655 208.995,119.785C208.936,119.364 208.922,118.939 208.952,118.515C209.064,118.925 209.137,119.344 209.17,119.768C209.292,120.577 209.415,121.751 209.52,123.247C209.794,127.048 209.75,130.865 209.389,134.659C209.081,138.466 208.267,142.216 206.968,145.81C206.557,146.894 206.06,147.944 205.482,148.951C205.276,149.306 205.039,149.644 204.774,149.96Z" fill="#263238"/>
<path d="M74.914,117.723C74.865,118.146 74.774,118.562 74.643,118.967C74.53,119.359 74.407,119.837 74.294,120.411C74.18,120.985 74.005,121.612 73.9,122.334C73.594,124.01 73.39,125.704 73.289,127.405C73.171,129.486 73.2,131.573 73.376,133.65C73.571,135.724 73.91,137.781 74.39,139.809C74.791,141.467 75.293,143.099 75.893,144.697C76.129,145.384 76.4,145.984 76.618,146.524C76.837,147.063 77.046,147.515 77.221,147.881C77.42,148.256 77.584,148.649 77.71,149.055C77.462,148.71 77.245,148.343 77.064,147.959C76.817,147.524 76.592,147.077 76.391,146.619C76.146,146.097 75.849,145.497 75.596,144.81C74.947,143.217 74.41,141.58 73.988,139.913C73.476,137.866 73.12,135.785 72.922,133.685C72.743,131.587 72.726,129.479 72.869,127.379C72.991,125.662 73.23,123.956 73.586,122.273C73.717,121.551 73.9,120.916 74.049,120.35C74.197,119.785 74.337,119.307 74.468,118.915C74.584,118.507 74.733,118.108 74.914,117.723Z" fill="#263238"/>
<path d="M78.881,198.174L79.213,198.27L80.192,198.601L83.915,199.905L86.607,200.862C87.594,201.193 88.686,201.506 89.849,201.863C92.182,202.55 94.812,203.446 97.801,204.142L102.459,205.333C104.084,205.742 105.797,206.046 107.563,206.429C111.058,207.229 114.894,207.777 118.923,208.421C127.635,209.611 136.416,210.236 145.21,210.291C154.004,210.24 162.785,209.615 171.496,208.421C175.499,207.777 179.309,207.238 182.857,206.429C184.605,206.055 186.353,205.751 187.961,205.342L192.627,204.15C195.607,203.454 198.238,202.558 200.571,201.871C201.733,201.515 202.825,201.202 203.813,200.871L206.505,199.914L210.227,198.609L211.206,198.279C211.316,198.236 211.43,198.204 211.547,198.183L211.224,198.322L210.262,198.696L206.566,200.079L203.813,201.106C202.834,201.445 201.742,201.767 200.58,202.141C198.246,202.854 195.625,203.768 192.636,204.49L187.969,205.707C186.353,206.125 184.631,206.438 182.866,206.829C179.37,207.647 175.525,208.204 171.505,208.865C162.775,210.084 153.973,210.72 145.157,210.77C136.345,210.714 127.546,210.075 118.818,208.856C114.807,208.204 110.953,207.638 107.458,206.821C105.71,206.429 103.962,206.116 102.354,205.699L97.687,204.481C94.699,203.759 92.077,202.845 89.744,202.132C88.582,201.758 87.498,201.436 86.51,201.097L83.828,200.097L80.131,198.714L79.17,198.34C79.069,198.294 78.972,198.239 78.881,198.174Z" fill="#263238"/>
<g opacity="0.3">
<path d="M79.179,198.27C79.179,198.27 86.773,182.613 145.429,181.926C204.084,181.239 211.678,198.27 211.678,198.27C211.678,198.27 152.481,227.314 79.179,198.27Z" fill="#000000"/>
</g>
<path d="M132.635,75.258C132.568,75.264 132.5,75.264 132.434,75.258L131.848,75.319C131.324,75.371 130.555,75.389 129.567,75.502C126.781,75.771 124.016,76.227 121.291,76.867C107.2,80.08 94.77,88.301 86.336,99.988C82.261,105.604 79.176,111.869 77.212,118.515C76.906,119.455 76.74,120.203 76.592,120.698L76.426,121.272C76.41,121.339 76.387,121.403 76.356,121.464C76.344,121.398 76.344,121.33 76.356,121.264C76.356,121.107 76.426,120.916 76.478,120.681C76.601,120.176 76.732,119.42 77.011,118.463C77.741,115.761 78.676,113.117 79.808,110.556C83.543,102.045 89.23,94.523 96.412,88.593C103.624,82.707 112.121,78.585 121.222,76.554C123.962,75.934 126.746,75.524 129.55,75.328C130.546,75.241 131.297,75.249 131.839,75.223L132.434,75.223C132.573,75.241 132.635,75.249 132.635,75.258Z" fill="#FFFFFF"/>
<path d="M77.78,142.218C77.43,141.679 77.159,141.094 76.976,140.478C75.94,137.572 75.457,134.498 75.552,131.415C75.527,130.775 75.604,130.135 75.779,129.518C75.919,129.518 75.727,132.424 76.286,135.938C76.845,139.452 77.911,142.166 77.78,142.218Z" fill="#FFFFFF"/>
<path d="M63.073,137.721C63.073,137.721 62.872,137.582 62.601,137.251C62.215,136.783 61.883,136.272 61.613,135.729C60.68,133.931 60.323,131.891 60.59,129.885C60.857,127.879 61.736,126.002 63.108,124.508C63.509,124.051 63.964,123.642 64.462,123.29C64.633,123.147 64.829,123.035 65.039,122.96C65.091,123.029 64.305,123.56 63.352,124.7C62.102,126.19 61.302,128.002 61.045,129.927C60.789,131.851 61.086,133.809 61.902,135.572C62.513,136.955 63.134,137.669 63.073,137.721Z" fill="#FFFFFF"/>
<path d="M142.973,47.302C142.291,47.227 141.603,47.212 140.919,47.258C140.104,47.329 139.316,47.585 138.616,48.007C137.916,48.428 137.322,49.003 136.88,49.689C136.438,50.374 136.159,51.151 136.065,51.96C135.972,52.769 136.066,53.589 136.34,54.356C136.576,54.992 136.868,55.607 137.214,56.191C137.214,56.191 137.039,56.087 136.794,55.809C136.458,55.406 136.193,54.95 136.008,54.46C135.674,53.648 135.542,52.768 135.623,51.894C135.704,51.02 135.995,50.179 136.472,49.441C136.948,48.703 137.596,48.09 138.361,47.654C139.126,47.218 139.986,46.972 140.867,46.936C141.39,46.9 141.915,46.95 142.422,47.084C142.815,47.145 142.973,47.275 142.973,47.302Z" fill="#FFFFFF"/>
<path d="M219.141,127.17C219.045,127.274 217.691,125.978 215.646,125.004C213.601,124.03 211.739,123.743 211.757,123.604C213.182,123.568 214.59,123.91 215.838,124.595C217.152,125.142 218.293,126.032 219.141,127.17Z" fill="#FFFFFF"/>
<path d="M99.278,279.452C99.238,279.4 99.203,279.345 99.173,279.287L98.885,278.773C98.623,278.278 98.273,277.616 97.819,276.773C97.592,276.338 97.347,275.851 97.067,275.329L96.246,273.589C95.651,272.328 94.987,270.893 94.332,269.24C94,268.431 93.65,267.579 93.283,266.7C92.916,265.822 92.602,264.865 92.243,263.899C91.492,261.977 90.854,259.863 90.111,257.671C88.739,253.235 87.393,248.32 86.213,243.101C85.034,237.882 84.177,232.846 83.478,228.262C82.779,223.678 82.325,219.564 82.045,216.032C81.879,214.293 81.774,212.709 81.687,211.318C81.599,209.926 81.521,208.708 81.494,207.751C81.468,206.795 81.442,206.055 81.416,205.498L81.416,204.916C81.406,204.849 81.406,204.782 81.416,204.716C81.426,204.782 81.426,204.849 81.416,204.916L81.468,205.498C81.468,206.046 81.564,206.803 81.626,207.743C81.687,208.682 81.774,209.917 81.896,211.3C82.019,212.683 82.132,214.266 82.325,216.006C82.639,219.485 83.199,223.626 83.854,228.184C84.509,232.742 85.462,237.752 86.615,242.971C87.769,248.19 89.124,253.096 90.461,257.523C91.203,259.715 91.824,261.82 92.558,263.743C92.907,264.717 93.24,265.648 93.572,266.543L94.585,269.101C95.215,270.727 95.861,272.171 96.438,273.45L97.224,275.19C97.478,275.72 97.723,276.207 97.941,276.651L98.92,278.686L99.165,279.217C99.217,279.287 99.256,279.367 99.278,279.452Z" fill="#FFFFFF"/>
<path d="M65.083,208.534C62.951,208.615 60.815,208.539 58.695,208.308C56.564,208.234 54.441,208.01 52.341,207.638C54.473,207.558 56.609,207.634 58.729,207.864C60.86,207.938 62.983,208.162 65.083,208.534Z" fill="#FFFFFF"/>
<path d="M32.207,189.963C30.967,188.166 29.855,186.286 28.877,184.335C27.769,182.457 26.794,180.504 25.958,178.49C27.194,180.291 28.304,182.174 29.279,184.127C30.393,186.001 31.371,187.951 32.207,189.963Z" fill="#FFFFFF"/>
<path d="M130.302,306.878C129.957,306.871 129.615,306.831 129.279,306.756C128.354,306.592 127.441,306.371 126.544,306.095C125.211,305.691 123.909,305.194 122.646,304.608C121.108,303.869 119.63,303.014 118.224,302.05C116.834,301.062 115.525,299.965 114.309,298.771C113.324,297.789 112.413,296.737 111.583,295.622C111.014,294.878 110.497,294.097 110.036,293.282C109.847,292.996 109.692,292.69 109.573,292.369C109.643,292.325 110.377,293.587 111.836,295.431C112.694,296.503 113.619,297.52 114.606,298.475C117.025,300.814 119.801,302.758 122.83,304.233C124.067,304.828 125.339,305.348 126.64,305.79C128.877,306.539 130.319,306.791 130.302,306.878Z" fill="#FFFFFF"/>
<path d="M143.707,266.639C143.505,266.674 143.3,266.695 143.095,266.7C142.514,266.749 141.931,266.766 141.347,266.752C139.174,266.705 137.018,266.356 134.942,265.717C133.507,265.272 132.11,264.714 130.765,264.047C129.222,263.257 127.759,262.322 126.395,261.255C123.236,258.839 120.746,255.664 119.16,252.028C117.573,248.391 116.941,244.412 117.324,240.466C117.467,238.753 117.774,237.058 118.242,235.403C118.66,233.969 119.201,232.572 119.858,231.228C120.806,229.28 122.024,227.473 123.476,225.861C123.866,225.421 124.28,225.003 124.717,224.609C124.862,224.465 125.017,224.331 125.18,224.209C125.18,224.209 124.604,224.826 123.607,225.948C122.209,227.585 121.034,229.398 120.112,231.341C118.737,234.204 117.919,237.3 117.7,240.466C117.346,244.342 117.976,248.245 119.534,251.816C121.092,255.386 123.526,258.509 126.614,260.898C127.937,261.959 129.359,262.891 130.861,263.682C132.177,264.373 133.547,264.955 134.959,265.421C137.005,266.082 139.13,266.471 141.278,266.578C142.859,266.639 143.707,266.587 143.707,266.639Z" fill="#FFFFFF"/>
<path d="M37.904,198.14C37.904,198.209 37.232,197.887 36.157,197.635C34.718,197.322 33.227,197.337 31.796,197.679C30.364,198.021 29.029,198.681 27.89,199.61C27.016,200.332 26.596,200.906 26.535,200.862C26.775,200.287 27.146,199.775 27.619,199.366C28.753,198.33 30.134,197.6 31.631,197.244C33.128,196.887 34.692,196.917 36.174,197.331C36.806,197.464 37.398,197.741 37.904,198.14Z" fill="#FFFFFF"/>
<path d="M166.953,111.652C166.953,111.774 156.221,111.878 142.99,111.878C129.76,111.878 119.02,111.774 119.02,111.652C119.02,111.53 129.751,111.426 142.99,111.426C156.23,111.426 166.953,111.513 166.953,111.652Z" fill="#FFFFFF"/>
<path d="M126.054,166.043C125.923,166.08 125.788,166.1 125.652,166.104L124.481,166.208C123.974,166.252 123.354,166.286 122.628,166.304C121.903,166.321 121.082,166.356 120.173,166.304C118.346,166.304 116.179,166.173 113.776,165.921C111.175,165.62 108.593,165.176 106.042,164.59C103.497,163.983 100.988,163.233 98.527,162.346C96.521,161.615 94.555,160.782 92.637,159.85C91.763,159.467 91.09,159.067 90.452,158.727C89.814,158.388 89.272,158.084 88.835,157.858L87.83,157.249C87.711,157.183 87.6,157.104 87.498,157.014C87.498,157.014 87.638,157.014 87.874,157.17L88.922,157.701C89.368,157.945 89.919,158.232 90.565,158.571C91.212,158.91 91.946,159.258 92.776,159.623C94.419,160.389 96.42,161.207 98.675,162.015C103.575,163.764 108.659,164.955 113.828,165.564C116.205,165.843 118.364,165.999 120.173,166.043C121.047,166.095 121.921,166.043 122.628,166.043C123.336,166.043 123.966,166.043 124.472,166.043L125.643,166.043C125.779,166.02 125.918,166.02 126.054,166.043Z" fill="#FFFFFF"/>
<path d="M195.817,205.238C195.752,205.28 195.682,205.312 195.607,205.333L194.978,205.568L192.549,206.438C191.491,206.821 190.198,207.264 188.669,207.708C187.139,208.151 185.418,208.726 183.469,209.213L180.428,210.013C179.37,210.283 178.252,210.509 177.107,210.778C174.817,211.326 172.336,211.761 169.731,212.257C158.388,214.224 146.861,214.927 135.361,214.353C132.739,214.188 130.196,214.058 127.854,213.788C126.683,213.666 125.547,213.579 124.464,213.431L121.344,213.005C119.351,212.77 117.569,212.414 116.004,212.135C114.44,211.857 113.086,211.596 111.993,211.344L109.476,210.787L108.821,210.631C108.745,210.618 108.672,210.595 108.603,210.561C108.681,210.554 108.76,210.554 108.838,210.561L109.494,210.674L112.028,211.152C113.129,211.37 114.475,211.622 116.048,211.857C117.621,212.092 119.395,212.431 121.388,212.649L124.499,213.04C125.582,213.179 126.718,213.257 127.889,213.371C130.223,213.623 132.739,213.736 135.379,213.892C140.666,214.11 146.477,214.119 152.577,213.762C158.677,213.405 164.436,212.649 169.653,211.796C172.274,211.318 174.739,210.926 177.028,210.37C178.173,210.109 179.292,209.891 180.349,209.63L183.39,208.856C185.339,208.395 187.061,207.856 188.59,207.421C190.119,206.986 191.43,206.551 192.487,206.229L194.943,205.446L195.59,205.255L195.817,205.238Z" fill="#FFFFFF"/>
</svg>
