<svg width="24" height="25" viewBox="0 0 24 25" fill="none" xmlns="http://www.w3.org/2000/svg">
<path d="M23.13 4.653L19.894 1.388C19.469 0.958 18.513 0.5 17.763 0.5H9C6.243 0.5 4 2.743 4 5.5V15.5C4 18.257 6.243 20.5 9 20.5H19C21.757 20.5 24 18.257 24 15.5V6.766C24 5.969 23.69 5.217 23.13 4.653ZM11 2.5H17V6.5H11V2.5ZM22 15.5C22 17.154 20.654 18.5 19 18.5H9C7.346 18.5 6 17.154 6 15.5V5.5C6 3.846 7.346 2.5 9 2.5V6.5C9 7.603 9.897 8.5 11 8.5H17C18.103 8.5 19 7.603 19 6.5V3.328L21.711 6.062C21.898 6.25 22 6.5 22 6.766V15.5ZM18 23.5C18 24.052 17.553 24.5 17 24.5H9C4.037 24.5 0 20.462 0 15.5V7.5C0 6.948 0.447 6.5 1 6.5C1.553 6.5 2 6.948 2 7.5V15.5C2 19.36 5.141 22.5 9 22.5H17C17.553 22.5 18 22.948 18 23.5ZM14 10.5C12.346 10.5 11 11.846 11 13.5C11 15.154 12.346 16.5 14 16.5C15.654 16.5 17 15.154 17 13.5C17 11.846 15.654 10.5 14 10.5ZM14 14.5C13.448 14.5 13 14.051 13 13.5C13 12.949 13.448 12.5 14 12.5C14.552 12.5 15 12.949 15 13.5C15 14.051 14.552 14.5 14 14.5Z" fill="#FAFAFA"/>
</svg>
