<svg width="48" height="48" viewBox="0 0 48 48" fill="none" xmlns="http://www.w3.org/2000/svg" xmlns:xlink="http://www.w3.org/1999/xlink">
<path d="M47.414,44.586L35.476,32.648C38.729,28.669 40.329,23.592 39.944,18.467C39.559,13.342 37.218,8.561 33.407,5.113C29.596,1.665 24.605,-0.186 19.467,-0.058C14.329,0.071 9.437,2.169 5.803,5.803C2.169,9.437 0.071,14.329 -0.058,19.467C-0.186,24.605 1.665,29.596 5.113,33.407C8.561,37.218 13.342,39.559 18.467,39.944C23.592,40.329 28.669,38.729 32.648,35.476L44.586,47.414C44.963,47.778 45.468,47.98 45.993,47.975C46.517,47.971 47.019,47.76 47.39,47.39C47.76,47.019 47.971,46.517 47.975,45.993C47.98,45.468 47.778,44.963 47.414,44.586ZM20,36C16.836,36 13.742,35.062 11.111,33.304C8.48,31.545 6.429,29.047 5.218,26.123C4.007,23.199 3.69,19.982 4.307,16.879C4.925,13.775 6.449,10.924 8.686,8.686C10.924,6.449 13.775,4.925 16.879,4.307C19.982,3.69 23.199,4.007 26.123,5.218C29.047,6.429 31.545,8.48 33.304,11.111C35.062,13.742 36,16.835 36,20C35.995,24.242 34.308,28.309 31.308,31.308C28.309,34.308 24.242,35.995 20,36Z" fill="#FAFAFA"/>
</svg>
