<svg width="228" height="229" viewBox="0 0 228 229" fill="none" xmlns="http://www.w3.org/2000/svg">
<path opacity="0.7" d="M30.9761 76.693C30.9761 76.693 18.2628 109.525 36.1289 142.585C53.9949 175.645 90.7941 193.11 120.247 208.044C149.7 222.978 180.284 215.705 194.817 191.245C209.35 166.785 189.418 149.325 189.39 114.445C189.363 79.5658 194.612 70.3318 175.71 40.8651C156.809 11.3984 110.475 4.87304 75.4361 26.7291C40.397 48.5852 30.9761 76.693 30.9761 76.693Z" fill="white"/>
<path d="M29.0426 63.957C41.2224 40.3179 63.84 22.4336 91.998 19.9165C111.364 18.2279 130.666 23.8119 146.139 35.5801C153.827 41.5081 160.658 49.0549 165.195 57.6687C170.403 67.5639 171.921 78.973 177.279 88.8226C183.941 101.066 196.454 106.119 204.858 116.698C211.775 125.412 214.151 137.09 213.358 148.189C211.908 168.449 200.038 187.683 182.578 198.067C167.817 206.845 150.024 209.266 132.874 208.468C106.426 207.241 80.0964 198.518 59.2663 182.18C38.4362 165.841 23.4657 141.687 19.918 115.453C17.5058 97.628 21.0124 79.5385 29.0426 63.957Z" fill="#157145"/>
<path opacity="0.7" d="M29.0426 63.957C41.2224 40.3179 63.84 22.4336 91.998 19.9165C111.364 18.2279 130.666 23.8119 146.139 35.5801C153.827 41.5081 160.658 49.0549 165.195 57.6687C170.403 67.5639 171.921 78.973 177.279 88.8226C183.941 101.066 196.454 106.119 204.858 116.698C211.775 125.412 214.151 137.09 213.358 148.189C211.908 168.449 200.038 187.683 182.578 198.067C167.817 206.845 150.024 209.266 132.874 208.468C106.426 207.241 80.0964 198.518 59.2663 182.18C38.4362 165.841 23.4657 141.687 19.918 115.453C17.5058 97.628 21.0124 79.5385 29.0426 63.957Z" fill="white"/>
<path d="M21.0079 72.5982C21.546 74.7322 21.2815 70.8061 22.3349 66.009C23.3883 61.2118 25.1986 63.1544 25.1986 63.1544" stroke="#263238" stroke-linecap="round" stroke-linejoin="round"/>
<path d="M20.6796 67.6962L23.9856 66.3418" stroke="#263238" stroke-linecap="round" stroke-linejoin="round"/>
<path d="M26.717 64.7139C26.717 64.7139 24.7425 68.8179 27.7202 70.5416" stroke="#263238" stroke-linecap="round" stroke-linejoin="round"/>
<path d="M29.5214 63.5648C29.5214 63.5648 32.7863 65.3888 30.7434 69.3013" stroke="#263238" stroke-linecap="round" stroke-linejoin="round"/>
<path d="M27.287 66.1002L29.6263 67.8056" stroke="#263238" stroke-linecap="round" stroke-linejoin="round"/>
<path d="M29.1201 65.3478L27.2915 68.2616" stroke="#263238" stroke-linecap="round" stroke-linejoin="round"/>
<path d="M39.625 109.021C40.07 106.309 38.2327 103.751 35.5214 103.306C32.8101 102.861 30.2514 104.698 29.8064 107.409C29.3615 110.121 31.1987 112.679 33.91 113.124C36.6213 113.569 39.18 111.732 39.625 109.021Z" stroke="#263238" stroke-linecap="round" stroke-linejoin="round"/>
<path d="M42.576 115.566C45.5612 114.954 47.4848 112.038 46.8726 109.052C46.2604 106.067 43.3441 104.144 40.359 104.756C37.3738 105.368 35.4502 108.284 36.0624 111.269C36.6746 114.255 39.5909 116.178 42.576 115.566Z" stroke="#263238" stroke-linecap="round" stroke-linejoin="round"/>
<path d="M39.2479 106.16L36.9587 106.976" stroke="#263238" stroke-linecap="round" stroke-linejoin="round"/>
<path d="M39.5671 107.104L36.2748 108.294" stroke="#263238" stroke-linecap="round" stroke-linejoin="round"/>
<path d="M39.6903 108.244L36.0149 109.657" stroke="#263238" stroke-linecap="round" stroke-linejoin="round"/>
<path d="M39.4303 109.799L36.0787 111.331" stroke="#263238" stroke-linecap="round" stroke-linejoin="round"/>
<path d="M38.8374 110.993L36.293 112.051" stroke="#263238" stroke-linecap="round" stroke-linejoin="round"/>
<path d="M37.1184 100.633C36.9771 100.177 35.3628 99.8943 35.2944 101.089C35.226 102.284 36.9953 101.29 37.4969 100.633C37.4969 100.633 36.5849 101.86 36.9679 102.101" stroke="#263238" stroke-linecap="round" stroke-linejoin="round"/>
<path d="M46.056 102.12L44.6241 105.097C44.6241 105.097 45.3401 103.606 46.1061 103.729C47.0501 103.898 46.4208 105.444 45.2808 104.874" stroke="#263238" stroke-linecap="round" stroke-linejoin="round"/>
<path d="M201.876 150.738L204.124 152.863" stroke="#263238" stroke-linecap="round" stroke-linejoin="round"/>
<path d="M204.124 150.182L202.24 152.996" stroke="#263238" stroke-linecap="round" stroke-linejoin="round"/>
<path d="M206.335 150.989L208.588 150.15" stroke="#263238" stroke-linecap="round" stroke-linejoin="round"/>
<path d="M209.669 147.806L211.037 149.015" stroke="#263238" stroke-linecap="round" stroke-linejoin="round"/>
<path d="M212.086 146.352L210.353 152.298" stroke="#263238" stroke-linecap="round" stroke-linejoin="round"/>
<path d="M107.146 117.336L113.197 113.173L121.209 113.734L121.711 123.894L115.828 128.098L108.569 127.569L107.146 117.336Z" stroke="#263238" stroke-linecap="round" stroke-linejoin="round"/>
<path d="M108.569 127.569L114.429 123.351L121.711 123.894" stroke="#263238" stroke-linecap="round" stroke-linejoin="round"/>
<path d="M114.429 123.351L113.197 113.173" stroke="#263238" stroke-linecap="round" stroke-linejoin="round"/>
<path d="M107.146 117.336L115.14 118.262L121.209 113.734" stroke="#263238" stroke-linecap="round" stroke-linejoin="round"/>
<path d="M115.14 118.262L115.829 128.098" stroke="#263238" stroke-linecap="round" stroke-linejoin="round"/>
<path d="M177.772 83.2047L175.09 91.5358L183.435 90.4095L177.772 83.2047Z" stroke="#263238" stroke-linecap="round" stroke-linejoin="round"/>
<path d="M177.772 83.2047L179.263 90.9248" stroke="#263238" stroke-linecap="round" stroke-linejoin="round"/>
<path d="M179.026 89.689L180.001 89.534L180.229 90.8427" stroke="#263238" stroke-linecap="round" stroke-linejoin="round"/>
<path d="M72.6818 159.443L76.8496 161.491" stroke="#263238" stroke-linecap="round" stroke-linejoin="round"/>
<path d="M75.5044 157.879L74.3097 162.234" stroke="#263238" stroke-linecap="round" stroke-linejoin="round"/>
<path d="M76.0836 155.754C76.152 155.684 76.236 155.63 76.3289 155.597C76.4218 155.565 76.521 155.555 76.6185 155.568C76.7161 155.58 76.8093 155.616 76.8906 155.671C76.9719 155.727 77.0391 155.8 77.0868 155.887C77.5063 156.543 76.6855 157.92 76.6855 157.92L78.3591 157.282" stroke="#263238" stroke-linecap="round" stroke-linejoin="round"/>
<path d="M105.404 16.004C109.385 18.243 104.825 23.715 104.825 26.907C104.825 30.099 109.385 29.643 111.665 30.555C112.577 30.555 114.401 30.555 114.351 32.8714" stroke="#263238" stroke-linecap="round" stroke-linejoin="round"/>
<path d="M100.968 18.9087C101.661 22.6798 105.984 21.3438 108.637 22.2056C113.197 23.6876 110.667 28.3935 109.308 31.239C108.492 32.9353 107.68 35.3156 109.139 36.9253" stroke="#263238" stroke-linecap="round" stroke-linejoin="round"/>
<path d="M101.551 20.3725L106.298 16.4281" stroke="#263238" stroke-linecap="round" stroke-linejoin="round"/>
<path d="M103.412 21.549L106.987 18.585" stroke="#263238" stroke-linecap="round" stroke-linejoin="round"/>
<path d="M105.514 24.5494L108.533 22.1782" stroke="#263238" stroke-linecap="round" stroke-linejoin="round"/>
<path d="M104.889 28.0971L110.79 23.8563" stroke="#263238" stroke-linecap="round" stroke-linejoin="round"/>
<path d="M107.151 29.7524L111.264 26.7337" stroke="#263238" stroke-linecap="round" stroke-linejoin="round"/>
<path d="M108.902 36.1683L114.041 31.9822" stroke="#263238" stroke-linecap="round" stroke-linejoin="round"/>
<path d="M109.03 32.876L112.381 30.5185" stroke="#263238" stroke-linecap="round" stroke-linejoin="round"/>
<path d="M41.9297 161.715C46.8261 159.757 49.2078 154.2 47.2494 149.303C45.291 144.407 39.734 142.025 34.8376 143.983C29.9411 145.942 27.5594 151.499 29.5179 156.395C31.4763 161.292 37.0333 163.673 41.9297 161.715Z" stroke="#263238" stroke-linecap="round" stroke-linejoin="round"/>
<path d="M40.7846 143.611C44.1134 139.703 46.9452 137.492 48.035 138.212C49.6948 139.302 46.7172 146.744 41.3865 154.829C36.0559 162.914 30.3878 168.586 28.728 167.492C27.6336 166.776 28.5547 163.301 30.8347 158.7" stroke="#263238" stroke-linecap="round" stroke-linejoin="round"/>
<path d="M29.0381 154.81C24.396 153.474 21.432 151.915 21.619 150.67C21.888 148.7 29.909 148.244 39.4896 149.68C49.0702 151.117 56.6033 153.839 56.316 155.8C56.1108 157.168 52.212 157.793 46.6716 157.583" stroke="#263238" stroke-linecap="round" stroke-linejoin="round"/>
<path d="M30.2555 147.893C26.7534 141.573 25.0024 136.643 26.188 135.873C27.7475 134.865 33.7758 141.404 39.6537 150.465C45.5315 159.525 49.029 167.715 47.4741 168.728C46.4435 169.393 43.4567 166.758 39.8498 162.271" stroke="#263238" stroke-linecap="round" stroke-linejoin="round"/>
<path d="M49.3801 142.343C49.2101 142.603 48.9671 142.806 48.6817 142.927C48.3964 143.048 48.0816 143.082 47.777 143.024C47.4724 142.967 47.1917 142.82 46.9703 142.603C46.7489 142.386 46.5969 142.108 46.5333 141.805C46.4696 141.501 46.4974 141.186 46.6129 140.898C46.7285 140.611 46.9267 140.364 47.1825 140.189C47.4383 140.013 47.7402 139.918 48.0502 139.914C48.3602 139.911 48.6643 139.999 48.9241 140.168C49.0972 140.281 49.2463 140.427 49.3629 140.597C49.4796 140.767 49.5614 140.959 49.6038 141.161C49.6461 141.363 49.6482 141.572 49.6098 141.775C49.5714 141.977 49.4934 142.171 49.3801 142.343Z" fill="#263238"/>
<path d="M44.1864 166.37C44.0164 166.629 43.7734 166.832 43.488 166.953C43.2027 167.075 42.8878 167.109 42.5832 167.051C42.2786 166.993 41.9979 166.847 41.7766 166.63C41.5552 166.413 41.4031 166.135 41.3395 165.831C41.2759 165.528 41.3036 165.213 41.4192 164.925C41.5347 164.637 41.7329 164.39 41.9887 164.215C42.2446 164.04 42.5465 163.945 42.8565 163.941C43.1665 163.937 43.4706 164.026 43.7304 164.195C43.9035 164.307 44.0526 164.453 44.1692 164.624C44.2858 164.794 44.3677 164.986 44.4101 165.188C44.4524 165.39 44.4545 165.598 44.4161 165.801C44.3777 166.004 44.2997 166.197 44.1864 166.37Z" fill="#263238"/>
<path d="M35.8051 150.068C35.635 150.327 35.392 150.53 35.1067 150.651C34.8213 150.773 34.5065 150.807 34.2019 150.749C33.8973 150.691 33.6166 150.545 33.3952 150.328C33.1739 150.111 33.0218 149.833 32.9582 149.529C32.8946 149.226 32.9223 148.911 33.0378 148.623C33.1534 148.335 33.3516 148.088 33.6074 147.913C33.8632 147.738 34.1652 147.643 34.4752 147.639C34.7851 147.635 35.0892 147.724 35.3491 147.893C35.6976 148.121 35.9414 148.478 36.0269 148.886C36.1123 149.294 36.0326 149.719 35.8051 150.068Z" fill="#263238"/>
<path d="M135.81 81.8139H141.182L143.868 77.1627L141.182 72.5115H135.81L133.125 77.1627L135.81 81.8139Z" stroke="#263238" stroke-linecap="round" stroke-linejoin="round"/>
<path d="M135.031 92.0238L132.345 87.3726H126.973" stroke="#263238" stroke-linecap="round" stroke-linejoin="round"/>
<path d="M127.694 77.1627H133.065L135.751 72.5115L133.065 67.8558H127.694L125.008 72.5115L127.694 77.1627Z" stroke="#263238" stroke-linecap="round" stroke-linejoin="round"/>
<path d="M135.81 72.5115H141.182L143.868 67.8558L141.182 63.2046H135.81L133.125 67.8558L135.81 72.5115Z" stroke="#263238" stroke-linecap="round" stroke-linejoin="round"/>
<path d="M135.751 73.232C136.149 73.232 136.472 72.9094 136.472 72.5115C136.472 72.1136 136.149 71.791 135.751 71.791C135.353 71.791 135.031 72.1136 135.031 72.5115C135.031 72.9094 135.353 73.232 135.751 73.232Z" fill="#263238"/>
<path d="M124.534 63.4645C124.932 63.4645 125.254 63.1419 125.254 62.744C125.254 62.3461 124.932 62.0235 124.534 62.0235C124.136 62.0235 123.813 62.3461 123.813 62.744C123.813 63.1419 124.136 63.4645 124.534 63.4645Z" fill="#263238"/>
<path d="M134.31 92.0238C134.31 91.8813 134.352 91.742 134.432 91.6235C134.511 91.505 134.623 91.4127 134.755 91.3581C134.887 91.3036 135.031 91.2893 135.171 91.3171C135.311 91.3449 135.439 91.4135 135.54 91.5143C135.641 91.6151 135.709 91.7434 135.737 91.8832C135.765 92.023 135.751 92.1678 135.696 92.2995C135.642 92.4311 135.549 92.5436 135.431 92.6228C135.312 92.702 135.173 92.7442 135.031 92.7442C134.936 92.7442 134.842 92.7256 134.755 92.6894C134.668 92.6532 134.588 92.6001 134.521 92.5332C134.454 92.4663 134.401 92.3869 134.365 92.2995C134.329 92.2121 134.31 92.1184 134.31 92.0238Z" fill="#263238"/>
<path d="M126.973 88.093C127.371 88.093 127.694 87.7705 127.694 87.3726C127.694 86.9746 127.371 86.6521 126.973 86.6521C126.575 86.6521 126.253 86.9746 126.253 87.3726C126.253 87.7705 126.575 88.093 126.973 88.093Z" fill="#263238"/>
<path d="M149.066 67.988C149.066 67.8444 149.109 67.704 149.189 67.5847C149.269 67.4654 149.382 67.3725 149.515 67.3177C149.648 67.263 149.794 67.2489 149.935 67.2772C150.075 67.3056 150.205 67.3751 150.306 67.4769C150.407 67.5788 150.476 67.7084 150.503 67.8494C150.531 67.9903 150.516 68.1362 150.46 68.2686C150.404 68.401 150.311 68.5139 150.191 68.5931C150.071 68.6722 149.93 68.7139 149.787 68.713C149.692 68.713 149.598 68.6942 149.51 68.6578C149.422 68.6213 149.343 68.5678 149.276 68.5004C149.209 68.433 149.156 68.353 149.12 68.2651C149.084 68.1772 149.066 68.083 149.066 67.988Z" fill="#263238"/>
<path d="M132.29 88.093C132.688 88.093 133.011 87.7705 133.011 87.3726C133.011 86.9746 132.688 86.6521 132.29 86.6521C131.892 86.6521 131.57 86.9746 131.57 87.3726C131.57 87.7705 131.892 88.093 132.29 88.093Z" fill="#263238"/>
<path d="M143.147 67.988C143.147 67.8446 143.19 67.7044 143.27 67.5852C143.349 67.466 143.463 67.373 143.595 67.3182C143.728 67.2633 143.873 67.2489 144.014 67.2769C144.155 67.3049 144.284 67.3739 144.385 67.4753C144.487 67.5767 144.556 67.7059 144.584 67.8466C144.612 67.9872 144.597 68.133 144.542 68.2655C144.487 68.3979 144.395 68.5112 144.275 68.5909C144.156 68.6705 144.016 68.713 143.872 68.713C143.68 68.713 143.496 68.6367 143.36 68.5007C143.224 68.3647 143.147 68.1803 143.147 67.988Z" fill="#263238"/>
<path d="M135.031 81.8185C135.03 81.6747 135.072 81.5339 135.151 81.414C135.23 81.294 135.343 81.2004 135.476 81.145C135.609 81.0895 135.755 81.0748 135.896 81.1026C136.037 81.1304 136.167 81.1996 136.268 81.3012C136.37 81.4029 136.439 81.5325 136.467 81.6736C136.495 81.8147 136.48 81.9608 136.425 82.0935C136.369 82.2262 136.276 82.3393 136.156 82.4187C136.036 82.498 135.895 82.5399 135.751 82.539C135.56 82.5378 135.378 82.4615 135.243 82.3266C135.108 82.1918 135.032 82.0092 135.031 81.8185Z" fill="#263238"/>
<path d="M143.873 67.9789H149.787" stroke="#263238" stroke-linecap="round" stroke-linejoin="round"/>
<path d="M135.751 81.8185L132.29 87.3726" stroke="#263238" stroke-linecap="round" stroke-linejoin="round"/>
<path d="M127.694 67.8558L124.534 62.744" stroke="#263238" stroke-linecap="round" stroke-linejoin="round"/>
<path d="M165.792 49.52C166.412 47.4258 167.703 45.5936 169.467 44.306C171.231 43.0185 173.37 42.347 175.553 42.3952C177.737 42.4435 179.844 43.2087 181.549 44.5729C183.254 45.9371 184.464 47.8246 184.99 49.9441" stroke="#263238" stroke-linecap="round" stroke-linejoin="round"/>
<path d="M174.192 62.215C171.766 61.9374 169.527 60.7768 167.901 58.9545C166.276 57.1322 165.377 54.7755 165.377 52.3335" stroke="#263238" stroke-linecap="round" stroke-linejoin="round"/>
<path d="M185.277 52.3335C185.277 54.9704 184.23 57.4994 182.366 59.3643C180.502 61.2293 177.973 62.2777 175.337 62.2789" stroke="#263238" stroke-linecap="round" stroke-linejoin="round"/>
<path d="M185.843 46.027C188.953 45.6303 191.037 45.8446 191.36 46.7749C192.003 48.6262 185.35 52.6162 176.499 55.6897C167.648 58.7631 159.956 59.7481 159.308 57.8922C158.966 56.9026 160.708 55.3021 163.754 53.5556" stroke="#263238" stroke-linecap="round" stroke-linejoin="round"/>
<path d="M132.29 39.2144L133.243 41.1433L135.373 41.4534L133.831 42.9582L134.196 45.0786L132.29 44.0754L130.384 45.0786L130.749 42.9582L129.208 41.4534L131.337 41.1433L132.29 39.2144Z" stroke="#263238" stroke-linecap="round" stroke-linejoin="round"/>
<path d="M64.9663 34.0753C64.9651 35.7902 64.2836 37.4347 63.0714 38.6478C61.8591 39.8609 60.2152 40.5435 58.5002 40.5459C58.2905 40.5459 58.0853 40.5368 57.8846 40.5186C56.6366 40.4002 55.4498 39.9218 54.4685 39.1415C53.4873 38.3613 52.7538 37.3128 52.3572 36.1235C51.9607 34.9342 51.9182 33.6553 52.2349 32.4423C52.5515 31.2293 53.2138 30.1344 54.141 29.2908C55.0683 28.4471 56.2207 27.8909 57.4582 27.6899C58.6956 27.4889 59.9648 27.6517 61.1114 28.1585C62.2581 28.6653 63.2328 29.4943 63.9172 30.5446C64.6015 31.595 64.966 32.8216 64.9663 34.0753Z" stroke="#263238" stroke-linecap="round" stroke-linejoin="round"/>
<path d="M63.9312 35.2426C63.9321 35.4413 63.874 35.6357 63.7643 35.8012C63.6547 35.9668 63.4983 36.0961 63.3151 36.1727C63.1318 36.2494 62.93 36.2699 62.7351 36.2317C62.5402 36.1935 62.361 36.0983 62.2203 35.9582C62.0795 35.8181 61.9835 35.6393 61.9444 35.4446C61.9053 35.2499 61.9249 35.0479 62.0007 34.8644C62.0765 34.6808 62.2051 34.5238 62.3702 34.4134C62.5353 34.303 62.7294 34.244 62.928 34.244C63.1933 34.244 63.4478 34.3491 63.6358 34.5362C63.8238 34.7234 63.93 34.9774 63.9312 35.2426Z" stroke="#263238" stroke-linecap="round" stroke-linejoin="round"/>
<path d="M54.9251 37.7871C54.9255 38.0248 54.8734 38.2596 54.7725 38.4748C54.6716 38.69 54.5244 38.8803 54.3415 39.032C53.4911 38.3301 52.8362 37.4207 52.4399 36.3918C52.6909 36.2377 52.98 36.1571 53.2744 36.1592C53.4901 36.1562 53.7043 36.196 53.9044 36.2765C54.1046 36.357 54.2867 36.4764 54.4403 36.6279C54.5939 36.7793 54.7158 36.9598 54.7991 37.1588C54.8823 37.3578 54.9252 37.5714 54.9251 37.7871Z" stroke="#263238" stroke-linecap="round" stroke-linejoin="round"/>
<path d="M62.9279 38.804C61.7321 39.9365 60.1471 40.5666 58.5002 40.5642C58.2904 40.5642 58.0852 40.555 57.8846 40.5368C57.8478 40.3613 57.8295 40.1825 57.8298 40.0033C57.8301 39.3971 58.0351 38.8087 58.4116 38.3336C58.7881 37.8585 59.3141 37.5245 59.9042 37.3856C60.4943 37.2468 61.114 37.3114 61.6628 37.5688C62.2116 37.8262 62.6574 38.2615 62.9279 38.804Z" stroke="#263238" stroke-linecap="round" stroke-linejoin="round"/>
<path d="M56.9315 31.508C57.7525 31.508 58.4181 30.8424 58.4181 30.0214C58.4181 29.2004 57.7525 28.5349 56.9315 28.5349C56.1105 28.5349 55.4449 29.2004 55.4449 30.0214C55.4449 30.8424 56.1105 31.508 56.9315 31.508Z" stroke="#263238" stroke-linecap="round" stroke-linejoin="round"/>
<path d="M58.3086 34.244C58.3086 34.3802 58.2683 34.5133 58.1926 34.6265C58.1169 34.7398 58.0094 34.828 57.8836 34.8801C57.7578 34.9323 57.6193 34.9459 57.4857 34.9193C57.3522 34.8928 57.2295 34.8272 57.1332 34.7309C57.0369 34.6346 56.9713 34.5119 56.9447 34.3783C56.9182 34.2448 56.9318 34.1063 56.9839 33.9805C57.036 33.8547 57.1243 33.7471 57.2375 33.6715C57.3508 33.5958 57.4839 33.5554 57.6201 33.5554C57.7105 33.5554 57.8 33.5732 57.8836 33.6078C57.9671 33.6425 58.043 33.6932 58.107 33.7571C58.1709 33.821 58.2216 33.897 58.2562 33.9805C58.2908 34.064 58.3086 34.1536 58.3086 34.244Z" stroke="#263238" stroke-linecap="round" stroke-linejoin="round"/>
<path d="M63.7488 30.2996C63.5678 30.3589 63.3783 30.3882 63.1879 30.3862C62.939 30.3862 62.6925 30.3371 62.4626 30.2418C62.2328 30.1464 62.0239 30.0066 61.8482 29.8304C61.6724 29.6541 61.5331 29.445 61.4382 29.2149C61.3434 28.9847 61.2949 28.7382 61.2955 28.4893C61.2908 28.4103 61.2908 28.3311 61.2955 28.2522C62.2722 28.7178 63.1159 29.422 63.7488 30.2996Z" stroke="#263238" stroke-linecap="round" stroke-linejoin="round"/>
<path d="M212.428 109.16L213.125 107.592L211.994 106.971C212.036 106.695 212.044 106.415 212.017 106.137L213.175 105.572L212.56 103.971L211.319 104.327C211.153 104.103 210.96 103.901 210.745 103.725L211.169 102.503L209.6 101.805L208.976 102.936C208.699 102.902 208.418 102.902 208.141 102.936L207.58 101.778L205.975 102.393L206.335 103.629C206.112 103.798 205.908 103.992 205.729 104.208L204.511 103.784L203.832 105.33L204.963 105.955C204.921 106.231 204.913 106.511 204.94 106.789L203.777 107.35L204.393 108.955L205.633 108.595C205.801 108.818 205.993 109.022 206.208 109.201L205.788 110.419L207.357 111.116L207.977 109.986C208.253 110.027 208.533 110.035 208.811 110.008L209.377 111.171L210.977 110.556L210.622 109.315C210.844 109.148 211.046 108.955 211.224 108.741L212.428 109.16ZM207.658 108.285C207.298 108.125 206.993 107.861 206.783 107.528C206.572 107.195 206.465 106.807 206.475 106.413C206.486 106.019 206.612 105.637 206.839 105.315C207.067 104.993 207.384 104.746 207.752 104.604C208.12 104.463 208.521 104.433 208.906 104.52C209.29 104.607 209.64 104.805 209.912 105.091C210.183 105.376 210.364 105.736 210.431 106.124C210.498 106.513 210.449 106.912 210.289 107.272C210.073 107.755 209.676 108.132 209.182 108.322C208.689 108.512 208.141 108.498 207.658 108.285Z" stroke="#263238" stroke-linecap="round" stroke-linejoin="round"/>
<path d="M204.092 117.209L205.04 115.079L203.508 114.231C203.563 113.856 203.572 113.477 203.536 113.1L205.113 112.334L204.288 110.159L202.605 110.647C202.38 110.342 202.119 110.066 201.826 109.826L202.4 108.166L200.252 107.204L199.409 108.736C199.034 108.682 198.655 108.672 198.278 108.704L197.512 107.131L195.332 107.97L195.82 109.648C195.517 109.877 195.242 110.14 194.999 110.432L193.344 109.876L192.395 112.006L193.928 112.854C193.873 113.228 193.864 113.608 193.9 113.985L192.323 114.751L193.162 116.926L194.844 116.443C195.07 116.746 195.332 117.022 195.624 117.263L195.049 118.919L197.183 119.867L198.027 118.33C198.401 118.386 198.781 118.397 199.158 118.362L199.924 119.936L202.104 119.101L201.616 117.418C201.919 117.191 202.194 116.929 202.437 116.639L204.092 117.209ZM197.617 116.018C197.127 115.8 196.713 115.442 196.428 114.989C196.142 114.535 195.997 114.007 196.012 113.472C196.026 112.936 196.199 112.417 196.509 111.979C196.818 111.542 197.251 111.206 197.751 111.015C198.252 110.823 198.798 110.784 199.32 110.903C199.843 111.022 200.318 111.293 200.687 111.683C201.055 112.072 201.3 112.562 201.389 113.09C201.479 113.618 201.411 114.161 201.192 114.65C201.047 114.975 200.84 115.268 200.582 115.513C200.324 115.758 200.02 115.949 199.688 116.076C199.356 116.203 199.002 116.263 198.647 116.253C198.291 116.244 197.941 116.164 197.617 116.018Z" stroke="#263238" stroke-linecap="round" stroke-linejoin="round"/>
<path d="M109.563 96.9942C108.938 98.1781 108.233 99.3177 107.452 100.405C103.4 106.038 97.4473 110.014 90.6922 111.599C83.9372 113.184 76.8368 112.271 70.7028 109.028C70.0689 108.695 69.4487 108.339 68.8559 107.966C68.2631 107.592 67.684 107.209 67.1277 106.798C66.4528 106.31 65.8053 105.79 65.1851 105.248C65.1454 105.218 65.1088 105.184 65.0757 105.147C61.0348 101.571 58.0812 96.9306 56.5525 91.7556C55.0239 86.5806 54.9817 81.0799 56.4308 75.882C57.8799 70.6842 60.7619 65.9987 64.7475 62.361C68.7331 58.7234 73.6616 56.2801 78.9699 55.3105C84.2781 54.3408 89.7521 54.8839 94.7664 56.8776C99.7806 58.8713 104.133 62.2353 107.326 66.5852C110.519 70.9351 112.425 76.0954 112.824 81.4767C113.224 86.858 112.102 92.2432 109.586 97.017L109.563 96.9942Z" fill="#157145"/>
<mask id="mask0_24_6987" style="mask-type:luminance" maskUnits="userSpaceOnUse" x="55" y="54" width="58" height="59">
<path d="M109.563 96.9942C108.938 98.1781 108.233 99.3177 107.452 100.405C103.4 106.038 97.4473 110.014 90.6922 111.599C83.9372 113.184 76.8368 112.271 70.7028 109.028C70.0689 108.695 69.4487 108.339 68.8559 107.966C68.2631 107.592 67.684 107.209 67.1277 106.798C66.4528 106.31 65.8053 105.79 65.1851 105.248C65.1454 105.218 65.1088 105.184 65.0757 105.147C61.0348 101.571 58.0812 96.9306 56.5525 91.7556C55.0239 86.5806 54.9817 81.0799 56.4308 75.882C57.8799 70.6842 60.7619 65.9987 64.7475 62.361C68.7331 58.7234 73.6616 56.2801 78.9699 55.3105C84.2781 54.3408 89.7521 54.8839 94.7664 56.8776C99.7806 58.8713 104.133 62.2353 107.326 66.5852C110.519 70.9351 112.425 76.0954 112.824 81.4767C113.224 86.858 112.102 92.2432 109.586 97.017L109.563 96.9942Z" fill="white"/>
</mask>
<g mask="url(#mask0_24_6987)">
<g opacity="0.6">
<path d="M109.563 96.9942C108.938 98.1781 108.233 99.3177 107.452 100.405L106.896 99.949L105.938 99.4429L104.93 98.9139L105.099 97.6964L105.044 96.5974C104.985 95.4985 105.778 96.3968 106.412 96.0639C106.906 95.7106 107.306 95.2407 107.575 94.6959C107.575 94.6959 108.031 93.2322 107.88 92.6439C107.635 91.9661 107.346 91.305 107.014 90.6649L105.382 92.9449L104.014 92.84L102.719 92.156L102.55 90.3548L101.884 90.0082L101.606 88.9731L98.0081 87.9654L97.5977 87.2449C97.1873 86.5244 95.532 86.155 95.532 86.155L95.9378 85.2157L96.5762 84.1669C97.2192 83.1181 97.8849 84.86 97.8849 84.86L98.6465 85.2567L100.06 84.0711L100.434 82.3702L102.737 82.5025C102.692 82.2723 102.727 82.0336 102.836 81.8261C102.946 81.6187 103.123 81.4551 103.339 81.3625C104.105 81.0615 103.767 79.3971 103.476 78.7815C103.184 78.1659 102.108 78.663 102.108 78.663C102.108 78.663 100.936 76.88 100.776 76.1686C100.616 75.4573 103.01 75.7126 104.036 74.9967C105.062 74.2808 104.711 72.8581 104.21 72.8262C103.708 72.7942 105.19 69.5886 108.04 70.4686C108.833 70.7149 109.335 70.6282 109.645 70.3546C111.783 74.4717 112.893 79.0453 112.879 83.6845C112.864 88.3237 111.727 92.8904 109.563 96.9942Z" fill="white"/>
<path d="M89.6222 84.6594L88.6464 85.886C88.6464 85.886 88.2314 84.8965 87.6386 85.43L86.7266 86.2417L86.0654 88.093L84.8798 88.8591L84.1548 88.4806L83.4708 88.1158L82.7275 87.7237L82.0162 89.0917L81.437 90.1861C81.7193 90.7233 82.0703 91.2215 82.4813 91.6681L83.7398 93.8888L85.272 94.664C85.911 94.6877 86.547 94.764 87.1735 94.892L88.2269 95.4438L87.853 97.7238C87.853 97.7238 87.0595 99.0142 86.5306 98.6586L85.997 98.3074L85.1306 101.308L85.0942 102.959C85.0942 102.959 84.5789 103.173 84.059 103.346C83.5392 103.52 83.8675 103.428 82.7777 103.766C81.6878 104.103 81.7745 104.09 80.8898 104.34C80.1357 104.604 79.4101 104.943 78.7238 105.353L78.8014 106.94L76.7174 107.245L75.5501 106.625L75.8374 105.622L75.9742 104.053L75.8146 102.881L75.313 101.846L76.7174 100.574L76.4074 99.7758L75.6094 98.1889L73.9222 99.1009L73.0558 99.5569L71.095 98.6768L70.8806 97.4866L70.224 95.348L69.613 94.0165L68.5277 92.5482L68.2541 91.285L68.8651 90.1268L69.1889 89.5158L68.1902 88.1706L67.9166 87.213L66.234 85.6854C66.234 85.6854 66.7219 85.6534 66.6125 84.974C66.503 84.2946 67.5746 83.15 67.5746 83.15C68.1811 83.4692 70.0006 84.7369 70.0006 84.7369L71.592 84.9558C71.592 84.9558 71.9112 84.9558 72.2213 84.3538C72.5835 83.8002 73.0089 83.2906 73.489 82.8354C73.489 82.8354 72.7548 80.2863 73.2792 79.9443C73.8036 79.6023 74.3371 77.9334 74.3371 77.9334L74.7566 77.1354C74.7566 77.1354 73.7671 76.7022 73.5802 76.1778C73.3932 75.6534 70.9536 76.351 70.9536 76.351L69.271 77.5184L67.944 78.5444L67.3694 79.6342C67.3694 79.6342 66.1975 78.2252 66.193 79.0141C66.1035 79.8229 65.9262 80.6195 65.664 81.3898C65.664 81.3898 65.9057 81.5175 65.5865 82.1286C65.2673 82.7396 64.9207 82.7077 64.2185 82.7943C63.303 82.8035 62.3882 82.741 61.4825 82.6074C61.4825 82.6074 61.0265 84.2946 61.3411 84.5864L61.6512 84.8691C61.6512 84.8691 61.1633 86.0958 60.6799 85.8404L59.5034 85.2202L57.8573 85.886L56.0333 87.9015L55.6274 87.8194C54.5095 80.3213 56.3969 72.6851 60.8791 66.5711C65.3612 60.4571 72.0759 56.3597 79.5629 55.1698C79.6678 55.6258 79.7818 56.0545 79.7818 56.0545L79.3258 58.3071L78.7421 59.4198L78.2405 60.3728L77.5337 61.7134L79.344 63.3824L78.9564 65.3569L77.976 65.9725L77.6933 67.4545L79.3759 70.7422L79.8319 72.0327C79.5504 72.6505 79.4117 73.3238 79.4261 74.0026C79.4261 74.0026 79.6313 75.2338 80.5296 75.7218C81.4279 76.2097 82.609 76.7842 82.609 76.7842L82.5132 78.6082L82.1074 79.0642L82.7822 81.0296C84.8388 81.8367 84.6427 82.5116 84.8388 81.8367L85.0394 81.1664L86.4394 80.6602L88.2223 82.7898C88.4298 82.787 88.6346 82.8365 88.8179 82.9337C89.0012 83.0309 89.1571 83.1728 89.2711 83.3461C89.791 84.0027 90.6026 83.4327 89.6222 84.6594Z" fill="white"/>
<path d="M65.4542 100.542C65.5043 101.189 64.6835 102.001 64.6835 102.001L65.3539 102.352L65.5591 104.176L65.0529 105.143C61.4663 101.974 58.7306 97.9579 57.0957 93.4602L57.4605 91.5267L59.0702 91.2987C59.0702 91.2987 60.5111 90.3411 61.1495 90.5965C61.7879 90.8518 62.3716 92.4205 62.3716 92.4205C62.3716 92.4205 62.8276 94.5363 62.7683 94.4953H62.741H62.7775L63.4341 94.8418L63.6211 95.6763L62.7091 97.4091H61.2407C61.2407 97.4091 60.9489 97.2541 60.9215 98.0156C60.9453 98.2799 61.0256 98.5359 61.157 98.7664C61.2884 98.997 61.4678 99.1965 61.6831 99.3517L63.2699 98.9458L63.694 97.3042L65.2535 96.9987C65.2535 96.9987 65.0301 98.0065 65.3949 98.198L65.7643 98.3941L65.9831 99.5979C65.8198 99.6949 65.6849 99.8332 65.592 99.9989C65.4992 100.165 65.4516 100.352 65.4542 100.542Z" fill="white"/>
<path d="M72.9965 103.123C72.8552 102.731 72.7959 102.389 71.8246 101.878C70.8533 101.367 70.9126 101.55 70.5296 101.974C70.3646 102.192 70.1394 102.357 69.8817 102.448C69.624 102.54 69.3451 102.554 69.0795 102.489C68.4411 102.348 68.774 103.068 68.774 103.068L68.929 105.015L67.1278 106.794C67.6841 107.204 68.2602 107.593 68.856 107.961L69.2391 106.784L72.2304 107.66C71.5966 107.473 71.9705 106.607 71.9705 106.607L71.3321 106.269C71.3321 106.269 73.1379 103.506 72.9965 103.123Z" fill="white"/>
<path d="M91.8384 92.9996L90.858 92.0101L89.7362 92.3612L89.2802 93.2732L88.9382 93.9298L89.3942 94.8418L90.3062 95.9499L90.8261 94.9558C90.8261 94.9558 92.2716 94.9558 93.0286 94.1214C93.7855 93.2869 91.8384 92.9996 91.8384 92.9996Z" fill="white"/>
<path d="M88.9564 88.5354L90.7804 89.493L90.8534 89.0643C90.9484 88.7209 91.1164 88.4021 91.3459 88.1295L89.9505 86.6521L88.9564 88.5354Z" fill="white"/>
<path d="M88.3363 109.762L87.8119 108.992L87.2008 108.672H85.3358L84.2733 110.688C84.2733 110.688 83.2564 110.551 81.9204 110.432C80.5843 110.314 80.9126 110.866 80.9126 110.866L80.566 112.133C83.937 112.548 87.3548 112.365 90.6619 111.591C90.2775 111.323 89.8787 111.076 89.4672 110.852L88.3363 109.762Z" fill="white"/>
</g>
</g>
<path d="M109.563 96.9942C108.938 98.1781 108.233 99.3177 107.452 100.405C103.4 106.038 97.4473 110.014 90.6923 111.599C83.9372 113.184 76.8368 112.271 70.7028 109.028C70.0689 108.695 69.4487 108.339 68.8559 107.966C68.2631 107.592 67.684 107.209 67.1277 106.798C66.4528 106.31 65.8053 105.79 65.1851 105.248C65.1454 105.218 65.1088 105.184 65.0757 105.147C61.0348 101.571 58.0812 96.9306 56.5525 91.7556C55.0239 86.5806 54.9817 81.0799 56.4308 75.882C57.8799 70.6842 60.7619 65.9987 64.7475 62.361C68.7331 58.7234 73.6616 56.2801 78.9699 55.3105C84.2781 54.3408 89.7521 54.8839 94.7664 56.8776C99.7806 58.8713 104.133 62.2353 107.326 66.5852C110.519 70.9351 112.425 76.0954 112.824 81.4767C113.224 86.858 112.102 92.2432 109.586 97.017L109.563 96.9942Z" stroke="#263238" stroke-linecap="round" stroke-linejoin="round"/>
<path d="M90.6619 111.591C87.3548 112.365 83.937 112.548 80.566 112.133L80.9126 110.866C80.9126 110.866 80.5843 110.314 81.9204 110.432C83.2564 110.551 84.2733 110.688 84.2733 110.688L85.3358 108.672H87.2008L87.8119 108.992L88.3363 109.762L89.4672 110.852C89.8787 111.076 90.2775 111.323 90.6619 111.591Z" stroke="#263238" stroke-linecap="round" stroke-linejoin="round"/>
<path d="M109.663 70.3592C109.353 70.6328 108.852 70.7194 108.058 70.4732C105.208 69.5931 103.731 72.7942 104.228 72.8307C104.725 72.8672 105.076 74.3082 104.055 75.0013C103.033 75.6944 100.635 75.4573 100.794 76.1732C100.954 76.8891 102.126 78.6675 102.126 78.6675C102.126 78.6675 103.175 78.175 103.471 78.7861C103.767 79.3971 104.105 81.0661 103.339 81.367C103.123 81.4596 102.946 81.6233 102.836 81.8307C102.727 82.0381 102.692 82.2768 102.737 82.507L100.434 82.3748L100.06 84.0757L98.6465 85.2613L97.8849 84.8646C97.8849 84.8646 97.2192 83.1226 96.5762 84.1714L95.9378 85.2202L95.532 86.1596C95.532 86.1596 97.1873 86.529 97.5977 87.2494L98.0081 87.9699L101.606 88.9777L101.884 90.0128L102.55 90.3594L102.719 92.1606L104.059 92.8628L105.427 92.9677L107.06 90.6877C107.391 91.3278 107.681 91.9889 107.926 92.6667C108.086 93.255 107.621 94.7187 107.621 94.7187C107.352 95.2635 106.952 95.7334 106.458 96.0867C105.806 96.4196 105.008 95.5213 105.09 96.6202L105.144 97.7192L104.976 98.9367L105.984 99.4657L106.941 99.9718L107.497 100.428" stroke="#263238" stroke-linecap="round" stroke-linejoin="round"/>
<path d="M55.6638 87.8194L56.0697 87.9015L57.8937 85.886L59.5398 85.2202L60.7163 85.8404C61.1997 86.0958 61.6876 84.8691 61.6876 84.8691L61.3775 84.5864C61.0629 84.2946 61.5189 82.6074 61.5189 82.6074C62.4246 82.741 63.3394 82.8035 64.2549 82.7943C64.9753 82.7077 65.3173 82.735 65.6229 82.1286C65.9284 81.5221 65.7004 81.3898 65.7004 81.3898C65.9626 80.6195 66.1399 79.8229 66.2293 79.0141C66.2293 78.2252 67.4058 79.6342 67.4058 79.6342L67.9804 78.5444L69.2663 77.523L70.9489 76.3556C70.9489 76.3556 73.3885 75.6534 73.5755 76.1823C73.7625 76.7113 74.752 77.1399 74.752 77.1399L74.3325 77.9379C74.3325 77.9379 73.7944 79.5978 73.2745 79.9489C72.7547 80.3 73.4843 82.8399 73.4843 82.8399C73.0042 83.2952 72.5788 83.8048 72.2166 84.3584C71.8974 84.9694 71.5873 84.9603 71.5873 84.9603L69.9959 84.7414C69.9959 84.7414 68.1719 83.4738 67.57 83.1546C67.57 83.1546 66.4984 84.2991 66.6078 84.9786C66.7173 85.658 66.2293 85.6899 66.2293 85.6899L67.912 87.2175L68.1856 88.1751L69.1842 89.5203L68.8605 90.1314L68.2494 91.2896L68.523 92.5527L69.6083 94.021L70.2239 95.348L70.8897 97.4958L71.104 98.6859L73.0648 99.566L73.9312 99.11L75.6184 98.198L76.4164 99.7849L76.7265 100.583L75.322 101.855L75.8236 102.89L75.9832 104.062L75.8464 105.631L75.5591 106.634L76.7265 107.254L78.8104 106.953L78.7329 105.362C79.4191 104.953 80.1447 104.613 80.8989 104.349C81.7835 104.099 81.6969 104.112 82.7867 103.775C83.8765 103.437 83.5437 103.529 84.0681 103.355C84.5925 103.182 85.1032 102.968 85.1032 102.968L85.1397 101.317L86.0061 98.3166L86.5396 98.6677C87.0685 99.0234 87.862 97.7329 87.862 97.7329L88.2359 95.4529L87.1597 94.892C86.5332 94.764 85.8972 94.6877 85.2582 94.664L83.758 93.8751L82.4994 91.6544C82.0884 91.2079 81.7374 90.7097 81.4552 90.1724L82.0343 89.078L82.7457 87.71L83.4889 88.1022L84.1729 88.467L84.898 88.8454L86.0836 88.0794L86.7448 86.228L87.6568 85.4163C88.2496 84.8782 88.6645 85.8723 88.6645 85.8723L89.6404 84.6457C90.6208 83.419 89.8091 83.989 89.3075 83.3598C89.1934 83.1864 89.0376 83.0446 88.8543 82.9474C88.671 82.8502 88.4662 82.8007 88.2587 82.8034L86.4757 80.6739L85.0576 81.212L84.8569 81.8823C84.6609 82.5572 84.8569 81.8823 82.8004 81.0752L82.1255 79.1098L82.5313 78.6538L82.6271 76.8298C82.6271 76.8298 81.4461 76.2507 80.5477 75.7674C79.6494 75.284 79.4442 74.0482 79.4442 74.0482C79.4298 73.3694 79.5685 72.6961 79.8501 72.0783L79.3941 70.7878L77.7114 67.5001L77.9941 66.0181L78.9745 65.4025L79.3621 63.428L77.602 61.759L78.3088 60.4184L78.8104 59.4654L79.3941 58.3527L79.8501 56.1001C79.8501 56.1001 79.7361 55.6806 79.6312 55.2154" stroke="#263238" stroke-linecap="round" stroke-linejoin="round"/>
<path d="M65.2079 105.243C65.1725 105.202 65.1328 105.166 65.0894 105.134L65.5955 104.167L65.3903 102.343L64.72 101.992C64.72 101.992 65.5408 101.18 65.4907 100.533C65.4818 100.34 65.5249 100.147 65.6156 99.9767C65.7062 99.8058 65.841 99.6624 66.0059 99.5614L65.7871 98.3576L65.4177 98.1615C65.0529 97.97 65.2763 96.9622 65.2763 96.9622L63.7168 97.2678L63.2927 98.9094L61.7059 99.3152C61.4906 99.1601 61.3112 98.9605 61.1798 98.73C61.0484 98.4995 60.9681 98.2434 60.9443 97.9791C60.9717 97.2176 61.2635 97.3726 61.2635 97.3726H62.7319L63.6439 95.6398L63.4569 94.8054L62.8003 94.4588" stroke="#263238" stroke-linecap="round" stroke-linejoin="round"/>
<path d="M62.7592 94.4588C62.8321 94.4998 62.3625 92.384 62.3625 92.384C62.3625 92.384 61.7788 90.8382 61.1404 90.56C60.502 90.2818 59.061 91.2622 59.061 91.2622L57.4513 91.4902L57.0865 93.4237" stroke="#263238" stroke-linecap="round" stroke-linejoin="round"/>
<path d="M69.239 106.784L68.8559 107.961C68.2479 107.59 67.6718 107.201 67.1277 106.794L68.9289 105.015L68.7738 103.068C68.7738 103.068 68.441 102.348 69.0794 102.489C69.345 102.554 69.6239 102.54 69.8816 102.448C70.1393 102.357 70.3645 102.192 70.5294 101.974C70.9034 101.55 70.8578 101.367 71.8245 101.878C72.7912 102.389 72.855 102.731 72.9964 103.123C73.1378 103.515 71.332 106.283 71.332 106.283L71.9704 106.62C71.9704 106.62 71.5965 107.487 72.2303 107.674L69.239 106.784Z" stroke="#263238" stroke-linecap="round" stroke-linejoin="round"/>
<path d="M89.7362 92.3612L90.8579 92.0101L91.8383 92.9996C91.8383 92.9996 93.7763 93.2504 93.0194 94.094C92.2624 94.9376 90.8169 94.9285 90.8169 94.9285L90.2879 95.9226L89.3759 94.8145L88.9199 93.9025L89.2619 93.2458L89.7362 92.3612Z" stroke="#263238" stroke-linecap="round" stroke-linejoin="round"/>
<path d="M91.3459 88.1295C91.1164 88.4021 90.9484 88.7209 90.8534 89.0643L90.7804 89.493L88.9564 88.5354L89.9505 86.6521L91.3459 88.1295Z" stroke="#263238" stroke-linecap="round" stroke-linejoin="round"/>
<path d="M190.302 195.691C187.858 197.725 169.03 210.648 142.163 208.564C140.717 196.334 135.204 146.092 141.474 138.212C141.474 138.212 156.686 130.957 170.699 134.003C184.712 137.049 190.166 139.968 191.164 142.494C191.921 144.404 190.841 179.982 190.302 195.691Z" fill="#263238"/>
<path d="M170.234 139.37C162.163 146.361 151.766 144.883 151.994 139.516C152.03 138.677 152.929 137.637 152.929 137.637L152.614 137.154L151.246 135.088C150.247 133.543 148.998 131.6 148.127 130.186C147.397 128.983 165.587 117.792 165.587 124.226C165.587 133.292 170.038 134.997 170.038 134.997C171.716 135.672 173.28 136.739 170.234 139.37Z" fill="white" stroke="#263238" stroke-linecap="round" stroke-linejoin="round"/>
<path d="M175.337 153.214C175.337 153.214 173.709 158.796 174.479 160.396" stroke="white" stroke-linecap="round" stroke-linejoin="round"/>
<path d="M173.435 137.008C173.435 142.394 157.37 147.669 152.664 142.266" stroke="white" stroke-linecap="round" stroke-linejoin="round"/>
<path d="M160.22 130.793C160.22 130.793 159.144 134.851 154.128 138.02C153.889 137.61 153.502 137.305 153.047 137.168C152.896 137.143 152.742 137.143 152.591 137.168L151.223 135.102C153.818 133.232 160.22 130.793 160.22 130.793Z" fill="#263238"/>
<path d="M162.473 125.804C162.473 125.804 162.418 129.808 161.561 130.624C155.2 136.725 148.98 137.209 147.954 135.599C141.045 124.765 142.678 121.919 141.976 120.063C140.731 116.807 139.203 111.49 139.878 108.271C141.383 101.08 154.926 95.503 162.058 102.735C165.478 106.196 166.559 113.707 165.838 119.963" fill="white"/>
<path d="M162.473 125.804C162.473 125.804 162.418 129.808 161.561 130.624C155.2 136.725 148.98 137.209 147.954 135.599C141.045 124.765 142.678 121.919 141.976 120.063C140.731 116.807 139.203 111.49 139.878 108.271C141.383 101.08 154.926 95.503 162.058 102.735C165.478 106.196 166.559 113.707 165.838 119.963" stroke="#263238" stroke-linecap="round" stroke-linejoin="round"/>
<path d="M142.847 116.716C142.847 116.716 140.945 115.863 140.535 116.88" stroke="#263238" stroke-linecap="round" stroke-linejoin="round"/>
<path d="M147.457 116.78C147.457 116.78 151.41 115.125 153.189 117.136" stroke="#263238" stroke-linecap="round" stroke-linejoin="round"/>
<path d="M151.848 119.584C151.912 120.177 151.625 120.692 151.2 120.743C150.776 120.793 150.384 120.341 150.32 119.749C150.257 119.156 150.544 118.636 150.968 118.59C151.392 118.545 151.766 118.992 151.848 119.584Z" fill="#263238"/>
<path d="M144.096 119.762C144.164 120.355 143.872 120.875 143.448 120.92C143.024 120.966 142.632 120.524 142.568 119.931C142.504 119.338 142.792 118.818 143.216 118.773C143.64 118.727 144.023 119.169 144.096 119.762Z" fill="#263238"/>
<path d="M144.288 118.203C144.839 119.092 144.538 120.61 143.809 122.694C143.079 124.778 143.722 125.531 146.522 125.74" fill="white"/>
<path d="M144.288 118.203C144.839 119.092 144.538 120.61 143.809 122.694C143.079 124.778 143.722 125.531 146.522 125.74" stroke="#263238" stroke-linecap="round" stroke-linejoin="round"/>
<path d="M146.522 129.347C146.522 129.347 150.17 129.014 151.839 128.098" stroke="#263238" stroke-linecap="round" stroke-linejoin="round"/>
<path d="M169.632 108.672C169.632 105.964 166.96 100.405 162.272 99.7803C159.577 96.9622 155.738 95.9271 151.077 96.9987C140.307 99.4702 137.028 110.104 136.558 111.864C136.513 112.028 136.49 112.12 136.49 112.12L139.372 111.39L138.131 113.811L139.641 114.81L139.294 115.193L141.045 116.88L140.498 113.798C140.836 111.81 143.125 109.028 143.125 109.028C142.289 110.111 141.769 111.403 141.62 112.763C142.532 110.396 148.004 108.203 148.004 108.203C146.23 109.644 145.268 112.462 145.268 112.462C146.955 110.382 150.909 109.037 153.439 108.321C154.292 110.378 155.646 112.526 157.58 113.716C159.404 114.837 159.34 117.154 159.34 117.154C161.303 118.518 162.748 120.504 163.444 122.79L165.651 125.809C165.651 125.809 169.632 120.925 169.632 108.672Z" fill="#263238"/>
<path d="M160.343 117.929C159.605 116.347 162.286 112.06 164.187 112.589C165.254 112.89 166.65 114.837 166.923 116.88C167.197 118.923 165.751 122.808 164.21 123.652C163.23 124.199 162.423 122.708 162.423 122.708" fill="white"/>
<path d="M160.343 117.929C159.605 116.347 162.286 112.06 164.187 112.589C165.254 112.89 166.65 114.837 166.923 116.88C167.197 118.923 165.751 122.808 164.21 123.652C163.23 124.199 162.423 122.708 162.423 122.708" stroke="#263238" stroke-linecap="round" stroke-linejoin="round"/>
<path d="M44.0085 195.326L95.532 183.278L203.002 195.691L175.332 214.615L44.0085 195.326Z" fill="white"/>
<path d="M44.0085 195.326L95.532 183.278L203.002 195.691" fill="white"/>
<path d="M44.0085 195.326L95.532 183.278L203.002 195.691" stroke="#263238" stroke-linecap="round" stroke-linejoin="round"/>
<path d="M88.5962 197.743L109.454 188.522L135.824 189.886L124.096 199.913L88.5962 197.743Z" fill="white" stroke="#263238" stroke-linecap="round" stroke-linejoin="round"/>
<path d="M142.491 137.756C135.801 140.492 134.36 146.643 122.992 170.953C122.992 170.953 117.944 171.988 115.24 178.121C112.536 184.254 117.064 189.097 122.276 188.933C122.276 188.933 124.369 190.757 128.66 190.57C132.951 190.383 151.916 161.363 151.916 161.363L142.491 137.756Z" fill="#263238"/>
<path d="M124.985 172.38C127.976 175.043 129.695 178.951 128.783 183.283" stroke="white" stroke-linecap="round" stroke-linejoin="round"/>
<path d="M127.871 173.661C127.871 173.661 131.547 174.464 132.117 179.17" stroke="white" stroke-linecap="round" stroke-linejoin="round"/>
<path d="M138.624 159.89C136.887 155.606 136.287 150.945 136.882 146.361" stroke="white" stroke-linecap="round" stroke-linejoin="round"/>
<path d="M138.104 153.689C137.826 155.604 139.805 165.8 139.791 176.521" stroke="white" stroke-linecap="round" stroke-linejoin="round"/>
<path d="M188.109 139.772C196.477 143.976 197.471 156.913 189.577 172.38C184.001 183.297 176.303 199.416 171.433 200.497C166.563 201.578 161.812 198.545 161.812 198.545C161.812 198.545 157.708 198.354 156.467 195.435C153.075 187.46 161.698 177.382 165.072 179.795C165.072 179.795 175.907 156.233 177.881 154.747" fill="#263238"/>
<path d="M155.692 190.588C154.584 185.084 163.248 178.591 165.072 179.795C165.072 179.795 171.506 180.155 172.468 184.605" stroke="white" stroke-linecap="round" stroke-linejoin="round"/>
<path d="M179.263 191.76C183.029 185.116 189.577 172.38 189.577 172.38" stroke="white" stroke-linecap="round" stroke-linejoin="round"/>
<path d="M165.072 179.795C165.072 179.795 169.582 177.095 172.952 179.649" stroke="white" stroke-linecap="round" stroke-linejoin="round"/>
<path d="M166.613 176.516C166.613 176.516 169.103 171.044 171.629 166.028C174.156 161.012 179.938 153.584 182.341 153.224" stroke="white" stroke-linecap="round" stroke-linejoin="round"/>
<path d="M119.089 186.352C118.547 186.326 118.018 186.181 117.539 185.928C109.787 181.883 103.758 175.198 100.128 170.401C98.7172 168.568 97.4183 166.65 96.2388 164.66L98.0993 156.689C98.0993 156.689 99.8503 161.249 106.886 165.732C113.922 170.214 122.281 171.692 124.985 176.22C127.379 180.164 123.161 186.548 119.089 186.352Z" fill="white"/>
<mask id="mask1_24_6987" style="mask-type:luminance" maskUnits="userSpaceOnUse" x="96" y="156" width="30" height="31">
<path d="M119.089 186.352C118.547 186.326 118.018 186.181 117.539 185.928C109.787 181.883 103.758 175.198 100.128 170.401C98.7172 168.568 97.4183 166.65 96.2388 164.66L98.0993 156.689C98.0993 156.689 99.8503 161.249 106.886 165.732C113.922 170.214 122.281 171.692 124.985 176.22C127.379 180.164 123.161 186.548 119.089 186.352Z" fill="white"/>
</mask>
<g mask="url(#mask1_24_6987)">
<path opacity="0.4" d="M119.089 186.352C119.002 185.775 118.849 185.211 118.633 184.669C117.005 180.593 107.155 172.49 107.155 172.49C104.812 172.417 102.235 171.441 100.138 170.401C98.7232 168.568 97.4213 166.651 96.2388 164.66L98.0993 156.689C98.0993 156.689 99.8503 161.249 106.886 165.732C113.922 170.214 122.281 171.692 124.985 176.22C127.379 180.164 123.161 186.548 119.089 186.352Z" fill="#157145"/>
</g>
<path d="M119.089 186.352C118.547 186.326 118.018 186.181 117.539 185.928C109.787 181.883 103.758 175.198 100.128 170.401C98.7172 168.568 97.4183 166.65 96.2388 164.66L98.0993 156.689C98.0993 156.689 99.8503 161.249 106.886 165.732C113.922 170.214 122.281 171.692 124.985 176.22C127.379 180.164 123.161 186.548 119.089 186.352Z" stroke="#263238" stroke-linecap="round" stroke-linejoin="round"/>
<path d="M101.533 164.177C101.533 164.177 100.571 168.427 98.0354 167.474C96.6674 166.958 94.0317 162.872 93.5347 160.811L101.533 164.177Z" fill="white" stroke="#263238" stroke-linecap="round" stroke-linejoin="round"/>
<path d="M90.3564 138.007L92.4267 136.94C92.4267 136.94 98.2772 136.99 101.907 139.94C105.204 142.622 106.877 146.821 106.877 146.821C106.877 146.821 119.686 139.749 132.769 143.807L138.104 173.543L113.576 175.148L98.268 160.606L90.3564 138.007Z" fill="white" stroke="#263238" stroke-linecap="round" stroke-linejoin="round"/>
<path d="M139.791 174.733C139.791 174.733 136.914 174.646 133.065 174.774C127.247 174.956 119.208 175.613 115.532 177.752L115.359 177.692L111.994 176.516L111.925 176.416C111.305 175.504 106.303 168.322 99.1572 165.399L89.0522 137.163C89.0522 137.163 99.5402 137.619 105.272 147.095L108.15 148.135C108.15 148.135 125.272 143.064 134.857 144.888L139.791 174.733Z" fill="#157145"/>
<mask id="mask2_24_6987" style="mask-type:luminance" maskUnits="userSpaceOnUse" x="89" y="137" width="51" height="41">
<path d="M139.791 174.733C139.791 174.733 136.914 174.646 133.065 174.774C127.247 174.956 119.208 175.613 115.532 177.752L115.359 177.692L111.994 176.516L111.925 176.416C111.305 175.504 106.303 168.322 99.1572 165.399L89.0522 137.163C89.0522 137.163 99.5402 137.619 105.272 147.095L108.15 148.135C108.15 148.135 125.272 143.064 134.857 144.888L139.791 174.733Z" fill="white"/>
</mask>
<g mask="url(#mask2_24_6987)">
<path opacity="0.3" d="M111.925 176.42C111.305 175.508 106.303 168.326 99.1572 165.403L89.0522 137.168C89.0522 137.168 99.5402 137.624 105.272 147.099L111.925 176.42Z" fill="black" fill-opacity="0.7"/>
<path opacity="0.3" d="M133.065 174.774C127.247 174.956 119.208 175.613 115.532 177.752L115.359 177.692L108.637 149.156C108.637 149.156 114.137 147.92 115.829 148.545C115.824 148.554 127.005 156.803 133.065 174.774Z" fill="black" fill-opacity="0.7"/>
</g>
<path d="M139.791 174.733C139.791 174.733 136.914 174.646 133.065 174.774C127.247 174.956 119.208 175.613 115.532 177.752L115.359 177.692L111.994 176.516L111.925 176.416C111.305 175.504 106.303 168.322 99.1572 165.399L89.0522 137.163C89.0522 137.163 99.5402 137.619 105.272 147.095L108.15 148.135C108.15 148.135 125.272 143.064 134.857 144.888L139.791 174.733Z" stroke="#263238" stroke-linecap="round" stroke-linejoin="round"/>
<path d="M108.159 148.139L114.757 175.513" stroke="#263238" stroke-linecap="round" stroke-linejoin="round"/>
<path d="M111.994 176.521L105.582 149.165" stroke="#263238" stroke-linecap="round" stroke-linejoin="round"/>
<path d="M95.7053 164.683C94.2415 164.277 91.2912 155.481 92.6409 151.691C92.6409 151.691 94.2461 148.905 94.9209 148.714C95.9424 148.417 100.065 148.504 99.864 149.197C99.408 150.802 96.2433 150.775 96.2433 150.775L95.2173 152.654L95.2584 153.689C95.2584 153.689 96.7495 152.603 97.2967 152.635C97.5794 152.635 99.0386 153.365 100.197 153.976C101.186 154.5 101.793 154.788 101.565 155.262C100.831 156.84 97.7071 155.718 97.7071 155.718L96.5306 157.492C96.5306 157.492 97.6661 157.688 98.1631 157.742C98.6601 157.797 102.787 160.547 102.664 160.889C102.176 162.23 98.2634 160.779 98.2634 160.779L97.5703 161.359C97.5703 161.359 100.452 162.102 100.762 162.211C101.218 162.38 102.974 163.73 102.947 163.885C102.737 165.07 100.315 164.199 100.315 164.199L98.195 164.113C97.872 164.398 97.4835 164.598 97.0641 164.696" fill="white"/>
<path d="M95.7053 164.683C94.2415 164.277 91.2912 155.481 92.6409 151.691C92.6409 151.691 94.2461 148.905 94.9209 148.714C95.9424 148.417 100.065 148.504 99.864 149.197C99.408 150.802 96.2433 150.775 96.2433 150.775L95.2173 152.654L95.2584 153.689C95.2584 153.689 96.7495 152.603 97.2967 152.635C97.5794 152.635 99.0386 153.365 100.197 153.976C101.186 154.5 101.793 154.788 101.565 155.262C100.831 156.84 97.7071 155.718 97.7071 155.718L96.5306 157.492C96.5306 157.492 97.6661 157.688 98.1631 157.742C98.6601 157.797 102.787 160.547 102.664 160.889C102.176 162.23 98.2634 160.779 98.2634 160.779L97.5703 161.359C97.5703 161.359 100.452 162.102 100.762 162.211C101.218 162.38 102.974 163.73 102.947 163.885C102.737 165.07 100.315 164.199 100.315 164.199L98.195 164.113C97.872 164.398 97.4835 164.598 97.0641 164.696" stroke="#263238" stroke-linecap="round" stroke-linejoin="round"/>
<path d="M95.2401 153.689C95.2401 153.689 93.8721 154.838 93.521 155.171C93.1699 155.504 93.2565 156.561 93.2565 156.561" stroke="#263238" stroke-linecap="round" stroke-linejoin="round"/>
<path d="M94.2506 158.896C94.2506 160.054 95.0258 160.757 95.3815 161.131C95.7372 161.504 94.8115 162.521 95.8375 163.251" stroke="#263238" stroke-linecap="round" stroke-linejoin="round"/>
<path d="M161.793 195.609C158.898 196.398 155.751 191.309 151.912 185.755C149.376 182.107 146.54 178.217 143.28 175.723C143.02 175.526 142.755 175.335 142.491 175.153L144.397 165.577C148.355 167.651 150.808 170.976 154.917 174.391C161.529 179.895 167.388 183.274 169.012 185.709C170.635 188.144 166.755 194.254 161.793 195.609Z" fill="white"/>
<mask id="mask3_24_6987" style="mask-type:luminance" maskUnits="userSpaceOnUse" x="142" y="165" width="28" height="31">
<path d="M161.793 195.609C158.898 196.398 155.751 191.309 151.912 185.755C149.376 182.107 146.54 178.217 143.28 175.723C143.02 175.526 142.755 175.335 142.491 175.153L144.397 165.577C148.355 167.651 150.808 170.976 154.917 174.391C161.529 179.895 167.388 183.274 169.012 185.709C170.635 188.144 166.755 194.254 161.793 195.609Z" fill="white"/>
</mask>
<g mask="url(#mask3_24_6987)">
<path opacity="0.4" d="M151.912 185.75C149.376 182.102 146.54 178.212 143.28 175.718C143.709 175.74 144.139 175.675 144.543 175.526C144.543 175.526 149.696 179.708 151.912 185.75Z" fill="#157145"/>
</g>
<path d="M161.793 195.609C158.898 196.398 155.751 191.309 151.912 185.755C149.376 182.107 146.54 178.217 143.28 175.723C143.02 175.526 142.755 175.335 142.491 175.153L144.397 165.577C148.355 167.651 150.808 170.976 154.917 174.391C161.529 179.895 167.388 183.274 169.012 185.709C170.635 188.144 166.755 194.254 161.793 195.609Z" stroke="#263238" stroke-linecap="round" stroke-linejoin="round"/>
<path d="M145.464 174.774C145.266 175.128 144.939 175.393 144.552 175.513C144.449 175.553 144.344 175.588 144.237 175.618H144.151C141.091 176.416 134.205 174.756 134.205 174.756C134.205 174.756 129.696 172.613 129.422 172.106C129.231 171.705 129.062 171.294 128.916 170.875L128.793 170.515C128.793 170.515 127.169 169.603 126.969 168.892C126.768 168.18 126.426 167.98 127.425 167.852C128.423 167.724 133.809 167.852 133.809 167.852L127.949 165.463C127.949 165.463 124.068 163.506 123.708 162.818C123.348 162.129 122.897 161.673 124.88 161.947C126.864 162.22 131.196 163.479 131.196 163.479L134.611 164.204L131.219 162.758C131.219 162.758 124.543 161.951 125.806 159.877H129.595C131.742 159.971 133.877 160.243 135.979 160.688C137.083 161.026 144.379 165.558 144.379 165.558" fill="white"/>
<mask id="mask4_24_6987" style="mask-type:luminance" maskUnits="userSpaceOnUse" x="123" y="159" width="23" height="17">
<path d="M145.464 174.774C145.266 175.128 144.939 175.393 144.552 175.513C144.449 175.553 144.344 175.588 144.237 175.618H144.151C141.091 176.416 134.205 174.756 134.205 174.756C134.205 174.756 129.696 172.613 129.422 172.106C129.231 171.705 129.062 171.294 128.916 170.875L128.793 170.515C128.793 170.515 127.169 169.603 126.969 168.892C126.768 168.18 126.426 167.98 127.425 167.852C128.423 167.724 133.809 167.852 133.809 167.852L127.949 165.463C127.949 165.463 124.068 163.506 123.708 162.818C123.348 162.129 122.897 161.673 124.88 161.947C126.864 162.22 131.196 163.479 131.196 163.479L134.611 164.204L131.219 162.758C131.219 162.758 124.543 161.951 125.806 159.877H129.595C131.742 159.971 133.877 160.243 135.979 160.688C137.083 161.026 144.379 165.558 144.379 165.558" fill="white"/>
</mask>
<g mask="url(#mask4_24_6987)">
<path opacity="0.4" d="M144.142 175.636C141.082 176.434 134.196 174.774 134.196 174.774C134.196 174.774 129.686 172.631 129.413 172.125C129.222 171.724 129.053 171.313 128.907 170.894L134.442 171.5C134.249 171.849 134.147 172.241 134.147 172.64C134.147 173.039 134.249 173.431 134.442 173.78C135.058 174.888 142.071 176.01 144.142 175.636Z" fill="#157145"/>
</g>
<path d="M145.464 174.774C145.266 175.128 144.939 175.393 144.552 175.513C144.449 175.553 144.344 175.588 144.237 175.618H144.151C141.091 176.416 134.205 174.756 134.205 174.756C134.205 174.756 129.696 172.613 129.422 172.106C129.231 171.705 129.062 171.294 128.916 170.875L128.793 170.515C128.793 170.515 127.169 169.603 126.969 168.892C126.768 168.18 126.426 167.98 127.425 167.852C128.423 167.724 133.809 167.852 133.809 167.852L127.949 165.463C127.949 165.463 124.068 163.506 123.708 162.818C123.348 162.129 122.897 161.673 124.88 161.947C126.864 162.22 131.196 163.479 131.196 163.479L134.611 164.204L131.219 162.758C131.219 162.758 124.543 161.951 125.806 159.877H129.595C131.742 159.971 133.877 160.243 135.979 160.688C137.083 161.026 144.379 165.558 144.379 165.558" stroke="#263238" stroke-linecap="round" stroke-linejoin="round"/>
<path d="M128.784 170.533L135.446 171.514" stroke="#263238" stroke-linecap="round" stroke-linejoin="round"/>
<path d="M62.3717 190.935L79.0704 195.951L109.622 188.978C109.622 188.978 90.9629 183.68 90.7896 183.812C90.6163 183.944 62.3717 190.935 62.3717 190.935Z" fill="#157145"/>
<mask id="mask5_24_6987" style="mask-type:luminance" maskUnits="userSpaceOnUse" x="62" y="183" width="48" height="13">
<path d="M62.3717 190.935L79.0704 195.951L109.622 188.978C109.622 188.978 90.9629 183.68 90.7896 183.812C90.6163 183.944 62.3717 190.935 62.3717 190.935Z" fill="white"/>
</mask>
<g mask="url(#mask5_24_6987)">
<path opacity="0.3" d="M62.3717 190.935L79.0704 195.951L109.622 188.978C109.622 188.978 90.9629 183.68 90.7896 183.812C90.6163 183.944 62.3717 190.935 62.3717 190.935Z" fill="black" fill-opacity="0.7"/>
</g>
<path d="M62.3717 190.935L79.0704 195.951L109.622 188.978C109.622 188.978 90.9629 183.68 90.7896 183.812C90.6163 183.944 62.3717 190.935 62.3717 190.935Z" stroke="#263238" stroke-linecap="round" stroke-linejoin="round"/>
<path d="M62.6134 185.052C61.4414 185.134 61.1496 189.357 62.3717 190.935L89.3487 185.335L91.5101 180.219L62.6134 185.052Z" fill="#157145"/>
<mask id="mask6_24_6987" style="mask-type:luminance" maskUnits="userSpaceOnUse" x="61" y="180" width="31" height="11">
<path d="M62.6134 185.052C61.4414 185.134 61.1496 189.357 62.3717 190.935L89.3487 185.335L91.5101 180.219L62.6134 185.052Z" fill="white"/>
</mask>
<g mask="url(#mask6_24_6987)">
<path opacity="0.3" d="M62.6134 185.052C61.4414 185.134 61.1496 189.357 62.3717 190.935L89.3487 185.335L91.5101 180.219L62.6134 185.052Z" fill="black" fill-opacity="0.7"/>
</g>
<path d="M62.6134 185.052C61.4414 185.134 61.1496 189.357 62.3717 190.935L89.3487 185.335L91.5101 180.219L62.6134 185.052Z" stroke="#263238" stroke-linecap="round" stroke-linejoin="round"/>
<path d="M108.314 184.993C108.314 184.993 107.912 187.214 108.172 188.582L79.0385 195.176L63.6804 190.652C63.6804 190.652 62.0844 187.829 63.4752 185.636L91.5375 180.871L108.314 184.993Z" fill="white" stroke="#263238" stroke-linecap="round" stroke-linejoin="round"/>
<path d="M62.6133 185.052L91.51 180.219L109.454 184.765L79.2755 190.78L62.6133 185.052Z" fill="#157145" stroke="#263238" stroke-linecap="round" stroke-linejoin="round"/>
<path d="M63.6394 187.752L78.92 192.303L103.932 187.268" stroke="#263238" stroke-linecap="round" stroke-linejoin="round"/>
<path d="M108.09 187.734L81.1953 193.47" stroke="#263238" stroke-linecap="round" stroke-linejoin="round"/>
<path d="M63.9996 189.544C64.2322 189.567 75.5182 193.041 75.5182 193.041" stroke="#263238" stroke-linecap="round" stroke-linejoin="round"/>
<path d="M105.892 186.68L108.031 186.334" stroke="#263238" stroke-linecap="round" stroke-linejoin="round"/>
<path d="M78.4229 193.885L77.2875 193.63" stroke="#263238" stroke-linecap="round" stroke-linejoin="round"/>
<path d="M63.4751 185.636C64.0731 186.325 64.4192 187.197 64.4564 188.108C64.4937 189.02 64.2201 189.917 63.6803 190.652C63.1807 189.919 62.8967 189.06 62.8604 188.173C62.8241 187.287 63.0371 186.408 63.4751 185.636Z" fill="#263238"/>
<mask id="mask7_24_6987" style="mask-type:luminance" maskUnits="userSpaceOnUse" x="62" y="185" width="3" height="6">
<path d="M63.4751 185.636C64.0731 186.325 64.4192 187.197 64.4564 188.108C64.4937 189.02 64.2201 189.917 63.6803 190.652C63.1807 189.919 62.8967 189.06 62.8604 188.173C62.8241 187.287 63.0371 186.408 63.4751 185.636Z" fill="white"/>
</mask>
<g mask="url(#mask7_24_6987)">
<path opacity="0.3" d="M63.4751 185.636C64.0731 186.325 64.4192 187.197 64.4564 188.108C64.4937 189.02 64.2201 189.917 63.6803 190.652C63.1807 189.919 62.8967 189.06 62.8604 188.173C62.8241 187.287 63.0371 186.408 63.4751 185.636Z" fill="white" fill-opacity="0.7"/>
</g>
<path d="M63.4751 185.636C64.0731 186.325 64.4192 187.197 64.4564 188.108C64.4937 189.02 64.2201 189.917 63.6803 190.652C63.1807 189.919 62.8967 189.06 62.8604 188.173C62.8241 187.287 63.0371 186.408 63.4751 185.636Z" stroke="#263238" stroke-linecap="round" stroke-linejoin="round"/>
<path d="M125.888 192.303L155.049 193.497L152.208 203.534L116.335 202.166L125.888 192.303Z" fill="white"/>
<mask id="mask8_24_6987" style="mask-type:luminance" maskUnits="userSpaceOnUse" x="116" y="192" width="40" height="12">
<path d="M125.888 192.303L155.049 193.497L152.208 203.534L116.335 202.166L125.888 192.303Z" fill="white"/>
</mask>
<g mask="url(#mask8_24_6987)">
<path opacity="0.4" d="M125.888 192.303L155.049 193.497L152.208 203.534L116.335 202.166L125.888 192.303Z" fill="#157145"/>
</g>
<path d="M125.888 192.303L155.049 193.497L152.208 203.534L116.335 202.166L125.888 192.303Z" stroke="#263238" stroke-linecap="round" stroke-linejoin="round"/>
</svg>
